<?xml version="1.0" encoding="iso-8859-1"?>
<!-- Generator: Adobe Illustrator 19.0.0, SVG Export Plug-In . SVG Version: 6.00 Build 0)  -->
<svg version="1.1" id="Capa_1" xmlns="http://www.w3.org/2000/svg" xmlns:xlink="http://www.w3.org/1999/xlink" x="0px" y="0px"
	 viewBox="0 0 400 400" style="enable-background:new 0 0 400 400;" xml:space="preserve">
<g id="XMLID_3_">
	<path id="XMLID_976_" style="fill:#CCF8F3;" d="M75,285c15.602,0,29.345,7.941,37.418,20H200h60V145v-30h-85h-15v60l-30-30l-30,30
		v-60H85H0v110h30v30v30H0v20h37.582C45.655,292.941,59.398,285,75,285z"/>
	<path id="XMLID_977_" style="fill:#00D7DF;" d="M340,145h-80v160h27.582c8.073-12.059,21.816-20,37.418-20s29.345,7.941,37.418,20
		H400v-20h-20l-10-30h30v-20L340,145z M290,235v-60h33.944l40,60H290z"/>
	<polygon id="XMLID_980_" style="fill:#FFFFFF;" points="290,175 290,235 363.944,235 323.944,175 	"/>
	<path id="XMLID_981_" style="fill:#786145;" d="M112.418,305c4.787,7.15,7.582,15.748,7.582,25c0,1.691-0.102,3.357-0.283,5H200
		v-30H112.418z"/>
	<path id="XMLID_982_" style="fill:#50412E;" d="M287.582,305H260h-60v30h80.283c-0.182-1.643-0.283-3.309-0.283-5
		C280,320.748,282.795,312.15,287.582,305z"/>
	<path id="XMLID_983_" style="fill:#786145;" d="M60,330c0-8.284,6.716-15,15-15v-30c-15.602,0-29.345,7.941-37.418,20H0v30h30.283
		c2.488,22.499,21.555,40,44.717,40v-30C66.716,345,60,338.284,60,330z"/>
	<path id="XMLID_984_" style="fill:#50412E;" d="M112.418,305c-8.073-12.059-21.816-20-37.418-20v30c8.284,0,15,6.716,15,15
		s-6.716,15-15,15v30c23.162,0,42.229-17.501,44.717-40c0.182-1.643,0.283-3.309,0.283-5C120,320.748,117.205,312.15,112.418,305z"
		/>
	<path id="XMLID_985_" style="fill:#786145;" d="M310,330c0-8.284,6.716-15,15-15v-30c-15.602,0-29.345,7.941-37.418,20
		c-4.787,7.15-7.582,15.748-7.582,25c0,1.691,0.102,3.357,0.283,5c2.488,22.499,21.555,40,44.717,40v-30
		C316.716,345,310,338.284,310,330z"/>
	<path id="XMLID_986_" style="fill:#50412E;" d="M325,285v30c8.284,0,15,6.716,15,15s-6.716,15-15,15v30
		c23.162,0,42.228-17.501,44.717-40H400v-30h-37.582C354.345,292.941,340.602,285,325,285z"/>
	<circle id="XMLID_987_" style="fill:#FFFFFF;" cx="75" cy="330" r="15"/>
	<circle id="XMLID_988_" style="fill:#FFFFFF;" cx="325" cy="330" r="15"/>
	<rect id="XMLID_989_" y="255" style="fill:#FF9811;" width="30" height="30"/>
	<rect id="XMLID_990_" y="225" style="fill:#00D7DF;" width="30" height="30"/>
	<polygon id="XMLID_991_" style="fill:#FF9811;" points="380,285 400,285 400,255 370,255 	"/>
	<path id="XMLID_32_" style="fill:#FFDA44;" d="M175,115c24.854,0,45-20.147,45-45s-20.146-45-45-45s-45,20.147-45,45
		c0-24.853-20.146-45-45-45S40,45.147,40,70s20.146,45,45,45H175z M160,70c0-8.271,6.729-15,15-15s15,6.729,15,15s-6.729,15-15,15
		h-15V70z M70,70c0-8.271,6.729-15,15-15s15,6.729,15,15v15H85C76.729,85,70,78.271,70,70z"/>
	<polygon id="XMLID_992_" style="fill:#FF9811;" points="100,115 100,175 130,145 160,175 160,115 130,115 	"/>
</g>
<g>
</g>
<g>
</g>
<g>
</g>
<g>
</g>
<g>
</g>
<g>
</g>
<g>
</g>
<g>
</g>
<g>
</g>
<g>
</g>
<g>
</g>
<g>
</g>
<g>
</g>
<g>
</g>
<g>
</g>
</svg>
