<?xml version="1.0" encoding="utf-8"?>
<!-- Generator: Adobe Illustrator 25.0.0, SVG Export Plug-In . SVG Version: 6.00 Build 0)  -->
<svg version="1.1" id="Camada_1" xmlns="http://www.w3.org/2000/svg" xmlns:xlink="http://www.w3.org/1999/xlink" x="0px" y="0px"
	 viewBox="0 0 512 512" style="enable-background:new 0 0 512 512;" xml:space="preserve">
<style type="text/css">
	.st0{fill:none;stroke:#060707;stroke-width:2;stroke-linecap:round;stroke-linejoin:round;stroke-miterlimit:1.8867;}
	.st1{fill:#010202;}
	.st2{enable-background:new    ;}
</style>
<g>
	<g>
		<g id="Camada_x0020_1_1_">
			<g>
				<path class="st0" d="M260.9,165.3c1.8-44.5,17.9-68.7,57.4-49.2c19.5,10.5,14.4,43.3-8.1,49.4c-8.6,1-16.8-0.3-24.5-3.3
					c-9.1-3.6-14.7-1.2-17.6,5.9 M268.3,168.2c4-6.4,2.6-12.8-3.9-19.2c-19.7-15-21.3-30.5-7.5-46.4c16.1-13.8,32-10.2,44,6.7
					c18.1,25.9,3.2,45.8-27.8,62.7 M238.5,172.5c-37.9-22.6-51.3-48.1-15.6-73.6c18.5-12.2,44.9,7.9,39.6,30.6
					c-3.2,8-8.2,14.6-14.5,20c-7.5,6.3-8,12.3-3.3,18.1 M245,167.5c-3.8-6.5-10.1-8.2-18.6-5.6c-22.6,10.2-37,4.3-44.4-15.4
					c-4.5-20.7,6.2-33,26.8-35.5c31.5-3.6,41.9,19,42,54.4 M233.3,195.9c-40.2,19.5-69.3,16.7-70.7-27.4c0.1-22.1,31.5-33,47.4-16.1
					c4.9,7.1,7.6,14.9,8.6,23.2c1.1,9.8,5.9,13.5,13.5,12.7 M232.2,188.1c-7.6-0.6-12.6,3.7-15.2,12.4c-4,24.5-17,33.1-37.4,28.4
					c-19.8-7.7-24-23.5-14.7-42c14.4-28.1,38.9-24.3,68.3-4.9 M250.5,211.9c-0.3,44.3-15.5,68.8-55.6,50.8
					c-19.8-9.8-15.9-42.8,6.3-49.6c8.6-1.3,16.8-0.3,24.6,2.4c9.3,3.3,14.8,0.6,17.4-6.6 M243.1,208.7c-3.9,6.6-2.2,13,4.5,19.1
					c20.2,14.3,22.4,29.8,9.1,46.1c-15.6,14.4-31.6,11.3-44.2-5.2c-19.1-25.4-4.7-45.8,26-63.9 M274.2,204
					c37.1,25.2,49.2,51.8,11.6,75c-19.3,10.9-44.3-10.9-37.5-33.1c3.8-7.8,9.1-14,15.8-19c7.9-5.8,8.8-11.8,4.4-18 M268.3,209.1
					c3.3,6.8,9.5,8.9,18.3,6.9c23.2-8.7,37.2-1.8,43.3,18.3c3.1,21-8.4,32.5-29.1,33.7c-31.4,1.5-40.4-21.4-38.3-56.3 M278.6,181.2
					c40-20.3,69.2-18.2,71.4,26c0.3,22.1-30.9,33.6-47.1,16.9c-5-7-7.9-14.8-9-23.1c-1.3-9.9-6.3-13.5-14.1-12.4 M279.8,188.8
					c7.8,0.5,12.8-3.8,15.3-12.7c3.6-24.5,16.3-33.5,36.9-29.1c19.9,7.4,24.4,23,15.5,41.7c-13.9,28.4-38.5,25-68.5,6"/>
			</g>
		</g>
	</g>
	<path class="st1" d="M16.5,355.3l-0.2-1.5c0-4.3,1.9-8.2,5.6-11.6c6.7-6,17.6-9.7,32.6-11.1c2.3-0.2,5-0.3,8-0.3s6.9,0.4,11.6,1.3
		c4.7,0.9,8.5,2.5,11.6,5c4.8,4,7.2,9.1,7.2,15.5c0,6.4-1.9,12.3-5.7,17.7c-3.8,5.4-8.6,9.6-14.5,12.5s-12.1,4.4-18.8,4.4
		s-12.1-1.6-16.2-4.7c-0.1,0.1-0.4,0.6-0.9,1.6c-0.5,1-1.1,1.9-1.6,2.9c-2.8,4.5-5.4,5.1-7.6,1.9c-1.3-1.9-1.9-4.2-1.9-6.9
		c0-2.7,0.3-5.9,0.8-9.6c0.1-0.4-0.2-1.2-0.7-2.6c-0.2-0.6,0-1.2,0.7-1.9c0.5-0.4,1.2-0.7,2.1-0.9c0.9-0.2,1.5-0.2,1.9,0
		c0.3,0.2,0.3,0.9-0.2,2c-0.5,1.1-0.7,2.1-0.7,3c0,0.9,1,2.3,2.9,4.1c1.9,1.8,3.1,2.8,3.5,2.9c1.5-3.6,4.6-10.5,9.4-20.4
		c0.6-1.1,0.8-1.9,0.8-2.5c0-0.6-0.1-1-0.2-1.3c0.3-1.8,2.3-4.6,5.9-8.5c3.6-3.9,6.5-5.8,8.7-5.8c0.9,0,1.9,0.3,3.2,0.9
		c1.3,0.6,2,1.4,2.2,2.4c0,0.4,0,0.6-0.1,0.6c-0.1,0-0.2,0-0.5-0.1c-0.2-0.1-0.4-0.2-0.6-0.2c-2,0-4.3,1.4-7,4.3
		c-2.7,2.9-5.4,6.6-8,11.2c-4.7,8-8.5,15.1-11.3,21.3c3.8,2.8,8,4.2,12.5,4.2c5.9,0,11.5-1.5,16.8-4.5c5.4-3,9.7-6.5,13-10.5
		c5.3-6.5,8-12.9,8-19.2c0-4.6-1.8-8.8-5.5-12.4c-3.7-3.6-9.5-5.6-17.4-5.8c-0.4,0-0.7,0-1.1,0c-6.3,0-12.9,1-19.9,3.1
		c-7,2.1-12.9,5-17.9,8.8s-7.4,7.8-7.4,11.9c0,1,0.3,2,1,2.8c0.7,0.8,1.3,1.4,2,1.7s1.6,0.7,2.7,1c1.1,0.4,1.8,0.6,2.1,0.8
		c0.3,0.2,0.5,0.3,0.6,0.5c0.1,0.5-0.3,0.7-1.3,0.7c-2.3-0.2-4.6-1-6.9-2.5c-2.3-1.5-3.5-3.3-3.5-5.3
		C16.4,355.9,16.5,355.6,16.5,355.3L16.5,355.3z M29,375.6c0,8.3,0.6,12.5,1.8,12.5c0.9,0,2.1-2.2,3.7-6.5c0.1-0.2,0.2-0.3,0.2-0.4
		c-0.4-0.4-1.3-1.3-2.7-2.7C30.5,377.1,29.6,376.1,29,375.6L29,375.6z M112.3,373.7c1.1-2.3,1.7-4,1.7-5.3c0-1.2-0.1-2.2-0.4-2.9
		c-0.3-0.7-0.2-1.3,0.4-1.8c0.5-0.5,1.2-0.7,2-0.6c1.2,0.3,1.9,1.7,1.9,4.2c0,2.5-1.4,5.7-4.3,9.7c0.1,1.7,0.9,2.5,2.6,2.5
		c1.7,0,4.2-1.8,7.6-5.4c1.6-1.9,2.6-3.1,3-3.6s0.8-0.8,1.1-0.6c0.3,0.2,0.5,0.3,0.5,0.4c0,0.6-1.1,2.2-3.3,4.8
		c-3.5,4.3-6.6,6.5-9.3,6.5c-1.8,0-3.1-0.8-3.8-2.3c-1.2,1.3-2.4,2.5-3.6,3.6c-2.4,2-5.1,3.1-8.1,3.1c-1.7,0-3.1-0.4-4.2-1.2
		c-2.2-1.3-3.2-3.6-3.2-6.9c0-3.6,1.2-7.3,3.7-11.1c1.4-2.2,3.1-4.2,5-5.8c3-2.7,5.9-4,8.6-4c0.7,0,1.3,0.1,1.9,0.3
		c1.9,0.6,2.8,1.8,2.8,3.5c0,1.4-0.4,2.1-1.1,2.1c-0.3-0.1-0.5-0.6-0.5-1.4c0-1.1-0.6-1.7-1.9-1.7c-2.2,0-4.9,2-8.3,5.9
		c-3.4,4-5.4,7.9-6.1,11.9c-0.1,0.7-0.2,1.4-0.2,2.3s0.3,1.8,0.8,2.9c0.6,1.1,1.6,1.6,3.1,1.6s3.2-0.7,5-2c1.8-1.4,3.4-3.1,4.8-5.2
		l-0.3-0.6c-0.2-1-0.1-1.8,0.4-2.4C110.8,373.7,111.5,373.5,112.3,373.7L112.3,373.7z M157.7,336.7c0.7-1.4,1.1-2.4,1.1-3.1
		c0-1.3-0.5-1.9-1.6-1.9c-0.9,0-1.9,0.5-3.2,1.5c-4.9,3.8-9.7,9.9-14.3,18.1c-3.7,6.7-6.4,12.4-8.1,17.1c4.3-2.9,9-7.6,14.3-14.2
		C151.1,347.7,155.1,341.8,157.7,336.7z M130.1,372.1c-0.7,2.1-1.1,3.5-1.2,4.2c-0.1,0.7-0.1,1.7-0.1,2.9c0,1.2,0.3,2.3,0.9,3.3
		c1,1.7,2.8,1.8,5.3,0.4c1.9-1,4.2-2.8,7-5.4c2.8-2.6,5-5,6.6-7.2c0.1-0.2,0.3-0.3,0.6-0.3c0.6,0,0.7,0.4,0.5,1.2
		c-0.9,1.7-2.6,3.8-5.1,6.4c-2.5,2.6-4.8,4.6-6.8,6.2c-2,1.5-4.1,2.3-6.1,2.3c-4.7,0-7-2.3-7-6.9c0-0.2,0-0.4,0-0.6
		c0.2-4.3,2.4-10.8,6.6-19.6c4.1-8.7,7.9-15.3,11.2-19.8l2.9-3.6c0.7-0.8,1.7-1.8,3-3c2.5-2.3,5-3.5,7.6-3.5c2.6,0,4.4,0.8,5.3,2.4
		c0.3,0.6,0.5,1.4,0.5,2.4s-0.5,2.5-1.4,4.4C153.9,349.4,143.8,360.7,130.1,372.1L130.1,372.1z M170.6,363.6l0.5-1.9
		c0-1.2-0.5-1.9-1.4-1.9c-2.5,0-6,2-10.4,5.9s-7.2,7.9-8.3,11.9c-0.3,1-0.5,2-0.5,2.8c0,0.8,0.2,1.5,0.6,2.1
		c0.7,1.1,1.9,1.7,3.4,1.7c1.5,0,3.2-0.2,5-0.7c4-1.1,7.2-2.7,9.9-4.8c2.6-2.1,5.4-5,8.3-8.6c0.2-0.3,0.5-0.4,0.9-0.3
		c0.3,0.1,0.5,0.3,0.5,0.5c0,0.2-0.1,0.5-0.3,1c-3,4-6.1,7.3-9.3,9.8c-3.2,2.5-7,4.1-11.2,4.9c-1.2,0.2-2.4,0.3-3.4,0.3
		c-3,0-5.3-0.7-6.9-2.2c-1.6-1.5-2.4-3.1-2.4-4.9s0.4-3.7,1.3-5.8c1.5-3.5,4.8-7.1,9.9-10.8c5.1-3.7,9.1-5.5,12-5.5
		c0.7,0,1.4,0.1,2.1,0.3c1.7,0.6,2.6,1.6,2.6,3c0,0.9-0.3,2-1,3.1s-1.2,1.6-1.5,1.2C170.6,364.3,170.5,363.9,170.6,363.6
		L170.6,363.6z M197.9,357c3.3,0,5,1.6,5,4.8c0,1.7-0.5,3-1.4,4.1c-1.5,2.3-4,4.3-7.5,6c-3.5,1.7-6.4,2.6-8.8,2.8
		c-0.9,0.1-1.3-0.2-1.4-0.7c-0.1-0.2,0-0.4,0.2-0.5c0.2-0.1,0.4-0.1,0.5-0.1c1.4-0.1,3.2-0.8,5.5-2c4.1-2.2,7.2-4.5,9.1-6.9
		c0.8-1.1,1.2-2.2,1.2-3.2c0-1-0.5-1.5-1.5-1.5c-0.8,0-1.9,0.3-3.2,1c-2.9,1.4-6,3.7-9.2,7.1c-3.2,3.4-5.3,6.6-6.3,9.9
		c-0.3,1-0.5,2-0.5,2.9c0,1,0.4,1.9,1.2,2.7c0.8,0.9,2,1.3,3.7,1.3c1.9,0,4-0.5,6.4-1.5c7-2.8,12.3-7.1,16.1-12.9
		c0.4-0.5,0.7-0.6,1-0.3c0.2,0.1,0.4,0.3,0.4,0.5s-0.1,0.4-0.3,0.7c-1.9,3.1-4.2,5.8-7,8.2c-5.5,4.7-10.8,7-16,7
		c-4.4,0-7.6-1.3-9.3-4c-0.7-1-1-2.3-1-3.8c0-1.5,0.4-3.2,1.2-5.3c1.5-3.5,4.8-7.1,9.9-10.8C190.9,358.8,194.9,357,197.9,357
		L197.9,357z M274.8,336.5c0.1,0.1,0.4,0.2,0.8,0.2c0.4,0,0.8,0.2,1.2,0.5s0.9,1.3,1.6,3.1c0.7,1.7,1.1,3.2,1.1,4.3
		s-0.1,2.3-0.4,3.6c-0.3,1.3-0.7,1.9-1.3,1.9c-1,0-1.9-1.2-2.6-3.7c-0.7-2.4-1.2-4-1.5-4.6c-1.7-3.6-3.6-6.3-5.5-8
		c-1.8-1.7-3.6-2.5-5.5-2.5c-0.8,0-1.6,0.2-2.4,0.5c-4,1.7-5.9,5.5-5.9,11.7c0,2,0.4,4.3,1.1,7c0.7,2.7,1.9,5,3.4,7.1
		c0.3,0.4,1.9,0.7,4.9,0.9c1.5,0.2,2.4,0.7,2.7,1.6s-0.1,1.6-1.1,2.1c-0.6,0.7-2.7,0.5-6.4-0.6c-1-0.2-1.6-0.4-1.9-0.5
		c-3.3,0.1-7.1,0.8-11.3,2.2c-4.2,1.4-8.1,3.6-11.6,6.5s-5.3,6.2-5.3,9.7c0,2.7,1.1,4.8,3.2,6.4c2.2,1.6,5.6,2.4,10.4,2.4
		s10.1-0.7,16-2.2c5.9-1.5,10.5-3.1,13.9-4.8c3.4-1.7,6.7-4.2,9.9-7.3c3.3-3.1,4.9-5.9,4.9-8.1c0-0.4,0-0.7,0-0.9
		c0-0.2,0-0.4,0.1-0.5c0.4-0.2,0.7-0.2,0.9,0.1c0.8,1.5,1.2,2.7,1.2,3.6c0,2.5-0.8,4.8-2.5,6.9c-2.9,3.5-6.2,6.3-9.8,8.3
		c-3.6,2-8.6,3.8-14.9,5.2c-6.3,1.4-11.6,2.1-15.8,2.1s-7.8-0.4-10.7-1.1s-5.5-2.2-7.6-4.4c-2.2-2.2-3.2-5-3.2-8.2
		c0-3.2,0.8-6,2.4-8.2c1.6-2.3,3.5-4,5.6-5.2c2.2-1.2,4.8-2.3,7.9-3.1c4.6-1.2,9.7-2,15.3-2.3c-4-4.6-6.4-9.8-7.1-15.8
		c-0.1-0.7-0.1-1.3-0.1-1.9c0-2.2,0.5-4.3,1.6-6.2c1.1-1.9,2.9-3.2,5.4-4c2.5-0.8,4.4-1.2,5.6-1.2c1.2,0,2.1,0.1,2.7,0.2
		s1.1,0.3,1.5,0.5c0.4,0.2,0.9,0.4,1.3,0.7c0.4,0.3,0.8,0.5,1.1,0.7c0.3,0.2,0.7,0.5,1.1,0.9s0.7,0.7,0.9,0.8c0.2,0.2,0.5,0.5,1,0.9
		c0.5,0.5,0.8,0.7,0.9,0.8C273,335.7,273.9,336.3,274.8,336.5L274.8,336.5z M318.4,357.6c1.4,0,2.1,0.8,2.1,2.3s-0.7,3.6-2.1,6.2
		s-2.5,4.8-3.1,6.5c-1.2,2.8-1.8,5.1-1.8,6.8s0.2,2.8,0.7,3.4c0.9,1,2.2,1,3.8,0.1s3.8-2.6,6.7-5.2s5.2-5.1,6.9-7.5
		c0.2-0.3,0.5-0.4,0.9-0.2c0.3,0.2,0.5,0.3,0.5,0.5c0,0.2-0.1,0.3-0.2,0.5c-0.9,1.7-2.6,3.8-5,6.4c-2.4,2.6-4.7,4.7-6.9,6.2
		c-2.2,1.6-4.4,2.4-6.6,2.4c-2.1-0.1-3.6-0.5-4.4-1.4c-0.9-0.9-1.3-2-1.3-3.4s0.1-2.7,0.4-3.9s0.7-2.7,1.4-4.4
		c1.1-2.7,2.1-4.7,2.9-6.2c0.8-1.5,1.2-2.4,1.2-2.9c0-0.5-0.2-0.7-0.7-0.7c-1,0-2.9,1.2-5.6,3.6c-1.9,1.8-4.7,5.2-8.5,10.1
		c-3.7,5-5.8,7.6-6.3,7.9c-2.2,1.1-3.6,1.7-4.2,1.7c-0.6,0-0.8-0.1-0.8-0.3s0.1-0.4,0.2-0.8c0.1-0.3,0.7-2,1.8-5
		c1.1-3,2.3-6.3,3.5-9.9c1.3-3.6,2-5.8,2.3-6.5c0.3-0.7,0.5-1.4,0.6-1.9c0.1-0.5,0.2-1,0.3-1.3c0.1-0.4,0.4-0.8,0.7-1.2
		s0.8-0.7,1.3-0.7c0.6,0,1.3,0,2.1,0.2c0.9,0.2,1.3,0.5,1.3,1.2c0,0.4-0.3,1.4-1,2.8c-0.7,1.4-2.6,6.4-5.8,14.9
		c2.2-2.7,5-5.8,8.4-9.4c3.4-3.5,6.3-6.2,8.6-8.1C315.1,358.5,317,357.6,318.4,357.6L318.4,357.6z M353.7,363.6l0.5-1.9
		c0-1.2-0.5-1.9-1.4-1.9c-2.5,0-6,2-10.4,5.9c-4.4,4-7.2,7.9-8.3,11.9c-0.3,1-0.5,2-0.5,2.8c0,0.8,0.2,1.5,0.6,2.1
		c0.7,1.1,1.9,1.7,3.4,1.7c1.5,0,3.2-0.2,5-0.7c4-1.1,7.2-2.7,9.9-4.8c2.6-2.1,5.4-5,8.3-8.6c0.2-0.3,0.5-0.4,0.9-0.3
		c0.3,0.1,0.5,0.3,0.5,0.5c0,0.2-0.1,0.5-0.3,1c-3,4-6.1,7.3-9.3,9.8c-3.2,2.5-7,4.1-11.2,4.9c-1.2,0.2-2.4,0.3-3.4,0.3
		c-3,0-5.3-0.7-6.9-2.2c-1.6-1.5-2.4-3.1-2.4-4.9s0.4-3.7,1.3-5.8c1.5-3.5,4.8-7.1,9.9-10.8c5.1-3.7,9.1-5.5,12-5.5
		c0.7,0,1.4,0.1,2.1,0.3c1.7,0.6,2.6,1.6,2.6,3c0,0.9-0.3,2-1,3.1s-1.2,1.6-1.5,1.2C353.7,364.3,353.6,363.9,353.7,363.6
		L353.7,363.6z M364.2,384.9c-1,0-2.1-0.3-3.2-0.9c-1.1-0.6-2.1-1.4-2.9-2.5c-0.8-1.1-1.2-2.2-1.2-3.5c0-1.2,0.3-2.4,0.8-3.5
		c1.2-2.6,3.2-5.1,6-7.5c2.7-2.4,5.6-4.5,8.6-6.2c3-1.7,5.3-2.8,7-3.2s3.4-0.7,5-0.7c1.6,0,3,0.4,4.2,1.2c1.2,0.8,1.8,1.7,1.8,2.6
		c0,0.3,0,0.5-0.1,0.6c-0.1,0.1-0.2,0-0.5-0.1c-0.7-1.2-2.3-1.8-4.6-1.8c-2.3,0-4.9,0.8-7.9,2.3c-2.9,1.5-5.7,3.4-8.3,5.7
		c-2.2,2-4.1,4.3-5.7,6.9c-1.6,2.6-2.4,4.4-2.4,5.6c0,2.3,0.7,3.4,1.9,3.4c1.3,0,3.3-1,5.9-3.1c4.4-3.7,7.4-6.4,9-8.1
		c5.7-6.1,8.7-9.2,9.2-9.2c0.7,0,1.6,0.2,2.7,0.7c1,0.4,1.4,1,1,1.6c-3.1,4.4-5,8.9-5.5,13.4c-0.1,0.6-0.1,1.3-0.1,2.1
		s0.2,1.6,0.7,2.1c0.9,1,2.2,1,3.8,0.2s3.8-2.6,6.7-5.2c2.9-2.6,5.2-5.1,6.9-7.6c0.2-0.3,0.5-0.4,0.8-0.2c0.3,0.2,0.5,0.3,0.5,0.4
		c0,0.9-1.5,2.9-4.4,6.1c-2.9,3.1-5.2,5.2-6.7,6.3c-2.9,2.2-5.6,3.2-8.1,3.2c-2.3,0-3.9-1.2-4.7-3.5c-0.2-0.7-0.3-1.6-0.3-2.5
		c0-2.8,0.6-5.7,1.8-8.8c-0.2,0.1-1.4,1.4-3.4,3.7c-2,2.3-4.4,4.6-7.1,6.8C368.8,383.9,366.4,384.9,364.2,384.9L364.2,384.9z
		 M427.7,357.6c1.4,0,2.1,0.8,2.1,2.3s-0.7,3.6-2.1,6.2c-1.4,2.7-2.5,4.8-3.1,6.5c-1.2,2.8-1.8,5.1-1.8,6.8s0.2,2.8,0.7,3.4
		c0.9,1,2.2,1,3.8,0.1s3.8-2.6,6.7-5.2s5.2-5.1,6.9-7.5c0.2-0.3,0.5-0.4,0.9-0.2c0.3,0.2,0.5,0.3,0.5,0.5c0,0.2-0.1,0.3-0.2,0.5
		c-0.9,1.7-2.6,3.8-5,6.4c-2.4,2.6-4.7,4.7-6.9,6.2c-2.2,1.6-4.4,2.4-6.6,2.4c-2.1-0.1-3.6-0.5-4.4-1.4c-0.9-0.9-1.3-2-1.3-3.4
		s0.1-2.7,0.4-3.9c0.2-1.3,0.7-2.7,1.4-4.4c1.1-2.7,2.1-4.7,2.9-6.2c0.8-1.5,1.2-2.4,1.2-2.9c0-0.5-0.2-0.7-0.7-0.7
		c-1,0-2.9,1.2-5.6,3.6c-1.9,1.8-4.7,5.2-8.5,10.1c-3.7,5-5.8,7.6-6.3,7.9c-2.2,1.1-3.6,1.7-4.2,1.7c-0.6,0-0.8-0.1-0.8-0.3
		s0.1-0.4,0.2-0.8c0.1-0.3,0.7-2,1.8-5s2.3-6.3,3.5-9.9c1.3-3.6,2-5.8,2.3-6.5c0.3-0.7,0.5-1.4,0.6-1.9c0.1-0.5,0.2-1,0.3-1.3
		c0.1-0.4,0.4-0.8,0.7-1.2s0.8-0.7,1.3-0.7c0.6,0,1.3,0,2.1,0.2c0.9,0.2,1.3,0.5,1.3,1.2c0,0.4-0.3,1.4-1,2.8
		c-0.7,1.4-2.6,6.4-5.8,14.9c2.2-2.7,5-5.8,8.4-9.4c3.4-3.5,6.3-6.2,8.6-8.1C424.3,358.5,426.2,357.6,427.7,357.6L427.7,357.6z
		 M454.6,358c4.8-0.4,7.6-0.7,8.6-0.7c1,0,1.5,0.2,1.5,0.5c0,0.4-0.7,0.8-2.2,1.2c-1.4,0.4-5,0.9-10.6,1.5c-0.3,0.6-0.7,1.2-1.1,1.9
		c-0.9,1.5-1.4,2.4-1.5,2.7c-3.5,7-5.4,11.5-5.5,13.4c-0.1,0.6-0.1,1.3-0.1,2.1c0,0.9,0.2,1.6,0.7,2.1c0.9,1,2.1,1,3.7,0.2
		c1.6-0.9,3.8-2.6,6.7-5.2c2.9-2.6,5.2-5.1,7-7.6c0.2-0.3,0.6-0.4,0.9-0.2c0.9,0.4-0.7,2.9-4.8,7.3c-4,4.3-7.2,6.9-9.9,7.9
		c-1.5,0.6-2.8,0.8-3.9,0.8c-2.5,0-4.1-1.2-4.9-3.5c-0.1-0.4-0.2-1-0.2-1.6c0-2.2,1-5.4,3-9.8c-0.3,0.7-1.5,2.2-3.6,4.6
		c-0.6,0.6-1,0.6-1.3,0c-0.1-0.1-0.1-0.3-0.1-0.5s0.1-0.5,0.4-0.8c3-3.8,5.4-6.9,7.1-9.5c0-0.1,0.7-1.4,2-3.9
		c-0.6,0.1-1.2,0.2-1.9,0.2c-0.7,0-1.1-0.2-1.4-0.6c-0.3-0.4-0.3-0.9-0.1-1.4c0.4-1,2.1-1.5,4.9-1.7c0.1-0.1,0.2-0.2,0.4-0.2
		l4.6-8.6c0.2-0.5,0.5-1,0.8-1.5c0.3-0.5,0.5-0.9,0.7-1.2c0.2-0.3,0.3-0.6,0.5-0.9c0.2-0.3,0.3-0.5,0.5-0.7c0.1-0.1,0.2-0.2,0.4-0.4
		c0.2-0.4,1-0.6,2.2-0.6c1.2,0,2,0.3,2.4,1c0.2,0.2,0.3,0.7,0.3,1.2c0,0.6-0.2,1.2-0.7,1.9c-0.4,0.7-0.9,1.2-1.4,1.5
		c-0.5,0.3-0.8,0.7-1,1l-4.4,7.8L454.6,358z M479.8,373.7c1.1-2.3,1.7-4,1.7-5.3c0-1.2-0.1-2.2-0.4-2.9c-0.3-0.7-0.2-1.3,0.4-1.8
		c0.5-0.5,1.2-0.7,2-0.6c1.2,0.3,1.9,1.7,1.9,4.2c0,2.5-1.4,5.7-4.3,9.7c0.1,1.7,0.9,2.5,2.6,2.5c1.7,0,4.2-1.8,7.6-5.4
		c1.6-1.9,2.6-3.1,3-3.6s0.8-0.8,1.1-0.6c0.3,0.2,0.5,0.3,0.5,0.4c0,0.6-1.1,2.2-3.3,4.8c-3.5,4.3-6.6,6.5-9.3,6.5
		c-1.8,0-3.1-0.8-3.8-2.3c-1.2,1.3-2.4,2.5-3.6,3.6c-2.4,2-5.1,3.1-8.1,3.1c-1.7,0-3.1-0.4-4.2-1.2c-2.2-1.3-3.2-3.6-3.2-6.9
		c0-3.6,1.2-7.3,3.7-11.1c1.4-2.2,3.1-4.2,5-5.8c3-2.7,5.9-4,8.6-4c0.7,0,1.3,0.1,1.9,0.3c1.9,0.6,2.8,1.8,2.8,3.5
		c0,1.4-0.4,2.1-1.1,2.1c-0.3-0.1-0.5-0.6-0.5-1.4c0-1.1-0.6-1.7-1.9-1.7c-2.2,0-4.9,2-8.3,5.9s-5.4,7.9-6.1,11.9
		c-0.1,0.7-0.2,1.4-0.2,2.3s0.3,1.8,0.8,2.9s1.6,1.6,3.1,1.6s3.2-0.7,5-2c1.8-1.4,3.4-3.1,4.8-5.2l-0.3-0.6c-0.2-1-0.1-1.8,0.4-2.4
		C478.4,373.7,479,373.5,479.8,373.7L479.8,373.7z"/>
	<g class="st2">
		<path class="st1" d="M113,413.3c0,0.1-0.1,0.2-0.1,0.2c-0.1,0.1-0.1,0.1-0.2,0.1c-0.1,0-0.2,0.1-0.4,0.1c-0.1,0-0.3,0-0.6,0
			c-0.2,0-0.3,0-0.4,0c-0.1,0-0.2,0-0.3,0c-0.1,0-0.2,0-0.2-0.1c-0.1,0-0.1,0-0.2-0.1c0,0-0.1-0.1-0.1-0.1c0,0-0.1-0.1-0.1-0.2
			l-4.8-13.7c-0.1-0.2-0.1-0.3-0.1-0.4c0-0.1,0-0.2,0.1-0.2c0.1-0.1,0.2-0.1,0.3-0.1c0.2,0,0.4,0,0.6,0c0.2,0,0.4,0,0.5,0
			c0.1,0,0.2,0,0.3,0.1c0.1,0,0.1,0.1,0.2,0.1s0.1,0.1,0.1,0.2l4.2,12.5h0l4.1-12.4c0-0.1,0-0.2,0.1-0.2c0-0.1,0.1-0.1,0.2-0.1
			c0.1,0,0.2-0.1,0.3-0.1c0.1,0,0.3,0,0.6,0c0.2,0,0.4,0,0.6,0s0.2,0.1,0.3,0.1c0,0.1,0.1,0.1,0.1,0.2c0,0.1,0,0.2-0.1,0.4
			L113,413.3z"/>
		<path class="st1" d="M127.7,407.8c0,0.3-0.1,0.5-0.2,0.6s-0.3,0.2-0.5,0.2h-6.8c0,0.6,0.1,1.1,0.2,1.5s0.3,0.9,0.6,1.2
			c0.3,0.3,0.6,0.6,1,0.8c0.4,0.2,1,0.3,1.6,0.3c0.5,0,0.9,0,1.3-0.1c0.4-0.1,0.7-0.2,1-0.3c0.3-0.1,0.5-0.2,0.7-0.3
			c0.2-0.1,0.3-0.1,0.4-0.1c0.1,0,0.1,0,0.1,0c0,0,0.1,0.1,0.1,0.1c0,0.1,0,0.1,0.1,0.2c0,0.1,0,0.2,0,0.3c0,0.1,0,0.2,0,0.3
			s0,0.1,0,0.2c0,0.1,0,0.1-0.1,0.2c0,0-0.1,0.1-0.1,0.1c0,0-0.2,0.1-0.4,0.2c-0.2,0.1-0.5,0.2-0.8,0.3c-0.3,0.1-0.7,0.2-1.1,0.2
			c-0.4,0.1-0.9,0.1-1.4,0.1c-0.8,0-1.6-0.1-2.2-0.4s-1.2-0.6-1.6-1.1c-0.4-0.5-0.8-1-1-1.8c-0.2-0.7-0.3-1.5-0.3-2.4
			c0-0.9,0.1-1.7,0.3-2.4c0.2-0.7,0.6-1.3,1-1.8s1-0.9,1.6-1.1c0.6-0.3,1.3-0.4,2-0.4c0.8,0,1.5,0.1,2.1,0.4c0.6,0.3,1,0.6,1.4,1
			s0.6,1,0.8,1.5c0.2,0.6,0.3,1.2,0.3,1.9L127.7,407.8L127.7,407.8z M125.9,407.2c0-1-0.2-1.8-0.7-2.3c-0.5-0.6-1.2-0.8-2.1-0.8
			c-0.5,0-0.9,0.1-1.2,0.3c-0.3,0.2-0.7,0.4-0.9,0.7c-0.2,0.3-0.4,0.6-0.6,1c-0.1,0.4-0.2,0.8-0.2,1.2L125.9,407.2L125.9,407.2z"/>
		<path class="st1" d="M137.1,410.6c0,0.5-0.1,1-0.3,1.4c-0.2,0.4-0.5,0.8-0.8,1c-0.4,0.3-0.8,0.5-1.3,0.6c-0.5,0.1-1,0.2-1.6,0.2
			c-0.4,0-0.7,0-1-0.1c-0.3-0.1-0.6-0.1-0.9-0.2c-0.3-0.1-0.5-0.2-0.7-0.3c-0.2-0.1-0.3-0.2-0.4-0.3c-0.1-0.1-0.1-0.2-0.2-0.3
			c0-0.1-0.1-0.3-0.1-0.6c0-0.1,0-0.3,0-0.4c0-0.1,0-0.2,0.1-0.2c0-0.1,0.1-0.1,0.1-0.1c0,0,0.1,0,0.1,0c0.1,0,0.2,0.1,0.4,0.2
			c0.2,0.1,0.4,0.2,0.6,0.3c0.2,0.1,0.5,0.2,0.9,0.3c0.3,0.1,0.7,0.2,1.1,0.2c0.3,0,0.6,0,0.9-0.1c0.3-0.1,0.5-0.2,0.7-0.3
			c0.2-0.1,0.3-0.3,0.4-0.5c0.1-0.2,0.2-0.4,0.2-0.7c0-0.3-0.1-0.5-0.2-0.7s-0.3-0.4-0.6-0.5c-0.2-0.2-0.5-0.3-0.8-0.4
			c-0.3-0.1-0.6-0.2-0.9-0.4c-0.3-0.1-0.6-0.3-1-0.4c-0.3-0.2-0.6-0.4-0.8-0.6c-0.2-0.2-0.4-0.5-0.6-0.8c-0.1-0.3-0.2-0.7-0.2-1.2
			c0-0.4,0.1-0.8,0.2-1.2c0.2-0.4,0.4-0.7,0.7-1c0.3-0.3,0.7-0.5,1.2-0.7c0.5-0.2,1-0.2,1.6-0.2c0.3,0,0.6,0,0.8,0.1
			c0.3,0,0.5,0.1,0.7,0.2c0.2,0.1,0.4,0.1,0.6,0.2c0.2,0.1,0.3,0.1,0.4,0.2c0.1,0.1,0.1,0.1,0.2,0.2c0,0,0,0.1,0.1,0.2
			c0,0.1,0,0.1,0,0.2c0,0.1,0,0.2,0,0.3s0,0.2,0,0.3c0,0.1,0,0.2-0.1,0.2c0,0.1-0.1,0.1-0.1,0.1c0,0-0.1,0-0.1,0
			c-0.1,0-0.2,0-0.3-0.1c-0.1-0.1-0.3-0.2-0.5-0.3c-0.2-0.1-0.4-0.2-0.7-0.3c-0.3-0.1-0.6-0.1-1-0.1c-0.3,0-0.6,0-0.8,0.1
			c-0.2,0.1-0.4,0.2-0.6,0.3c-0.2,0.1-0.3,0.3-0.4,0.5c-0.1,0.2-0.1,0.4-0.1,0.6c0,0.3,0.1,0.6,0.2,0.8c0.2,0.2,0.3,0.4,0.6,0.5
			c0.2,0.2,0.5,0.3,0.8,0.4c0.3,0.1,0.6,0.2,1,0.4s0.6,0.3,1,0.4c0.3,0.2,0.6,0.4,0.8,0.6c0.2,0.2,0.4,0.5,0.6,0.8
			C137,409.7,137.1,410.1,137.1,410.6z"/>
		<path class="st1" d="M148.5,402.8c0.2,0,0.4,0.1,0.5,0.2c0.1,0.1,0.1,0.3,0.1,0.4v10c0,0.1,0,0.1,0,0.2c0,0-0.1,0.1-0.2,0.1
			c-0.1,0-0.2,0.1-0.3,0.1c-0.1,0-0.3,0-0.4,0c-0.2,0-0.3,0-0.5,0c-0.1,0-0.2,0-0.3-0.1c-0.1,0-0.1-0.1-0.2-0.1c0,0,0-0.1,0-0.2v-9
			h-5.3v5.7c0,0.7,0.1,1.2,0.3,1.6c0.2,0.4,0.6,0.5,1.1,0.5c0.2,0,0.3,0,0.5-0.1c0.1,0,0.3-0.1,0.4-0.1c0.1,0,0.2-0.1,0.3-0.1
			s0.1-0.1,0.2-0.1c0,0,0.1,0,0.1,0c0,0,0.1,0.1,0.1,0.1s0,0.1,0.1,0.2c0,0.1,0,0.2,0,0.3c0,0.2,0,0.4,0,0.5s-0.1,0.2-0.1,0.3
			c-0.1,0.1-0.2,0.1-0.3,0.2c-0.1,0.1-0.3,0.1-0.4,0.1c-0.2,0-0.3,0.1-0.5,0.1c-0.2,0-0.3,0-0.5,0c-0.5,0-1-0.1-1.4-0.2
			c-0.4-0.1-0.7-0.4-0.9-0.6c-0.2-0.3-0.4-0.7-0.5-1.1c-0.1-0.4-0.2-1-0.2-1.5v-6h-1.4c-0.1,0-0.2-0.1-0.3-0.2
			c-0.1-0.1-0.1-0.3-0.1-0.6c0-0.1,0-0.3,0-0.4c0-0.1,0-0.2,0.1-0.2c0-0.1,0.1-0.1,0.1-0.1c0,0,0.1,0,0.2,0h1.4v-2.4
			c0-0.1,0-0.1,0-0.1c0,0,0.1-0.1,0.1-0.1s0.2-0.1,0.3-0.1c0.1,0,0.3,0,0.5,0c0.2,0,0.3,0,0.5,0c0.1,0,0.2,0,0.3,0.1
			c0.1,0,0.1,0.1,0.1,0.1c0,0,0,0.1,0,0.1v2.4L148.5,402.8L148.5,402.8z M149.3,399.6c0,0.4-0.1,0.7-0.2,0.9
			c-0.2,0.2-0.5,0.2-0.9,0.2c-0.4,0-0.7-0.1-0.9-0.2c-0.2-0.2-0.2-0.4-0.2-0.9c0-0.4,0.1-0.7,0.2-0.9c0.2-0.2,0.5-0.2,0.9-0.2
			c0.4,0,0.7,0.1,0.9,0.2C149.2,398.9,149.3,399.2,149.3,399.6z"/>
		<path class="st1" d="M161.4,413.4c0,0.1,0,0.1,0,0.2c0,0-0.1,0.1-0.1,0.1c-0.1,0-0.2,0.1-0.3,0.1c-0.1,0-0.3,0-0.5,0
			c-0.2,0-0.3,0-0.5,0s-0.2,0-0.3-0.1c-0.1,0-0.1-0.1-0.1-0.1c0,0,0-0.1,0-0.2v-6c0-0.6,0-1.1-0.1-1.4c-0.1-0.4-0.2-0.7-0.4-0.9
			c-0.2-0.3-0.4-0.5-0.7-0.6c-0.3-0.1-0.6-0.2-1-0.2c-0.5,0-0.9,0.2-1.4,0.5c-0.5,0.3-1,0.8-1.5,1.5v7.2c0,0.1,0,0.1,0,0.2
			c0,0-0.1,0.1-0.1,0.1c-0.1,0-0.2,0.1-0.3,0.1c-0.1,0-0.3,0-0.5,0c-0.2,0-0.3,0-0.5,0c-0.1,0-0.2,0-0.3-0.1c-0.1,0-0.1-0.1-0.1-0.1
			c0,0,0-0.1,0-0.2v-10.3c0-0.1,0-0.1,0-0.2c0,0,0.1-0.1,0.1-0.1c0.1,0,0.2-0.1,0.3-0.1c0.1,0,0.2,0,0.4,0c0.2,0,0.3,0,0.4,0
			c0.1,0,0.2,0,0.3,0.1c0.1,0,0.1,0.1,0.1,0.1c0,0,0,0.1,0,0.2v1.4c0.6-0.7,1.2-1.1,1.7-1.4c0.6-0.3,1.2-0.4,1.7-0.4
			c0.7,0,1.3,0.1,1.7,0.3s0.8,0.5,1.1,0.9c0.3,0.4,0.5,0.8,0.6,1.4c0.1,0.5,0.2,1.1,0.2,1.9L161.4,413.4L161.4,413.4z"/>
		<path class="st1" d="M173.7,413.4c0,0.1,0,0.1,0,0.2c0,0-0.1,0.1-0.1,0.1c-0.1,0-0.1,0-0.3,0.1c-0.1,0-0.2,0-0.4,0
			c-0.2,0-0.3,0-0.4,0c-0.1,0-0.2,0-0.3-0.1c-0.1,0-0.1-0.1-0.1-0.1c0,0,0-0.1,0-0.2V412c-0.5,0.6-1.1,1-1.7,1.4
			c-0.6,0.3-1.2,0.5-1.9,0.5c-0.8,0-1.4-0.1-1.9-0.4c-0.5-0.3-1-0.7-1.3-1.2c-0.3-0.5-0.6-1.1-0.7-1.8c-0.1-0.7-0.2-1.4-0.2-2.1
			c0-0.9,0.1-1.7,0.3-2.4c0.2-0.7,0.5-1.3,0.8-1.8c0.4-0.5,0.8-0.9,1.4-1.2c0.6-0.3,1.2-0.4,1.9-0.4c0.6,0,1.2,0.1,1.7,0.4
			c0.5,0.3,1,0.7,1.5,1.2v-6c0-0.1,0-0.1,0-0.2c0,0,0.1-0.1,0.2-0.1c0.1,0,0.2,0,0.3-0.1c0.1,0,0.3,0,0.4,0c0.2,0,0.3,0,0.5,0
			c0.1,0,0.2,0,0.3,0.1c0.1,0,0.1,0.1,0.2,0.1c0,0,0.1,0.1,0.1,0.2L173.7,413.4L173.7,413.4z M171.8,406.1c-0.5-0.6-1-1.1-1.5-1.4
			c-0.5-0.3-1-0.5-1.5-0.5c-0.5,0-0.9,0.1-1.2,0.3c-0.3,0.2-0.6,0.5-0.8,0.9c-0.2,0.4-0.4,0.8-0.5,1.3c-0.1,0.5-0.1,1-0.1,1.4
			c0,0.5,0,1,0.1,1.5c0.1,0.5,0.2,0.9,0.4,1.3s0.5,0.7,0.8,0.9c0.3,0.2,0.7,0.3,1.2,0.3c0.2,0,0.5,0,0.7-0.1
			c0.2-0.1,0.5-0.2,0.7-0.3c0.2-0.2,0.5-0.4,0.8-0.6c0.3-0.3,0.6-0.6,0.8-0.9L171.8,406.1L171.8,406.1z"/>
		<path class="st1" d="M186.7,408.1c0,0.8-0.1,1.6-0.3,2.3c-0.2,0.7-0.6,1.3-1,1.8c-0.4,0.5-1,0.9-1.6,1.2c-0.7,0.3-1.4,0.4-2.3,0.4
			c-0.8,0-1.6-0.1-2.2-0.4c-0.6-0.2-1.2-0.6-1.6-1.1s-0.7-1.1-0.9-1.8s-0.3-1.5-0.3-2.3c0-0.8,0.1-1.6,0.3-2.3
			c0.2-0.7,0.5-1.3,1-1.8c0.4-0.5,1-0.9,1.6-1.2c0.7-0.3,1.4-0.4,2.3-0.4c0.8,0,1.6,0.1,2.2,0.4c0.6,0.2,1.2,0.6,1.6,1.1
			c0.4,0.5,0.7,1.1,0.9,1.8C186.6,406.5,186.7,407.2,186.7,408.1z M184.8,408.2c0-0.6-0.1-1.1-0.2-1.6c-0.1-0.5-0.3-0.9-0.5-1.3
			s-0.6-0.7-1-0.9c-0.4-0.2-0.9-0.3-1.5-0.3c-0.6,0-1,0.1-1.4,0.3c-0.4,0.2-0.7,0.5-1,0.8c-0.3,0.4-0.5,0.8-0.6,1.3
			c-0.1,0.5-0.2,1-0.2,1.6c0,0.6,0.1,1.1,0.2,1.6c0.1,0.5,0.3,0.9,0.5,1.3c0.2,0.4,0.6,0.7,1,0.9c0.4,0.2,0.9,0.3,1.5,0.3
			c0.6,0,1-0.1,1.4-0.3c0.4-0.2,0.7-0.5,1-0.8c0.3-0.4,0.5-0.8,0.6-1.3C184.7,409.4,184.8,408.8,184.8,408.2z"/>
		<path class="st1" d="M203.3,403c0,0,0,0.1,0,0.1c0,0,0,0.1,0,0.1c0,0,0,0.1,0,0.1c0,0,0,0.1,0,0.1l-3.5,9.8c0,0.1-0.1,0.2-0.1,0.2
			c0,0.1-0.1,0.1-0.2,0.1c-0.1,0-0.2,0.1-0.4,0.1c-0.2,0-0.3,0-0.6,0c-0.2,0-0.4,0-0.6,0c-0.2,0-0.3,0-0.4-0.1
			c-0.1,0-0.2-0.1-0.2-0.1c-0.1-0.1-0.1-0.1-0.1-0.2l-3.5-9.8c0-0.1-0.1-0.2-0.1-0.2c0-0.1,0-0.1,0-0.2c0,0,0-0.1,0-0.1
			c0-0.1,0-0.1,0-0.2c0,0,0.1-0.1,0.2-0.1c0.1,0,0.2,0,0.3-0.1c0.1,0,0.3,0,0.4,0c0.2,0,0.4,0,0.5,0c0.1,0,0.2,0,0.3,0.1
			c0.1,0,0.1,0.1,0.2,0.1c0,0,0.1,0.1,0.1,0.2l2.9,8.5l0,0.1l0-0.1l2.9-8.5c0-0.1,0-0.1,0.1-0.2c0,0,0.1-0.1,0.2-0.1
			c0.1,0,0.2-0.1,0.3-0.1c0.1,0,0.3,0,0.5,0c0.2,0,0.3,0,0.4,0c0.1,0,0.2,0,0.3,0.1c0.1,0,0.1,0.1,0.1,0.1
			C203.2,402.9,203.3,403,203.3,403z"/>
		<path class="st1" d="M214.7,408.1c0,0.8-0.1,1.6-0.3,2.3c-0.2,0.7-0.6,1.3-1,1.8c-0.4,0.5-1,0.9-1.6,1.2c-0.7,0.3-1.4,0.4-2.3,0.4
			c-0.8,0-1.6-0.1-2.2-0.4c-0.6-0.2-1.2-0.6-1.6-1.1s-0.7-1.1-0.9-1.8c-0.2-0.7-0.3-1.5-0.3-2.3c0-0.8,0.1-1.6,0.3-2.3
			c0.2-0.7,0.5-1.3,1-1.8c0.4-0.5,1-0.9,1.6-1.2c0.7-0.3,1.4-0.4,2.3-0.4c0.8,0,1.6,0.1,2.2,0.4c0.6,0.2,1.2,0.6,1.6,1.1
			c0.4,0.5,0.7,1.1,0.9,1.8C214.6,406.5,214.7,407.2,214.7,408.1z M212.8,408.2c0-0.6-0.1-1.1-0.2-1.6c-0.1-0.5-0.3-0.9-0.5-1.3
			s-0.6-0.7-1-0.9c-0.4-0.2-0.9-0.3-1.5-0.3c-0.6,0-1,0.1-1.4,0.3c-0.4,0.2-0.7,0.5-1,0.8c-0.3,0.4-0.5,0.8-0.6,1.3
			c-0.1,0.5-0.2,1-0.2,1.6c0,0.6,0.1,1.1,0.2,1.6c0.1,0.5,0.3,0.9,0.5,1.3c0.2,0.4,0.6,0.7,1,0.9c0.4,0.2,0.9,0.3,1.5,0.3
			c0.6,0,1-0.1,1.4-0.3c0.4-0.2,0.7-0.5,1-0.8c0.3-0.4,0.5-0.8,0.6-1.3C212.7,409.4,212.8,408.8,212.8,408.2z"/>
		<path class="st1" d="M224.9,411.8c0,0.1,0,0.2,0,0.3c0,0.1,0,0.2,0,0.2c0,0.1,0,0.1-0.1,0.2c0,0-0.1,0.1-0.2,0.2
			c-0.1,0.1-0.3,0.2-0.5,0.4c-0.2,0.1-0.5,0.3-0.8,0.4s-0.6,0.2-0.9,0.3c-0.3,0.1-0.7,0.1-1,0.1c-0.7,0-1.4-0.1-2-0.4
			c-0.6-0.2-1.1-0.6-1.4-1.1c-0.4-0.5-0.7-1-0.9-1.7c-0.2-0.7-0.3-1.5-0.3-2.4c0-1,0.1-1.9,0.4-2.6c0.2-0.7,0.6-1.3,1-1.8
			c0.4-0.5,0.9-0.8,1.5-1c0.6-0.2,1.2-0.3,1.9-0.3c0.3,0,0.6,0,1,0.1c0.3,0.1,0.6,0.1,0.9,0.2c0.3,0.1,0.5,0.2,0.7,0.3
			c0.2,0.1,0.3,0.2,0.4,0.3c0.1,0.1,0.2,0.2,0.2,0.2c0,0.1,0.1,0.1,0.1,0.2c0,0.1,0,0.2,0,0.2c0,0.1,0,0.2,0,0.3
			c0,0.3,0,0.5-0.1,0.6c-0.1,0.1-0.2,0.2-0.3,0.2c-0.1,0-0.2-0.1-0.4-0.2s-0.3-0.3-0.6-0.4c-0.2-0.2-0.5-0.3-0.8-0.4
			c-0.3-0.1-0.7-0.2-1.1-0.2c-0.9,0-1.6,0.3-2.1,1c-0.5,0.7-0.7,1.7-0.7,3c0,0.7,0.1,1.2,0.2,1.7c0.1,0.5,0.3,0.9,0.6,1.3
			c0.2,0.3,0.5,0.6,0.9,0.8c0.4,0.2,0.8,0.2,1.2,0.2c0.4,0,0.8-0.1,1.1-0.2c0.3-0.1,0.6-0.3,0.9-0.4c0.2-0.2,0.4-0.3,0.6-0.4
			c0.2-0.1,0.3-0.2,0.4-0.2c0.1,0,0.1,0,0.1,0c0,0,0.1,0.1,0.1,0.2c0,0.1,0,0.2,0.1,0.3C224.9,411.5,224.9,411.6,224.9,411.8z"/>
		<path class="st1" d="M236.2,407.8c0,0.3-0.1,0.5-0.2,0.6s-0.3,0.2-0.5,0.2h-6.8c0,0.6,0.1,1.1,0.2,1.5s0.3,0.9,0.6,1.2
			c0.3,0.3,0.6,0.6,1,0.8c0.4,0.2,1,0.3,1.6,0.3c0.5,0,0.9,0,1.3-0.1c0.4-0.1,0.7-0.2,1-0.3c0.3-0.1,0.5-0.2,0.7-0.3
			c0.2-0.1,0.3-0.1,0.4-0.1c0.1,0,0.1,0,0.1,0c0,0,0.1,0.1,0.1,0.1c0,0.1,0,0.1,0.1,0.2c0,0.1,0,0.2,0,0.3c0,0.1,0,0.2,0,0.3
			c0,0.1,0,0.1,0,0.2c0,0.1,0,0.1-0.1,0.2c0,0-0.1,0.1-0.1,0.1c0,0-0.2,0.1-0.4,0.2c-0.2,0.1-0.5,0.2-0.8,0.3
			c-0.3,0.1-0.7,0.2-1.1,0.2c-0.4,0.1-0.9,0.1-1.4,0.1c-0.8,0-1.6-0.1-2.2-0.4s-1.2-0.6-1.6-1.1c-0.4-0.5-0.8-1-1-1.8
			c-0.2-0.7-0.3-1.5-0.3-2.4c0-0.9,0.1-1.7,0.3-2.4c0.2-0.7,0.6-1.3,1-1.8c0.4-0.5,1-0.9,1.6-1.1c0.6-0.3,1.3-0.4,2-0.4
			c0.8,0,1.5,0.1,2.1,0.4s1,0.6,1.4,1s0.6,1,0.8,1.5c0.2,0.6,0.3,1.2,0.3,1.9L236.2,407.8L236.2,407.8z M230.1,400.8
			c0,0.1-0.1,0.1-0.1,0.2c0,0-0.1,0.1-0.2,0.1c-0.1,0-0.1,0-0.2,0.1c-0.1,0-0.2,0-0.4,0c-0.2,0-0.4,0-0.5,0c-0.1,0-0.2-0.1-0.2-0.1
			c0,0,0-0.1,0-0.2c0-0.1,0.1-0.2,0.2-0.3l1.9-2.6c0-0.1,0.1-0.1,0.1-0.1c0.1,0,0.1-0.1,0.2-0.1c0.1,0,0.2,0,0.3-0.1
			c0.1,0,0.3,0,0.4,0c0.2,0,0.3,0,0.4,0c0.1,0,0.2,0,0.3,0.1c0.1,0,0.1,0.1,0.2,0.1c0,0,0.1,0.1,0.1,0.1l1.9,2.6
			c0.1,0.1,0.1,0.2,0.2,0.3c0,0.1,0,0.1,0,0.2c0,0-0.1,0.1-0.2,0.1c-0.1,0-0.3,0-0.5,0c-0.2,0-0.3,0-0.4,0c-0.1,0-0.2,0-0.2-0.1
			c-0.1,0-0.1-0.1-0.1-0.1c0,0-0.1-0.1-0.1-0.2l-1.5-2.1L230.1,400.8z M234.3,407.2c0-1-0.2-1.8-0.7-2.3c-0.5-0.6-1.2-0.8-2.1-0.8
			c-0.5,0-0.9,0.1-1.2,0.3c-0.3,0.2-0.7,0.4-0.9,0.7c-0.2,0.3-0.4,0.6-0.6,1c-0.1,0.4-0.2,0.8-0.2,1.2L234.3,407.2L234.3,407.2z"/>
		<path class="st1" d="M253.2,407.8c0,0.3-0.1,0.5-0.2,0.6s-0.3,0.2-0.5,0.2h-6.8c0,0.6,0.1,1.1,0.2,1.5s0.3,0.9,0.6,1.2
			c0.3,0.3,0.6,0.6,1,0.8c0.4,0.2,1,0.3,1.6,0.3c0.5,0,0.9,0,1.3-0.1c0.4-0.1,0.7-0.2,1-0.3c0.3-0.1,0.5-0.2,0.7-0.3
			c0.2-0.1,0.3-0.1,0.4-0.1c0.1,0,0.1,0,0.1,0c0,0,0.1,0.1,0.1,0.1c0,0.1,0,0.1,0.1,0.2c0,0.1,0,0.2,0,0.3c0,0.1,0,0.2,0,0.3
			c0,0.1,0,0.1,0,0.2c0,0.1,0,0.1-0.1,0.2c0,0-0.1,0.1-0.1,0.1c0,0-0.2,0.1-0.4,0.2c-0.2,0.1-0.5,0.2-0.8,0.3
			c-0.3,0.1-0.7,0.2-1.1,0.2c-0.4,0.1-0.9,0.1-1.4,0.1c-0.8,0-1.6-0.1-2.2-0.4s-1.2-0.6-1.6-1.1c-0.4-0.5-0.8-1-1-1.8
			c-0.2-0.7-0.3-1.5-0.3-2.4c0-0.9,0.1-1.7,0.3-2.4c0.2-0.7,0.6-1.3,1-1.8c0.4-0.5,1-0.9,1.6-1.1c0.6-0.3,1.3-0.4,2-0.4
			c0.8,0,1.5,0.1,2.1,0.4c0.6,0.3,1,0.6,1.4,1s0.6,1,0.8,1.5c0.2,0.6,0.3,1.2,0.3,1.9L253.2,407.8L253.2,407.8z M251.3,407.2
			c0-1-0.2-1.8-0.7-2.3c-0.5-0.6-1.2-0.8-2.1-0.8c-0.5,0-0.9,0.1-1.2,0.3s-0.7,0.4-0.9,0.7c-0.2,0.3-0.4,0.6-0.6,1
			c-0.1,0.4-0.2,0.8-0.2,1.2L251.3,407.2L251.3,407.2z"/>
		<path class="st1" d="M271.3,413.4c0,0.1,0,0.1,0,0.2c0,0-0.1,0.1-0.1,0.1c-0.1,0-0.2,0.1-0.3,0.1c-0.1,0-0.3,0-0.5,0
			c-0.2,0-0.3,0-0.5,0c-0.1,0-0.2,0-0.3-0.1c-0.1,0-0.1-0.1-0.2-0.1c0,0,0-0.1,0-0.2v-6.3c0-0.4,0-0.8-0.1-1.2
			c-0.1-0.4-0.2-0.7-0.4-0.9c-0.2-0.3-0.4-0.5-0.6-0.6c-0.3-0.1-0.6-0.2-0.9-0.2c-0.4,0-0.9,0.2-1.3,0.5c-0.4,0.3-0.9,0.8-1.4,1.5
			v7.2c0,0.1,0,0.1,0,0.2c0,0-0.1,0.1-0.2,0.1c-0.1,0-0.2,0.1-0.3,0.1c-0.1,0-0.3,0-0.5,0c-0.2,0-0.3,0-0.4,0c-0.1,0-0.2,0-0.3-0.1
			c-0.1,0-0.1-0.1-0.1-0.1c0,0,0-0.1,0-0.2v-6.3c0-0.4,0-0.8-0.1-1.2c-0.1-0.4-0.2-0.7-0.4-0.9c-0.2-0.3-0.4-0.5-0.6-0.6
			c-0.3-0.1-0.6-0.2-0.9-0.2c-0.4,0-0.9,0.2-1.3,0.5c-0.4,0.3-0.9,0.8-1.4,1.5v7.2c0,0.1,0,0.1,0,0.2c0,0-0.1,0.1-0.1,0.1
			c-0.1,0-0.2,0.1-0.3,0.1c-0.1,0-0.3,0-0.5,0c-0.2,0-0.3,0-0.5,0s-0.2,0-0.3-0.1c-0.1,0-0.1-0.1-0.1-0.1c0,0,0-0.1,0-0.2v-10.3
			c0-0.1,0-0.1,0-0.2c0,0,0.1-0.1,0.1-0.1c0.1,0,0.2-0.1,0.3-0.1c0.1,0,0.2,0,0.4,0c0.2,0,0.3,0,0.4,0c0.1,0,0.2,0,0.3,0.1
			c0.1,0,0.1,0.1,0.1,0.1c0,0,0,0.1,0,0.2v1.4c0.6-0.7,1.1-1.1,1.7-1.4c0.5-0.3,1.1-0.4,1.7-0.4c0.4,0,0.8,0,1.1,0.1
			c0.3,0.1,0.6,0.2,0.9,0.4c0.3,0.2,0.5,0.4,0.7,0.6c0.2,0.2,0.3,0.5,0.5,0.8c0.3-0.4,0.7-0.7,1-0.9c0.3-0.3,0.6-0.5,0.9-0.6
			c0.3-0.2,0.6-0.3,0.8-0.3c0.3-0.1,0.5-0.1,0.8-0.1c0.7,0,1.2,0.1,1.7,0.3c0.4,0.2,0.8,0.5,1.1,0.9c0.3,0.4,0.5,0.8,0.6,1.4
			c0.1,0.5,0.2,1.1,0.2,1.7L271.3,413.4L271.3,413.4z"/>
		<path class="st1" d="M288.6,403.5c0,0.3,0,0.5-0.1,0.6c-0.1,0.1-0.2,0.2-0.3,0.2h-1.5c0.3,0.3,0.4,0.6,0.6,0.9s0.2,0.7,0.2,1
			c0,0.6-0.1,1.1-0.3,1.6c-0.2,0.5-0.5,0.8-0.8,1.2c-0.4,0.3-0.8,0.6-1.3,0.7c-0.5,0.2-1,0.2-1.6,0.2c-0.4,0-0.8-0.1-1.2-0.2
			s-0.7-0.2-0.9-0.4c-0.1,0.1-0.2,0.3-0.3,0.5s-0.1,0.4-0.1,0.6c0,0.3,0.1,0.5,0.4,0.7s0.6,0.3,1,0.3l2.7,0.1c0.5,0,1,0.1,1.4,0.2
			c0.4,0.1,0.8,0.3,1.1,0.5c0.3,0.2,0.6,0.5,0.7,0.9s0.3,0.7,0.3,1.2c0,0.5-0.1,0.9-0.3,1.3c-0.2,0.4-0.5,0.8-0.9,1.1
			c-0.4,0.3-0.9,0.6-1.6,0.8c-0.6,0.2-1.4,0.3-2.2,0.3c-0.8,0-1.5-0.1-2.1-0.2c-0.6-0.1-1.1-0.3-1.4-0.6c-0.4-0.2-0.6-0.5-0.8-0.9
			c-0.2-0.3-0.2-0.7-0.2-1.1c0-0.2,0-0.5,0.1-0.7c0.1-0.2,0.2-0.5,0.3-0.7c0.1-0.2,0.3-0.4,0.5-0.6c0.2-0.2,0.4-0.4,0.6-0.6
			c-0.4-0.2-0.7-0.4-0.8-0.7c-0.2-0.3-0.3-0.6-0.3-0.9c0-0.5,0.1-0.9,0.3-1.2c0.2-0.4,0.4-0.7,0.7-1c-0.2-0.3-0.4-0.6-0.6-1
			c-0.1-0.4-0.2-0.8-0.2-1.3c0-0.6,0.1-1.1,0.3-1.6c0.2-0.5,0.5-0.9,0.8-1.2c0.3-0.3,0.8-0.6,1.3-0.7c0.5-0.2,1-0.3,1.6-0.3
			c0.3,0,0.6,0,0.9,0.1c0.3,0,0.5,0.1,0.8,0.1h3.1c0.1,0,0.2,0.1,0.3,0.2C288.6,403.1,288.6,403.3,288.6,403.5z M286.6,414.4
			c0-0.4-0.2-0.8-0.5-1c-0.4-0.2-0.9-0.4-1.5-0.4l-2.7-0.1c-0.2,0.2-0.4,0.4-0.6,0.5c-0.2,0.2-0.3,0.3-0.4,0.5
			c-0.1,0.2-0.2,0.3-0.2,0.5c0,0.2-0.1,0.3-0.1,0.5c0,0.5,0.3,0.9,0.8,1.1c0.5,0.3,1.2,0.4,2.1,0.4c0.6,0,1-0.1,1.4-0.2
			c0.4-0.1,0.7-0.3,0.9-0.4s0.4-0.4,0.5-0.6C286.6,414.9,286.6,414.7,286.6,414.4z M285.7,406.3c0-0.7-0.2-1.2-0.6-1.6
			s-0.9-0.6-1.6-0.6c-0.4,0-0.7,0.1-1,0.2c-0.3,0.1-0.5,0.3-0.7,0.5c-0.2,0.2-0.3,0.5-0.4,0.7c-0.1,0.3-0.1,0.6-0.1,0.9
			c0,0.7,0.2,1.2,0.6,1.6c0.4,0.4,0.9,0.6,1.6,0.6c0.4,0,0.7-0.1,1-0.2c0.3-0.1,0.5-0.3,0.7-0.5c0.2-0.2,0.3-0.4,0.4-0.7
			C285.6,406.8,285.7,406.5,285.7,406.3z"/>
		<path class="st1" d="M297.1,403.7c0,0.2,0,0.3,0,0.4c0,0.1,0,0.2,0,0.3c0,0.1-0.1,0.1-0.1,0.1c0,0-0.1,0.1-0.1,0.1s-0.1,0-0.2-0.1
			c-0.1,0-0.2-0.1-0.3-0.1c-0.1,0-0.2-0.1-0.4-0.1c-0.1,0-0.3,0-0.4,0c-0.2,0-0.4,0-0.6,0.1c-0.2,0.1-0.4,0.2-0.6,0.4
			c-0.2,0.2-0.4,0.4-0.6,0.7c-0.2,0.3-0.5,0.6-0.7,1.1v6.8c0,0.1,0,0.1,0,0.2c0,0-0.1,0.1-0.1,0.1c-0.1,0-0.2,0.1-0.3,0.1
			c-0.1,0-0.3,0-0.5,0c-0.2,0-0.3,0-0.5,0c-0.1,0-0.2,0-0.3-0.1s-0.1-0.1-0.1-0.1c0,0,0-0.1,0-0.2v-10.3c0-0.1,0-0.1,0-0.2
			c0,0,0.1-0.1,0.1-0.1c0.1,0,0.2-0.1,0.3-0.1c0.1,0,0.2,0,0.4,0c0.2,0,0.3,0,0.4,0c0.1,0,0.2,0,0.3,0.1c0.1,0,0.1,0.1,0.1,0.1
			c0,0,0,0.1,0,0.2v1.5c0.3-0.4,0.6-0.7,0.8-1c0.2-0.3,0.5-0.5,0.7-0.6c0.2-0.1,0.4-0.2,0.7-0.3c0.2-0.1,0.4-0.1,0.7-0.1
			c0.1,0,0.2,0,0.3,0c0.1,0,0.3,0,0.4,0.1c0.1,0,0.3,0.1,0.4,0.1c0.1,0,0.2,0.1,0.2,0.1c0,0,0.1,0.1,0.1,0.1c0,0,0,0.1,0,0.1
			c0,0.1,0,0.1,0,0.2C297.1,403.4,297.1,403.6,297.1,403.7z"/>
		<path class="st1" d="M306.5,413.4c0,0.1,0,0.2-0.1,0.2c-0.1,0-0.1,0.1-0.2,0.1c-0.1,0-0.3,0-0.5,0c-0.2,0-0.4,0-0.5,0
			c-0.1,0-0.2-0.1-0.3-0.1c-0.1,0-0.1-0.1-0.1-0.2v-1c-0.4,0.5-1,0.9-1.5,1.1c-0.6,0.3-1.1,0.4-1.8,0.4c-0.5,0-1-0.1-1.5-0.2
			c-0.4-0.1-0.8-0.3-1.1-0.6c-0.3-0.3-0.6-0.6-0.7-1c-0.2-0.4-0.3-0.8-0.3-1.3c0-0.6,0.1-1.1,0.4-1.5s0.6-0.8,1-1.1
			c0.4-0.3,1-0.5,1.6-0.6c0.6-0.1,1.4-0.2,2.2-0.2h1.4v-0.8c0-0.4,0-0.7-0.1-1.1c-0.1-0.3-0.2-0.6-0.4-0.8c-0.2-0.2-0.4-0.4-0.7-0.5
			c-0.3-0.1-0.7-0.2-1.1-0.2c-0.5,0-0.9,0.1-1.3,0.2c-0.4,0.1-0.7,0.2-1,0.4c-0.3,0.1-0.5,0.3-0.7,0.4s-0.3,0.2-0.4,0.2
			c-0.1,0-0.1,0-0.2,0c0,0-0.1-0.1-0.1-0.1s-0.1-0.1-0.1-0.2c0-0.1,0-0.2,0-0.3c0-0.2,0-0.3,0-0.4c0-0.1,0.1-0.2,0.2-0.3
			s0.3-0.2,0.5-0.3c0.3-0.1,0.5-0.3,0.9-0.4s0.7-0.2,1.1-0.3s0.8-0.1,1.2-0.1c0.7,0,1.4,0.1,1.9,0.2c0.5,0.2,0.9,0.4,1.3,0.7
			c0.3,0.3,0.6,0.7,0.7,1.2c0.1,0.5,0.2,1,0.2,1.7L306.5,413.4L306.5,413.4z M304.6,408.7H303c-0.5,0-1,0-1.3,0.1
			c-0.4,0.1-0.7,0.2-1,0.4c-0.2,0.2-0.4,0.4-0.6,0.6c-0.1,0.2-0.2,0.5-0.2,0.8c0,0.5,0.2,1,0.5,1.3c0.3,0.3,0.8,0.5,1.4,0.5
			c0.5,0,1-0.1,1.4-0.4s0.9-0.6,1.3-1.2L304.6,408.7L304.6,408.7z"/>
		<path class="st1" d="M318.8,413.4c0,0.1,0,0.1,0,0.2c0,0-0.1,0.1-0.1,0.1c-0.1,0-0.2,0.1-0.3,0.1c-0.1,0-0.3,0-0.5,0
			c-0.2,0-0.3,0-0.5,0c-0.1,0-0.2,0-0.3-0.1c-0.1,0-0.1-0.1-0.1-0.1c0,0,0-0.1,0-0.2v-6c0-0.6,0-1.1-0.1-1.4
			c-0.1-0.4-0.2-0.7-0.4-0.9c-0.2-0.3-0.4-0.5-0.7-0.6c-0.3-0.1-0.6-0.2-1-0.2c-0.5,0-0.9,0.2-1.4,0.5c-0.5,0.3-1,0.8-1.5,1.5v7.2
			c0,0.1,0,0.1,0,0.2c0,0-0.1,0.1-0.1,0.1c-0.1,0-0.2,0.1-0.3,0.1c-0.1,0-0.3,0-0.5,0c-0.2,0-0.3,0-0.5,0c-0.1,0-0.2,0-0.3-0.1
			c-0.1,0-0.1-0.1-0.1-0.1c0,0,0-0.1,0-0.2v-10.3c0-0.1,0-0.1,0-0.2c0,0,0.1-0.1,0.1-0.1c0.1,0,0.2-0.1,0.3-0.1c0.1,0,0.2,0,0.4,0
			c0.2,0,0.3,0,0.4,0c0.1,0,0.2,0,0.3,0.1c0.1,0,0.1,0.1,0.1,0.1c0,0,0,0.1,0,0.2v1.4c0.6-0.7,1.2-1.1,1.7-1.4
			c0.6-0.3,1.2-0.4,1.7-0.4c0.7,0,1.3,0.1,1.7,0.3s0.8,0.5,1.1,0.9c0.3,0.4,0.5,0.8,0.6,1.4s0.2,1.1,0.2,1.9L318.8,413.4
			L318.8,413.4z"/>
		<path class="st1" d="M331.1,413.4c0,0.1,0,0.1,0,0.2c0,0-0.1,0.1-0.1,0.1c-0.1,0-0.1,0-0.3,0.1c-0.1,0-0.2,0-0.4,0
			c-0.2,0-0.3,0-0.4,0c-0.1,0-0.2,0-0.3-0.1c-0.1,0-0.1-0.1-0.1-0.1c0,0,0-0.1,0-0.2V412c-0.5,0.6-1.1,1-1.7,1.4
			c-0.6,0.3-1.2,0.5-1.9,0.5c-0.8,0-1.4-0.1-1.9-0.4c-0.5-0.3-1-0.7-1.3-1.2c-0.3-0.5-0.6-1.1-0.7-1.8c-0.1-0.7-0.2-1.4-0.2-2.1
			c0-0.9,0.1-1.7,0.3-2.4c0.2-0.7,0.5-1.3,0.8-1.8c0.4-0.5,0.8-0.9,1.4-1.2c0.6-0.3,1.2-0.4,1.9-0.4c0.6,0,1.2,0.1,1.7,0.4
			c0.5,0.3,1,0.7,1.5,1.2v-6c0-0.1,0-0.1,0-0.2c0,0,0.1-0.1,0.2-0.1c0.1,0,0.2,0,0.3-0.1c0.1,0,0.3,0,0.4,0c0.2,0,0.3,0,0.5,0
			c0.1,0,0.2,0,0.3,0.1c0.1,0,0.1,0.1,0.2,0.1c0,0,0.1,0.1,0.1,0.2L331.1,413.4L331.1,413.4z M329.2,406.1c-0.5-0.6-1-1.1-1.5-1.4
			c-0.5-0.3-1-0.5-1.5-0.5c-0.5,0-0.9,0.1-1.2,0.3c-0.3,0.2-0.6,0.5-0.8,0.9c-0.2,0.4-0.4,0.8-0.5,1.3c-0.1,0.5-0.1,1-0.1,1.4
			c0,0.5,0,1,0.1,1.5c0.1,0.5,0.2,0.9,0.4,1.3c0.2,0.4,0.5,0.7,0.8,0.9s0.7,0.3,1.2,0.3c0.2,0,0.5,0,0.7-0.1s0.5-0.2,0.7-0.3
			c0.2-0.2,0.5-0.4,0.8-0.6c0.3-0.3,0.6-0.6,0.8-0.9L329.2,406.1L329.2,406.1z"/>
		<path class="st1" d="M343.3,407.8c0,0.3-0.1,0.5-0.2,0.6s-0.3,0.2-0.5,0.2h-6.8c0,0.6,0.1,1.1,0.2,1.5c0.1,0.5,0.3,0.9,0.6,1.2
			c0.3,0.3,0.6,0.6,1,0.8c0.4,0.2,1,0.3,1.6,0.3c0.5,0,0.9,0,1.3-0.1s0.7-0.2,1-0.3c0.3-0.1,0.5-0.2,0.7-0.3
			c0.2-0.1,0.3-0.1,0.4-0.1c0.1,0,0.1,0,0.1,0c0,0,0.1,0.1,0.1,0.1c0,0.1,0,0.1,0.1,0.2c0,0.1,0,0.2,0,0.3c0,0.1,0,0.2,0,0.3
			c0,0.1,0,0.1,0,0.2s0,0.1-0.1,0.2c0,0-0.1,0.1-0.1,0.1c0,0-0.2,0.1-0.4,0.2c-0.2,0.1-0.5,0.2-0.8,0.3c-0.3,0.1-0.7,0.2-1.1,0.2
			c-0.4,0.1-0.9,0.1-1.4,0.1c-0.8,0-1.6-0.1-2.2-0.4s-1.2-0.6-1.6-1.1c-0.4-0.5-0.8-1-1-1.8c-0.2-0.7-0.3-1.5-0.3-2.4
			c0-0.9,0.1-1.7,0.3-2.4c0.2-0.7,0.6-1.3,1-1.8c0.4-0.5,1-0.9,1.6-1.1c0.6-0.3,1.3-0.4,2-0.4c0.8,0,1.5,0.1,2.1,0.4
			c0.6,0.3,1,0.6,1.4,1c0.4,0.4,0.6,1,0.8,1.5c0.2,0.6,0.3,1.2,0.3,1.9L343.3,407.8L343.3,407.8z M341.5,407.2c0-1-0.2-1.8-0.7-2.3
			c-0.5-0.6-1.2-0.8-2.1-0.8c-0.5,0-0.9,0.1-1.2,0.3s-0.7,0.4-0.9,0.7c-0.2,0.3-0.4,0.6-0.6,1c-0.1,0.4-0.2,0.8-0.2,1.2L341.5,407.2
			L341.5,407.2z"/>
		<path class="st1" d="M360.3,407.8c0,0.3-0.1,0.5-0.2,0.6s-0.3,0.2-0.5,0.2h-6.8c0,0.6,0.1,1.1,0.2,1.5c0.1,0.5,0.3,0.9,0.6,1.2
			c0.3,0.3,0.6,0.6,1,0.8c0.4,0.2,1,0.3,1.6,0.3c0.5,0,0.9,0,1.3-0.1s0.7-0.2,1-0.3c0.3-0.1,0.5-0.2,0.7-0.3
			c0.2-0.1,0.3-0.1,0.4-0.1c0.1,0,0.1,0,0.1,0c0,0,0.1,0.1,0.1,0.1c0,0.1,0,0.1,0.1,0.2c0,0.1,0,0.2,0,0.3c0,0.1,0,0.2,0,0.3
			s0,0.1,0,0.2c0,0.1,0,0.1-0.1,0.2c0,0-0.1,0.1-0.1,0.1c0,0-0.2,0.1-0.4,0.2c-0.2,0.1-0.5,0.2-0.8,0.3c-0.3,0.1-0.7,0.2-1.1,0.2
			c-0.4,0.1-0.9,0.1-1.4,0.1c-0.8,0-1.6-0.1-2.2-0.4s-1.2-0.6-1.6-1.1c-0.4-0.5-0.8-1-1-1.8c-0.2-0.7-0.3-1.5-0.3-2.4
			c0-0.9,0.1-1.7,0.3-2.4c0.2-0.7,0.6-1.3,1-1.8c0.4-0.5,1-0.9,1.6-1.1c0.6-0.3,1.3-0.4,2-0.4c0.8,0,1.5,0.1,2.1,0.4s1,0.6,1.4,1
			s0.6,1,0.8,1.5c0.2,0.6,0.3,1.2,0.3,1.9L360.3,407.8L360.3,407.8z M358.4,407.2c0-1-0.2-1.8-0.7-2.3c-0.5-0.6-1.2-0.8-2.1-0.8
			c-0.5,0-0.9,0.1-1.2,0.3s-0.7,0.4-0.9,0.7c-0.2,0.3-0.4,0.6-0.6,1c-0.1,0.4-0.2,0.8-0.2,1.2L358.4,407.2L358.4,407.2z"/>
		<path class="st1" d="M369.6,410.6c0,0.5-0.1,1-0.3,1.4c-0.2,0.4-0.5,0.8-0.8,1c-0.4,0.3-0.8,0.5-1.3,0.6c-0.5,0.1-1,0.2-1.6,0.2
			c-0.4,0-0.7,0-1-0.1c-0.3-0.1-0.6-0.1-0.9-0.2c-0.3-0.1-0.5-0.2-0.7-0.3c-0.2-0.1-0.3-0.2-0.4-0.3c-0.1-0.1-0.1-0.2-0.2-0.3
			c0-0.1-0.1-0.3-0.1-0.6c0-0.1,0-0.3,0-0.4c0-0.1,0-0.2,0.1-0.2c0-0.1,0.1-0.1,0.1-0.1c0,0,0.1,0,0.1,0c0.1,0,0.2,0.1,0.4,0.2
			c0.2,0.1,0.4,0.2,0.6,0.3c0.2,0.1,0.5,0.2,0.9,0.3c0.3,0.1,0.7,0.2,1.1,0.2c0.3,0,0.6,0,0.9-0.1c0.3-0.1,0.5-0.2,0.7-0.3
			c0.2-0.1,0.3-0.3,0.4-0.5s0.2-0.4,0.2-0.7c0-0.3-0.1-0.5-0.2-0.7s-0.3-0.4-0.6-0.5c-0.2-0.2-0.5-0.3-0.8-0.4
			c-0.3-0.1-0.6-0.2-0.9-0.4c-0.3-0.1-0.6-0.3-1-0.4c-0.3-0.2-0.6-0.4-0.8-0.6c-0.2-0.2-0.4-0.5-0.6-0.8c-0.1-0.3-0.2-0.7-0.2-1.2
			c0-0.4,0.1-0.8,0.2-1.2c0.2-0.4,0.4-0.7,0.7-1c0.3-0.3,0.7-0.5,1.2-0.7c0.5-0.2,1-0.2,1.6-0.2c0.3,0,0.6,0,0.8,0.1
			c0.3,0,0.5,0.1,0.7,0.2c0.2,0.1,0.4,0.1,0.6,0.2c0.2,0.1,0.3,0.1,0.4,0.2c0.1,0.1,0.1,0.1,0.2,0.2c0,0,0,0.1,0.1,0.2
			c0,0.1,0,0.1,0,0.2c0,0.1,0,0.2,0,0.3s0,0.2,0,0.3c0,0.1,0,0.2-0.1,0.2c0,0.1-0.1,0.1-0.1,0.1c0,0-0.1,0-0.1,0
			c-0.1,0-0.2,0-0.3-0.1c-0.1-0.1-0.3-0.2-0.5-0.3c-0.2-0.1-0.4-0.2-0.7-0.3c-0.3-0.1-0.6-0.1-1-0.1c-0.3,0-0.6,0-0.8,0.1
			c-0.2,0.1-0.4,0.2-0.6,0.3c-0.2,0.1-0.3,0.3-0.4,0.5c-0.1,0.2-0.1,0.4-0.1,0.6c0,0.3,0.1,0.6,0.2,0.8s0.3,0.4,0.6,0.5
			c0.2,0.2,0.5,0.3,0.8,0.4c0.3,0.1,0.6,0.2,1,0.4c0.3,0.1,0.6,0.3,1,0.4c0.3,0.2,0.6,0.4,0.8,0.6c0.2,0.2,0.4,0.5,0.6,0.8
			C369.6,409.7,369.6,410.1,369.6,410.6z"/>
		<path class="st1" d="M381,402.8c0.2,0,0.4,0.1,0.5,0.2c0.1,0.1,0.1,0.3,0.1,0.4v10c0,0.1,0,0.1,0,0.2c0,0-0.1,0.1-0.2,0.1
			c-0.1,0-0.2,0.1-0.3,0.1c-0.1,0-0.3,0-0.4,0c-0.2,0-0.3,0-0.5,0c-0.1,0-0.2,0-0.3-0.1s-0.1-0.1-0.2-0.1c0,0,0-0.1,0-0.2v-9h-5.3
			v5.7c0,0.7,0.1,1.2,0.3,1.6c0.2,0.4,0.6,0.5,1.1,0.5c0.2,0,0.3,0,0.5-0.1s0.3-0.1,0.4-0.1c0.1,0,0.2-0.1,0.3-0.1
			c0.1,0,0.1-0.1,0.2-0.1c0,0,0.1,0,0.1,0c0,0,0.1,0.1,0.1,0.1c0,0.1,0,0.1,0.1,0.2c0,0.1,0,0.2,0,0.3c0,0.2,0,0.4,0,0.5
			c0,0.1-0.1,0.2-0.1,0.3c-0.1,0.1-0.2,0.1-0.3,0.2c-0.1,0.1-0.3,0.1-0.4,0.1c-0.2,0-0.3,0.1-0.5,0.1c-0.2,0-0.3,0-0.5,0
			c-0.5,0-1-0.1-1.4-0.2c-0.4-0.1-0.7-0.4-0.9-0.6c-0.2-0.3-0.4-0.7-0.5-1.1c-0.1-0.4-0.2-1-0.2-1.5v-6h-1.4c-0.1,0-0.2-0.1-0.3-0.2
			c-0.1-0.1-0.1-0.3-0.1-0.6c0-0.1,0-0.3,0-0.4c0-0.1,0-0.2,0.1-0.2c0-0.1,0.1-0.1,0.1-0.1c0,0,0.1,0,0.2,0h1.4v-2.4
			c0-0.1,0-0.1,0-0.1c0,0,0.1-0.1,0.1-0.1c0.1,0,0.2-0.1,0.3-0.1c0.1,0,0.3,0,0.5,0c0.2,0,0.3,0,0.5,0c0.1,0,0.2,0,0.3,0.1
			c0.1,0,0.1,0.1,0.1,0.1c0,0,0,0.1,0,0.1v2.4L381,402.8L381,402.8z M381.8,399.6c0,0.4-0.1,0.7-0.2,0.9c-0.2,0.2-0.5,0.2-0.9,0.2
			c-0.4,0-0.7-0.1-0.9-0.2c-0.2-0.2-0.2-0.4-0.2-0.9c0-0.4,0.1-0.7,0.2-0.9c0.2-0.2,0.5-0.2,0.9-0.2c0.4,0,0.7,0.1,0.9,0.2
			C381.7,398.9,381.8,399.2,381.8,399.6z"/>
		<path class="st1" d="M387,413.4c0,0.1,0,0.1,0,0.2c0,0-0.1,0.1-0.1,0.1c-0.1,0-0.2,0.1-0.3,0.1c-0.1,0-0.3,0-0.5,0
			c-0.2,0-0.3,0-0.5,0c-0.1,0-0.2,0-0.3-0.1c-0.1,0-0.1-0.1-0.1-0.1c0,0,0-0.1,0-0.2v-15.3c0-0.1,0-0.1,0-0.2c0,0,0.1-0.1,0.1-0.1
			c0.1,0,0.2-0.1,0.3-0.1c0.1,0,0.3,0,0.5,0c0.2,0,0.3,0,0.5,0c0.1,0,0.2,0,0.3,0.1c0.1,0,0.1,0.1,0.1,0.1c0,0,0,0.1,0,0.2V413.4z"
			/>
		<path class="st1" d="M400.1,408.1c0,0.8-0.1,1.6-0.3,2.3c-0.2,0.7-0.6,1.3-1,1.8c-0.4,0.5-1,0.9-1.6,1.2c-0.7,0.3-1.4,0.4-2.3,0.4
			c-0.8,0-1.6-0.1-2.2-0.4c-0.6-0.2-1.2-0.6-1.6-1.1c-0.4-0.5-0.7-1.1-0.9-1.8c-0.2-0.7-0.3-1.5-0.3-2.3c0-0.8,0.1-1.6,0.3-2.3
			c0.2-0.7,0.5-1.3,1-1.8c0.4-0.5,1-0.9,1.6-1.2c0.7-0.3,1.4-0.4,2.3-0.4c0.8,0,1.6,0.1,2.2,0.4c0.6,0.2,1.2,0.6,1.6,1.1
			c0.4,0.5,0.7,1.1,0.9,1.8C400,406.5,400.1,407.2,400.1,408.1z M398.1,408.2c0-0.6-0.1-1.1-0.2-1.6s-0.3-0.9-0.5-1.3
			c-0.2-0.4-0.6-0.7-1-0.9c-0.4-0.2-0.9-0.3-1.5-0.3c-0.6,0-1,0.1-1.4,0.3c-0.4,0.2-0.7,0.5-1,0.8c-0.3,0.4-0.5,0.8-0.6,1.3
			c-0.1,0.5-0.2,1-0.2,1.6c0,0.6,0.1,1.1,0.2,1.6c0.1,0.5,0.3,0.9,0.5,1.3c0.2,0.4,0.6,0.7,1,0.9c0.4,0.2,0.9,0.3,1.5,0.3
			c0.6,0,1-0.1,1.4-0.3c0.4-0.2,0.7-0.5,1-0.8c0.3-0.4,0.5-0.8,0.6-1.3C398,409.4,398.1,408.8,398.1,408.2z"/>
		<path class="st1" d="M406.5,412.5c0,0.2,0,0.5-0.1,0.6s-0.1,0.3-0.2,0.4c-0.1,0.1-0.2,0.2-0.4,0.2c-0.2,0-0.3,0.1-0.6,0.1
			s-0.4,0-0.6-0.1c-0.2,0-0.3-0.1-0.4-0.2c-0.1-0.1-0.2-0.2-0.2-0.4c0-0.2-0.1-0.4-0.1-0.6c0-0.2,0-0.5,0.1-0.6
			c0-0.2,0.1-0.3,0.2-0.4c0.1-0.1,0.2-0.2,0.4-0.2c0.2,0,0.3-0.1,0.6-0.1s0.4,0,0.6,0.1c0.2,0,0.3,0.1,0.4,0.2
			c0.1,0.1,0.2,0.2,0.2,0.4C406.5,412,406.5,412.2,406.5,412.5z M406.2,409.4c0,0.1,0,0.1,0,0.2c0,0-0.1,0.1-0.1,0.1
			c-0.1,0-0.2,0.1-0.3,0.1c-0.1,0-0.2,0-0.4,0c-0.2,0-0.3,0-0.4,0c-0.1,0-0.2,0-0.3-0.1c-0.1,0-0.1-0.1-0.1-0.1c0,0,0-0.1,0-0.2
			l-0.2-10.9c0-0.1,0-0.2,0-0.2c0-0.1,0.1-0.1,0.2-0.2c0.1,0,0.2-0.1,0.3-0.1c0.1,0,0.3,0,0.5,0c0.2,0,0.4,0,0.5,0
			c0.1,0,0.2,0.1,0.3,0.1c0.1,0,0.1,0.1,0.2,0.2c0,0.1,0,0.1,0,0.2L406.2,409.4z"/>
	</g>
</g>
</svg>
