<svg id="svg8" xmlns="http://www.w3.org/2000/svg" xmlns:xlink="http://www.w3.org/1999/xlink" viewBox="0 0 841.9 470.57"><defs><style>.cls-1{fill:url(#Nova_amostra_de_gradiente_1);}.cls-2{fill:url(#Gradiente_sem_nome_187);}.cls-3{fill:url(#Nova_amostra_de_gradiente_1-2);}.cls-4{fill:url(#Gradiente_sem_nome_183);}.cls-5{fill:url(#Gradiente_sem_nome_451);}</style><linearGradient id="Nova_amostra_de_gradiente_1" x1="-197.48" y1="568.16" x2="-147.39" y2="611.01" gradientTransform="translate(5189.71 -22048.7) scale(23.6 39.12)" gradientUnits="userSpaceOnUse"><stop offset="0" stop-color="#bac4bd"/><stop offset="1" stop-color="#0468b4"/></linearGradient><linearGradient id="Gradiente_sem_nome_187" x1="-217.32" y1="575.09" x2="-216.85" y2="524.21" gradientTransform="translate(5144.36 -22048.7) scale(23.37 39.12)" gradientUnits="userSpaceOnUse"><stop offset="0" stop-color="#fff"/><stop offset="1" stop-color="#17135f"/></linearGradient><linearGradient id="Nova_amostra_de_gradiente_1-2" x1="-202.97" y1="571.61" x2="-203.1" y2="520.08" gradientTransform="translate(5155.06 -22048.7) scale(23.42 39.12)" xlink:href="#Nova_amostra_de_gradiente_1"/><linearGradient id="Gradiente_sem_nome_183" x1="-219.32" y1="569.81" x2="-127.61" y2="569.81" gradientTransform="translate(5189.71 -22048.7) scale(23.6 39.12)" gradientUnits="userSpaceOnUse"><stop offset="0" stop-color="#fff"/><stop offset="1" stop-color="#114390"/></linearGradient><linearGradient id="Gradiente_sem_nome_451" x1="-197.82" y1="571.84" x2="-149.38" y2="525.67" gradientTransform="translate(5187.17 -22035.24) scale(23.59 39.09)" xlink:href="#Gradiente_sem_nome_183"/></defs><path id="path2998" class="cls-1" d="M656.41,449.48H827.84L567.19,211.59l-61,85.35Z"/><rect id="rect3000" class="cls-2" x="15.4" y="168.77" width="102.96" height="281.28"/><rect id="rect3000-5" class="cls-3" x="350.28" y="30.97" width="103.21" height="281.28"/><path id="path2994" class="cls-4" d="M15.4,249.87,14.15,96.75s-3-36.86,24.49-58.41C66.38,16.79,96.87,27.85,96.87,27.85s9.25,1.13,28,22.68,15,16.17,15,16.17L344.53,274.82s24.49,29.77,57.73,12.76c33.23-17.3,51.48-58.13,51.48-58.13V391.36s-.75,40.26-34,59c-33.24,19-63.73-4.54-63.73-4.54L119.36,204.22s-25.24-27.79-59.72-4.82C25.4,222.65,15.4,249.87,15.4,249.87Z"/><path id="path2996" class="cls-5" d="M565.69,357.62,486.47,276.8s-36.73-37.71-.25-81.37S653.16,31.82,653.16,31.82H818.35L574.19,237.67c0-.28-43.23,51.61-8.5,120Z"/></svg>