<?xml version="1.0" encoding="utf-8"?>
<!-- Generator: Adobe Illustrator 25.0.0, SVG Export Plug-In . SVG Version: 6.00 Build 0)  -->
<svg version="1.1" id="Layer_1" xmlns="http://www.w3.org/2000/svg" xmlns:xlink="http://www.w3.org/1999/xlink" x="0px" y="0px"
	 viewBox="0 0 512 512" style="enable-background:new 0 0 512 512;" xml:space="preserve">
<style type="text/css">
	.st0{fill:url(#SVGID_1_);}
	.st1{fill:#DBD400;}
	.st2{fill:none;stroke:#DBD400;stroke-width:7;stroke-miterlimit:10;}
	.st3{fill:#FFFFFF;}
</style>
<linearGradient id="SVGID_1_" gradientUnits="userSpaceOnUse" x1="-1.724038e-08" y1="1.724129e-08" x2="511.999" y2="511.999">
	<stop  offset="0" style="stop-color:#310092"/>
	<stop  offset="1" style="stop-color:#4C00DC"/>
</linearGradient>
<rect class="st0" width="512" height="512"/>
<g>
	<g>
		<path class="st1" d="M47.71,172.1h17.05l8.29,51.44H59.4l-1.34-10.97H37.9l-6.15,10.97H17.3L47.71,172.1z M54.58,182.16
			l-11.4,20.7h13.86L54.58,182.16z"/>
		<path class="st1" d="M87.67,172.1h13.79l-6.23,28.67c-0.29,1.25-0.5,2.49-0.63,3.71c-0.13,1.22-0.2,2.41-0.2,3.57
			c0,1.93,0.7,3.56,2.1,4.89s3.12,1.99,5.18,1.99c2.75,0,4.93-1.06,6.55-3.19c1.62-2.12,3.04-5.95,4.27-11.47l6.23-28.16h13.25
			l-6.59,32c-1.5,7.24-4.2,12.51-8.11,15.82c-3.91,3.31-9.39,4.96-16.43,4.96c-6.49,0-11.47-1.49-14.95-4.47
			c-3.48-2.98-5.21-7.25-5.21-12.8c0-1.25,0.06-2.47,0.18-3.64c0.12-1.17,0.31-2.29,0.58-3.35L87.67,172.1z"/>
		<path class="st1" d="M138.41,172.1h39.82l-2.14,9.92h-13.14l-8.83,41.52h-13.86l8.83-41.52h-12.74L138.41,172.1z"/>
		<path class="st1" d="M205.96,170.9c7.12,0,12.68,1.95,16.69,5.85c4.01,3.9,6.01,9.31,6.01,16.23c0,3.69-0.57,7.33-1.7,10.91
			s-2.69,6.71-4.67,9.39c-2.8,3.74-6.18,6.59-10.15,8.56c-3.97,1.97-8.36,2.95-13.16,2.95c-7.17,0-12.76-1.97-16.78-5.92
			c-4.02-3.95-6.03-9.42-6.03-16.42c0-3.67,0.5-7.2,1.5-10.61c1-3.4,2.42-6.36,4.25-8.87c2.94-4.05,6.41-7.08,10.39-9.09
			C196.29,171.9,200.84,170.9,205.96,170.9z M214.46,192.26c0-3.76-0.82-6.67-2.46-8.72c-1.64-2.05-3.96-3.08-6.95-3.08
			c-2.1,0-4.07,0.62-5.92,1.85c-1.85,1.23-3.51,3.04-4.98,5.43c-1.21,1.96-2.18,4.33-2.93,7.11c-0.75,2.79-1.12,5.51-1.12,8.16
			c0,3.62,0.83,6.47,2.5,8.56c1.67,2.09,3.95,3.13,6.84,3.13c2.1,0,4.04-0.6,5.83-1.79c1.79-1.19,3.5-3.03,5.14-5.52
			c1.21-1.91,2.18-4.25,2.93-7.02C214.09,197.59,214.46,194.89,214.46,192.26z"/>
		<path class="st1" d="M264.6,172.1h15.2c7.24,0,12.57,1.13,15.98,3.38c3.41,2.26,5.12,5.77,5.12,10.55c0,5.89-1.97,10.52-5.9,13.9
			c-3.93,3.38-9.35,5.07-16.25,5.07c-0.85,0-1.88-0.02-3.09-0.05c-1.22-0.04-2.62-0.09-4.22-0.16l-4.09,18.75H253.7L264.6,172.1z
			 M276.29,181.36l-2.86,13.79h3.62c3.31,0,5.88-0.68,7.71-2.04c1.83-1.36,2.75-3.25,2.75-5.67c0-1.98-0.69-3.49-2.06-4.52
			c-1.38-1.04-3.37-1.56-5.97-1.56H276.29z"/>
		<path class="st1" d="M311.29,172.1h36.23l-2.06,9.56h-22.55l-2.14,10.32h21.21l-1.95,9.27h-21.25l-2.68,12.67h23.35l-2.06,9.63
			h-37.07L311.29,172.1z"/>
		<path class="st1" d="M397.87,173.94l-3.4,10.46c-1.81-1.13-3.72-1.98-5.74-2.53c-2.01-0.55-4.18-0.83-6.5-0.83
			c-6.2,0-11.04,1.76-14.51,5.27c-3.47,3.51-5.21,8.38-5.21,14.61c0,4.05,1.32,7.27,3.95,9.65c2.63,2.38,6.2,3.57,10.71,3.57
			c2,0,4.02-0.27,6.06-0.8c2.04-0.53,4.12-1.33,6.24-2.39l-1.3,11.87c-2.51,0.63-4.94,1.1-7.28,1.43c-2.34,0.33-4.62,0.49-6.84,0.49
			c-8.08,0-14.39-2.14-18.91-6.41c-4.53-4.27-6.79-10.19-6.79-17.77c0-3.91,0.71-7.69,2.12-11.33c1.41-3.64,3.37-6.76,5.88-9.34
			c3.02-3.11,6.45-5.39,10.3-6.82c3.85-1.44,8.42-2.15,13.7-2.15c2.75,0,5.57,0.25,8.47,0.76S394.74,172.93,397.87,173.94z
			 M369.31,223.53h4.16l-1.19,3.33c2.77,0.05,4.87,0.6,6.3,1.67c1.42,1.06,2.13,2.61,2.13,4.63c0,2.68-0.88,4.75-2.62,6.21
			c-1.75,1.46-4.23,2.19-7.44,2.19c-1.25,0-2.75-0.18-4.49-0.53s-3.8-0.9-6.19-1.65l1.85-4.81c1.54,0.63,3.04,1.1,4.49,1.43
			c1.45,0.33,2.79,0.49,4.02,0.49c1.09,0,1.94-0.24,2.57-0.72s0.94-1.15,0.94-1.99c0-0.89-0.43-1.53-1.3-1.9
			c-0.87-0.38-2.34-0.56-4.42-0.56h-1.48L369.31,223.53z"/>
		<path class="st1" d="M420.57,172.1h17.05l8.29,51.44h-13.65l-1.34-10.97h-20.16l-6.15,10.97h-14.44L420.57,172.1z M427.45,182.16
			l-11.4,20.7h13.86L427.45,182.16z"/>
		<path class="st1" d="M494.7,173.26l-3.18,10.03c-1.88-0.84-3.79-1.48-5.72-1.9c-1.93-0.42-3.91-0.63-5.94-0.63
			c-3.07,0-5.41,0.45-7.04,1.36s-2.44,2.21-2.44,3.93c0,1.86,1.83,3.55,5.5,5.07c1.47,0.6,2.63,1.11,3.48,1.52
			c4.27,2.08,7.18,4.1,8.72,6.08c1.54,1.98,2.32,4.5,2.32,7.57c0,5.62-2.15,10.1-6.44,13.45c-4.3,3.34-10.12,5.01-17.48,5.01
			c-3.11,0-6.1-0.24-8.96-0.71c-2.86-0.47-5.62-1.18-8.27-2.12l2.97-10.61c2.15,1.06,4.23,1.86,6.24,2.39
			c2.01,0.53,3.99,0.8,5.92,0.8c3.52,0,6.3-0.58,8.33-1.74c2.03-1.16,3.04-2.73,3.04-4.71c0-2.49-2.69-4.8-8.07-6.95
			c-1.35-0.53-2.4-0.95-3.15-1.27c-2.92-1.23-5.09-2.85-6.52-4.85s-2.14-4.42-2.14-7.24c0-4.97,1.99-9.01,5.97-12.11
			c3.98-3.1,9.21-4.65,15.67-4.65c3.6,0,6.85,0.19,9.76,0.58C490.17,171.94,492.65,172.51,494.7,173.26z"/>
	</g>
	<line class="st2" x1="17.3" y1="235.76" x2="350.45" y2="235.76"/>
	<line class="st2" x1="390.28" y1="235.76" x2="494.7" y2="235.76"/>
	<g>
		<path class="st1" d="M216.54,297.12l2-1.69c-1.12-3.88-1.1-3.82-2.22-7.7l-2.5-0.04c-4.54-0.08-7.75-5.05-6.41-9.95l0.74-2.69
			c-2.93-2.4-2.88-2.36-5.81-4.76l-2.04,1.62c-3.72,2.95-8.9,1.05-10.37-3.8l-0.81-2.67c-3.62,0-3.56,0-7.18,0l-0.81,2.67
			c-1.47,4.85-6.65,6.75-10.37,3.8l-2.04-1.62c-2.93,2.4-2.88,2.36-5.81,4.76l0.74,2.69c1.34,4.9-1.87,9.87-6.41,9.95l-2.5,0.04
			c-1.12,3.88-1.1,3.82-2.22,7.7l2,1.69c3.64,3.07,3.64,9.22,0,12.3l-2,1.69c1.12,3.88,1.1,3.82,2.22,7.7l2.5,0.04
			c4.54,0.08,7.75,5.05,6.41,9.95l-0.74,2.69c2.93,2.4,2.88,2.36,5.81,4.76l2.04-1.62c3.72-2.95,8.9-1.05,10.37,3.8l0.81,2.67
			c3.62,0,3.56,0,7.18,0l0.81-2.67c1.47-4.85,6.65-6.75,10.37-3.8l2.04,1.62c2.93-2.4,2.88-2.36,5.81-4.76l-0.74-2.69
			c-1.34-4.9,1.87-9.87,6.41-9.95l2.5-0.04c1.12-3.88,1.1-3.82,2.22-7.7l-2-1.69C212.9,306.34,212.9,300.19,216.54,297.12z
			 M185.52,329.08c-5.96,0-11.61-2.57-15.9-7.24c-4.28-4.66-6.76-10.91-6.98-17.59c-0.02-0.73,0.48-1.35,1.13-1.37
			c0.65-0.03,1.19,0.54,1.22,1.28c0.41,12.49,9.43,22.28,20.52,22.28c11.33,0,20.54-10.39,20.54-23.16
			c0-12.77-9.21-23.16-20.54-23.16c-10.09,0-18.61,8.13-20.26,19.33c-0.11,0.72-0.71,1.21-1.35,1.09c-0.64-0.12-1.07-0.8-0.97-1.52
			c0.88-5.96,3.62-11.41,7.71-15.36c4.14-3.99,9.42-6.19,14.87-6.19c12.62,0,22.89,11.58,22.89,25.81
			C208.41,317.5,198.14,329.08,185.52,329.08z M169.05,303.11c0.08-10.08,7.38-18.32,16.32-18.41c9.21-0.09,16.69,8.35,16.61,18.73
			c-0.08,10.08-7.38,18.32-16.32,18.41C176.46,321.92,168.98,313.49,169.05,303.11z"/>
		<polygon class="st3" points="116.91,314.03 105.58,271.59 85.12,271.59 85.12,334.94 97.38,334.94 97.38,282.34 112.36,334.94 
			121.37,334.94 136.17,282.25 136.17,334.94 149.05,334.94 149.05,271.59 128.41,271.59 		"/>
		<path class="st3" d="M263.72,279.3c-5.5-5.14-14.02-7.71-25.55-7.71h-16.18v63.35h16.18c11,0,19.38-2.7,25.14-8.11
			c5.77-5.41,8.65-13.27,8.65-23.58C271.97,292.43,269.22,284.45,263.72,279.3z M252.06,318.98c-3.05,3.51-7.59,5.26-13.62,5.26
			h-1.92v-42.09h1.92c6.15,0,10.72,1.72,13.71,5.17c2.99,3.45,4.48,8.75,4.48,15.92C256.63,310.23,255.11,315.48,252.06,318.98z"/>
		<polygon class="st3" points="296.89,307.93 317.26,307.93 317.26,297.32 296.89,297.32 296.89,282.16 318.42,282.16 
			318.42,271.59 282.35,271.59 282.35,334.94 319.45,334.94 319.45,324.24 296.89,324.24 		"/>
		<polygon class="st3" points="344.37,271.59 329.84,271.59 329.84,334.94 365.1,334.94 365.1,323.44 344.37,323.44 		"/>
		<path class="st1" d="M425.79,309.42c-3.64-3.07-3.64-9.22,0-12.3l2-1.69c-1.12-3.88-1.1-3.82-2.22-7.7l-2.5-0.04
			c-4.54-0.08-7.75-5.05-6.41-9.95l0.74-2.69c-2.93-2.4-2.88-2.36-5.81-4.76l-2.04,1.62c-3.72,2.95-8.9,1.05-10.37-3.8l-0.81-2.67
			c-3.62,0-3.56,0-7.18,0l-0.81,2.67c-1.47,4.85-6.65,6.75-10.37,3.8l-2.04-1.62c-2.93,2.4-2.88,2.36-5.81,4.76l0.74,2.69
			c1.34,4.9-1.87,9.87-6.41,9.95l-2.5,0.04c-1.12,3.88-1.1,3.82-2.22,7.7l2,1.69c3.64,3.07,3.64,9.22,0,12.3l-2,1.69
			c1.12,3.88,1.1,3.82,2.22,7.7l2.5,0.04c4.54,0.08,7.75,5.05,6.41,9.95l-0.74,2.69c2.93,2.4,2.88,2.36,5.81,4.76l2.04-1.62
			c3.72-2.95,8.9-1.05,10.37,3.8l0.81,2.67c3.62,0,3.56,0,7.18,0l0.81-2.67c1.47-4.85,6.65-6.75,10.37-3.8l2.04,1.62
			c2.93-2.4,2.88-2.36,5.81-4.76l-0.74-2.69c-1.34-4.9,1.87-9.87,6.41-9.95l2.5-0.04c1.12-3.88,1.1-3.82,2.22-7.7L425.79,309.42z
			 M394.77,329.08c-5.96,0-11.61-2.57-15.9-7.24c-4.28-4.66-6.76-10.91-6.98-17.59c-0.02-0.73,0.48-1.35,1.13-1.37
			c0.65-0.03,1.19,0.54,1.22,1.28c0.41,12.49,9.43,22.28,20.52,22.28c11.33,0,20.54-10.39,20.54-23.16
			c0-12.77-9.21-23.16-20.54-23.16c-10.09,0-18.61,8.13-20.26,19.33c-0.11,0.72-0.71,1.21-1.35,1.09c-0.64-0.12-1.07-0.8-0.97-1.52
			c0.88-5.96,3.62-11.41,7.71-15.36c4.14-3.99,9.42-6.19,14.87-6.19c12.62,0,22.89,11.58,22.89,25.81
			C417.66,317.5,407.4,329.08,394.77,329.08z M378.31,303.11c0.08-10.08,7.38-18.32,16.32-18.41c9.21-0.09,16.69,8.35,16.61,18.73
			c-0.08,10.08-7.38,18.32-16.32,18.41C385.71,321.92,378.23,313.49,378.31,303.11z"/>
	</g>
</g>
</svg>
