<?xml version="1.0" encoding="utf-8"?>
<!-- Generator: Adobe Illustrator 25.0.0, SVG Export Plug-In . SVG Version: 6.00 Build 0)  -->
<svg version="1.1" id="Camada_1" xmlns:xodm="http://www.corel.com/coreldraw/odm/2003"
	 xmlns="http://www.w3.org/2000/svg" xmlns:xlink="http://www.w3.org/1999/xlink" x="0px" y="0px" viewBox="0 0 512 512"
	 style="enable-background:new 0 0 512 512;" xml:space="preserve">
<style type="text/css">
	.st0{fill-rule:evenodd;clip-rule:evenodd;fill:#004A94;fill-opacity:0.4902;}
	.st1{fill-rule:evenodd;clip-rule:evenodd;fill:#004A94;}
	.st2{fill-rule:evenodd;clip-rule:evenodd;fill:#FFFFFF;}
	.st3{fill:#0098DB;}
	.st4{fill:#004A94;}
	.st5{fill-rule:evenodd;clip-rule:evenodd;fill:#088B4F;}
	.st6{fill:none;stroke:#FFFFFF;stroke-width:1.0001;stroke-miterlimit:10;stroke-dasharray:10.0001,5;}
</style>
<g id="Camada_x0020_1">
	<g id="_2314936068544">
		<path class="st0" d="M255.1,121c33.5,0,60.7,27.2,60.7,60.7c0,11-2.9,21.3-8,30.2c-32.5-16.5-73.1-16.3-104.8,1.1
			c-5.5-9.1-8.6-19.8-8.6-31.2C194.4,148.2,221.5,121,255.1,121C255.1,121,255.1,121,255.1,121z"/>
		<path class="st1" d="M265,211.1c-1.3,1.3-3.2,2-5.2,2c-1.6,0-3.1-0.5-4.3-1.4c-0.2,0.2-0.5,0.3-0.7,0.5c-0.7,0.4-1.5,0.7-2.3,0.8
			c-0.7,0.1-1.4,0.2-2.1,0.1c-0.7-0.1-1.4-0.2-2-0.5c-0.8-0.3-1.5-0.7-2.1-1.2c-0.1-0.1-0.2-0.2-0.4-0.3c-0.2,0.2-0.4,0.4-0.7,0.6
			c-0.7,0.5-1.6,1-2.4,1.2c-1,0.3-1.9,0.4-2.9,0.2c-0.9-0.1-1.8-0.4-2.6-0.8c-0.7-0.3-1.3-0.7-1.8-1.3c0,0,0,0,0,0.1
			c-0.5,0.7-1.2,1.4-2,1.8c-0.7,0.4-1.5,0.6-2.3,0.7c-0.7,0.1-1.4,0-2.1-0.1c-0.7-0.2-1.3-0.4-1.9-0.8c-0.2-0.1-0.4-0.3-0.6-0.4
			c-0.4,0.4-1,0.7-1.5,0.9c-0.8,0.3-1.6,0.5-2.5,0.4c-0.7,0-1.5-0.2-2.2-0.5c-0.8-0.3-1.5-0.8-2.1-1.4c-0.5-0.5-0.9-1.1-1.3-1.8
			c-0.6-1.2-0.5-2.7-0.5-3.9c0-3.1,0-6.3,0-9.4c0-2.4,0.1-4.9,0.2-7.3c0.1-1.6,0.2-3.2,0.2-4.8c-0.3,0.3-0.6,0.5-1,0.7
			c-0.4,0.2-0.9,0.4-1.4,0.5c-0.6,0.2-1.3,0.2-1.9,0.2c-0.7-0.1-1.5-0.2-2.2-0.6c-0.8-0.3-1.4-0.9-1.9-1.5c-0.6-0.7-0.9-1.6-1-2.5
			c-0.1-0.9,0.2-1.6,0.4-2.4c0.6-1.7,1.2-3.5,1.8-5.2c1.4-3.8,2.8-7.7,4.3-11.5c0.8-1.9,1.6-3.8,3.1-5.2c0.5-0.4,1-0.8,1.5-1.1
			c0-0.3,0-0.6,0-0.9c-1.7-1.9-2.8-4.4-2.8-7.2c0-5.8,4.7-10.6,10.6-10.6c0.1,0,0.2,0,0.3,0c1.3-2.9,3-5.9,4.5-8.7
			c0.2-0.4,0.5-0.9,0.7-1.3c-0.3-0.6-0.6-1.2-0.7-1.9c-0.2-1-0.2-2.1,0.1-3.1c0.2-0.8,0.6-1.6,1.2-2.2c0.4-0.5,0.9-0.9,1.5-1.3
			c0.4-0.3,0.9-0.5,1.4-0.7c-1.4-2-2.2-4.5-2.2-7.1c0-7,5.6-12.6,12.6-12.6c3.8,0,7.2,1.7,9.6,4.4c2.3-2.7,5.7-4.4,9.5-4.4
			c6.9,0,12.6,5.6,12.6,12.6c0,3.5-1.5,6.7-3.8,9c0,0,0,0,0,0c0.9,0.3,1.8,0.8,2.6,1.3c0.8,0.5,1.5,1.2,2.2,1.9
			c0.6,0.6,1.1,1.3,1.5,2c0.4,0.6,0.8,1.3,1.1,1.9c0.4,0.8,0.7,1.7,1,2.6c0.4,1.2,0.7,2.5,1.1,3.8c0.6,2.2,1.1,4.4,1.7,6.6
			c0.6,2.3,1.2,4.6,1.8,6.9c0.1,0.3,0.2,0.7,0.3,1c4.7,0.6,8.3,4.6,8.3,9.5c0,2.4-0.9,4.7-2.4,6.4c0.6,0.4,1.2,0.9,1.7,1.4
			c1,1,1.6,2.1,2.2,3.4c0.9,1.8,1.6,3.9,2.3,5.8c0.9,2.4,1.7,4.8,2.5,7.3c0.3,1,0.9,2.3,1,3.3c0.2,1.1,0,2.1-0.6,3
			c-0.4,0.7-1.1,1.3-1.8,1.7c-0.6,0.4-1.4,0.7-2.1,0.9c-0.7,0.2-1.5,0.2-2.3,0.1c0.1,0.6,0.2,1.2,0.2,1.8c0.1,1.2,0.3,2.4,0.4,3.5
			c0.1,0.9-0.1,1.7-0.7,2.4c-0.2,0.2-0.4,0.4-0.6,0.5c0,2.4,0,4.7,0,7.1c0,1.1,0,2.5-0.3,3.5c-0.2,0.6-0.5,1.1-0.9,1.6
			c-0.3,0.4-0.7,0.8-1.1,1.2c-0.5,0.4-1.1,0.8-1.8,1c-0.6,0.2-1.2,0.3-1.8,0.3c-0.5,0-0.9,0-1.4-0.1c-0.6-0.1-1.1-0.2-1.6-0.5
			c-0.1-0.1-0.3-0.1-0.4-0.2c-0.3,0.2-0.6,0.3-0.9,0.4c-0.5,0.2-1,0.3-1.6,0.4c-0.5,0.1-1,0.1-1.6,0c-0.6-0.1-1.2-0.2-1.7-0.5
			c-0.6-0.3-1.2-0.6-1.7-1.1c-0.5-0.4-0.8-0.9-1.2-1.4c-0.2-0.3-0.4-0.7-0.5-1.1c-1.3,2.3-3.7,3.8-6.5,3.8
			C268.1,213.1,266.3,212.3,265,211.1z M234,155.2c-0.1,0.1-0.2,0.2-0.3,0.3c0.1,0,0.2,0.1,0.3,0.1C234,155.5,234,155.4,234,155.2z"
			/>
		<path class="st2" d="M245.9,101.3c4.3,0,8,2.9,9.2,6.8c-0.2,0.9-0.4,1.8-0.4,2.8s0.1,1.9,0.4,2.8c-1.2,3.9-4.8,6.8-9.2,6.8
			c-5.3,0-9.6-4.3-9.6-9.6S240.6,101.3,245.9,101.3C245.9,101.3,245.9,101.3,245.9,101.3z"/>
		<path class="st2" d="M265,101.4c5.3,0,9.5,4.3,9.5,9.5s-4.3,9.5-9.5,9.5c-5.3,0-9.5-4.3-9.5-9.5S259.7,101.4,265,101.4z"/>
		<path class="st2" d="M226.5,140.3c4.2,0,7.5,3.4,7.5,7.5c0,4.2-3.4,7.5-7.5,7.5c-4.2,0-7.5-3.4-7.5-7.5
			C219,143.6,222.4,140.3,226.5,140.3z"/>
		<path class="st2" d="M285.7,150.8c3.6,0,6.6,2.9,6.6,6.6s-2.9,6.6-6.6,6.6s-6.6-2.9-6.6-6.6S282.1,150.8,285.7,150.8z"/>
		<path class="st2" d="M212.6,174.6c1.2-3.2,3.1-8.4,4.3-11.3c1.2-2.9,1.7-3.5,2.4-4.1s1.3-1,2-1.4c0.7-0.3,1.5-0.6,2.1-0.7
			c0.6-0.1,1-0.2,1.9-0.2c0.8,0,2.1,0,3.1,0.1c1,0.1,1.9,0.3,2.8,0.6c0.9,0.3,1.8,0.9,2.5,1.5c0.7,0.6,1.3,1.3,1.7,1.9
			c0.4,0.6,0.6,1.1,1.1,2.4c0.5,1.3,1.3,3.4,2.3,6.5c1.1,3.1,2.5,7.2,3.3,9.3c0.7,2.1,0.8,2.4,0.5,2.6c-0.2,0.2-0.7,0.5-1.3,0.6
			c-0.6,0.2-1.2,0.3-1.7,0.3c-0.5,0-0.7,0-0.9,0c-0.2,0-0.2-0.1-0.3-0.2c0-0.1-0.1-0.2-0.9-2.5c-0.9-2.3-2.5-6.9-3.4-9.2
			c-0.8-2.3-0.8-2.4-0.8-2.4s0,0.1,0,3.5c0,3.4,0.1,10.1,0.1,14.6c0.1,4.6,0.2,7,0.3,10.1c0.1,3.1,0,6.8,0,8.8c0,2,0,2.3-0.2,2.7
			c-0.1,0.4-0.3,0.8-0.6,1.2s-0.6,0.7-1,0.9c-0.4,0.2-0.8,0.3-1.1,0.3c-0.4,0-0.7,0-1.1-0.1c-0.4-0.1-0.7-0.2-1.1-0.5
			c-0.4-0.2-0.7-0.5-0.9-0.9c-0.3-0.4-0.4-1-0.5-3.2c-0.1-2.2,0-5.9,0-8.6c0-2.8,0-4.5-0.1-6.2c-0.1-1.7-0.2-3.2-0.2-4
			c0-0.8,0-0.8,0-0.8s0,0-0.1,0s-0.4,0-0.5,0c-0.1,0-0.1,0-0.1,0c0,0,0,0,0,0.4c0,0.4,0,1.1-0.1,2.3c-0.1,1.2-0.2,2.9-0.3,5.4
			c0,2.5,0,5.8,0,8.1c0,2.3,0,3.6-0.1,4.5c0,0.8-0.1,1.2-0.2,1.5c-0.1,0.3-0.3,0.7-0.6,1c-0.3,0.3-0.7,0.6-1.1,0.8
			c-0.4,0.2-0.8,0.2-1.2,0.2s-0.8-0.1-1.2-0.3c-0.4-0.2-0.8-0.4-1.1-0.7c-0.3-0.3-0.6-0.7-0.7-1c-0.1-0.3-0.2-0.5-0.2-2.6
			c0-2.2,0-6.3,0-9.4c0-3.1,0.1-5,0.2-7.2c0.1-2.2,0.2-4.7,0.3-6.8c0.1-2.1,0.1-3.7,0-5.8c0-2.1-0.1-4.6-0.1-6.1c0-1.5,0-1.9,0-2.1
			c0-0.2,0-0.2,0-0.2s0,0-0.7,2c-0.7,2-2.1,5.9-2.9,8.2c-0.8,2.3-1.1,3-1.3,3.4c-0.2,0.4-0.3,0.5-0.5,0.6c-0.2,0.1-0.5,0.2-0.8,0.3
			c-0.3,0.1-0.6,0.1-1,0.1c-0.4,0-0.8-0.1-1.1-0.3c-0.3-0.2-0.6-0.4-0.8-0.6c-0.2-0.3-0.3-0.5-0.3-0.8c0-0.3,0-0.6,0.3-1.3
			C211.1,179,211.5,177.8,212.6,174.6C212.6,174.6,212.6,174.6,212.6,174.6z"/>
		<path class="st2" d="M227.2,156.8c-0.6,0-1.7,0-2.4,0c-0.7,0-0.8,0-1.2,0.1s-0.7,0.3-1,0.3c-0.3,0.1-0.4,0.1-0.4,0
			c-0.1-0.1-0.1-0.2-0.2-0.4c-0.1-0.2-0.2-0.6-0.2-1c0-0.4,0-0.8,0-1.1c0-0.3,0.1-0.4,0.1-0.4c0-0.1,0.1-0.1,0.1-0.1
			c0,0,0.1,0,0.1,0c0,0,0.1,0,0.2,0.2c0.2,0.1,0.5,0.3,0.9,0.6c0.4,0.2,0.9,0.4,1.6,0.5c0.7,0.1,1.7,0.2,2.3,0.2
			c0.6,0,0.9-0.1,1-0.1c0.1,0,0.2-0.1,0.2,0c0,0,0,0-0.1,0.2c-0.1,0.2-0.2,0.5-0.2,0.7s-0.1,0.2-0.1,0.2
			C227.9,156.8,227.8,156.8,227.2,156.8z"/>
		<path class="st2" d="M229.2,139.3c1-2.3,3.2-6.4,4.8-9.3s2.6-4.6,3.3-5.6c0.7-1,1.2-1.4,1.6-1.6c0.5-0.2,1-0.4,3-0.4
			c2.1-0.1,5.8-0.1,7.9,0c2.1,0,2.7,0.1,3.4,0.5c0.7,0.3,1.5,0.9,2,1.2c0.5,0.3,0.6,0.5,0.7,0.5c0.1,0.1,0,0.1,0,0.2
			c0,0-0.1,0.1-0.1,0.2c0,0.1,0,0.2-0.1,0.4c0,0.2,0,0.4-0.1,2.6c-0.1,2.2-0.2,6.4-0.3,8.5c-0.1,2.1-0.1,2.2-0.1,2.2
			c0,0-0.1-0.1-0.2-0.2c-0.1-0.1-0.2-0.3-0.3-0.4c-0.1-0.1-0.1-0.1-0.1-0.1c0,0,0,0.1,0,1.8c0,1.8,0,5.2-0.1,7.7
			c-0.1,2.5-0.2,4.2-0.4,6.4c-0.2,2.3-0.5,5.1-0.7,7.9c-0.2,2.7-0.5,5.4-0.8,8c-0.3,2.6-0.7,5.3-1,7.4c-0.3,2.1-0.6,3.6-0.9,4.5
			c-0.2,0.9-0.3,1.3-0.4,1.6c-0.1,0.2-0.1,0.4-0.1,0.5s0,0.1,0,0.1s0.1,0,0.8,0c0.7,0,2.1,0,2.7,0c0.7,0,0.7,0,0.7,0s0,0,0,3.7
			c0,3.7,0,11.2,0,15c0,3.9,0,4.2,0.1,4.4c0,0.2,0.1,0.4,0.2,0.5c0.1,0.1,0.1,0.2,0.1,0.2c0,0.1,0,0.1-0.1,0.3
			c-0.1,0.2-0.3,0.5-0.6,0.8c-0.3,0.3-0.7,0.7-1.1,0.9c-0.4,0.2-0.9,0.4-1.4,0.5c-0.4,0.1-0.8,0.1-1.3,0.1c-0.4,0-0.8-0.1-1.2-0.3
			c-0.4-0.2-0.8-0.4-1.2-0.7c-0.4-0.3-0.7-0.8-1-1.2c-0.2-0.4-0.4-0.7-0.5-1c-0.1-0.3-0.1-0.6-0.1-5.2c0-4.6,0-13.4-0.1-20.4
			s-0.3-12.1-0.4-14.6c-0.1-2.6-0.1-2.6-0.1-2.6s0,0-0.1,0c-0.1,0-0.2,0-0.2,0c-0.1,0-0.1,0-0.1,0s0,0-0.1,5.1
			c-0.1,5.1-0.3,15.3-0.4,22.1c-0.1,6.8-0.1,10.3-0.1,12.4c0,2-0.1,2.5-0.2,3c-0.1,0.5-0.4,1-0.6,1.4c-0.3,0.4-0.5,0.7-0.9,1
			c-0.4,0.3-1,0.6-1.5,0.8c-0.5,0.2-1.1,0.2-1.6,0.1s-1.2-0.3-1.7-0.5c-0.5-0.2-0.9-0.5-1.2-0.9c-0.3-0.4-0.6-0.9-0.8-1.3
			c-0.2-0.4-0.3-0.8-0.4-2.1c0-1.3,0-3.7,0-8.3c0-4.7,0.1-11.6,0.1-15.1c0-1.7,0-2.6,0-3.3c0.2,0.6,0.4,1.2,0.6,1.8
			c0.3,0.7,0.5,1.4,0.8,2.1c0,0,0,0.1,0,0.1l5.2-1.9c0-0.1-0.1-0.2-0.1-0.3c-0.1-0.4-0.3-0.8-0.4-1.2c-1.1-3.1-2.2-6.2-3.3-9.3
			c-0.8-2.2-1.5-4.4-2.4-6.5c0-0.1-0.1-0.2-0.1-0.2c0.1-3.4,0.2-5.3,0.2-8.8c0-3.6,0-9.1,0-12.2c0-3.1,0-3.7,0-4.1
			c0-0.3,0-0.3,0-0.3s0,0-0.9,1.8c-0.6,1.2-1.6,3.1-2.4,4.7c-1-1.9-2.7-3.4-4.7-4C229,140,229.1,139.7,229.2,139.3L229.2,139.3
			L229.2,139.3z"/>
		<path class="st2" d="M236.3,126.9c-0.3-0.1-0.8-0.3-1.2-0.6c-0.4-0.4-0.7-0.9-0.8-1.5c-0.1-0.6-0.1-1.2,0.1-1.7
			c0.1-0.5,0.4-0.8,0.6-1.1c0.3-0.3,0.5-0.5,0.8-0.7c0.3-0.2,0.6-0.3,0.9-0.4c0.3-0.1,0.8-0.1,3,0.1c2.2,0.1,6.2,0.4,8.2,0.5
			c2,0.1,2,0.1,2,0.1s0,0-1.6,0c-1.6,0-4.7,0-6.5,0s-2.1,0.1-2.4,0.2c-0.4,0.1-0.7,0.2-1.1,0.5c-0.4,0.2-0.8,0.6-1.1,1
			c-0.3,0.4-0.5,0.8-0.7,1.2s-0.2,0.6-0.2,0.8c0,0.2,0,0.3,0.1,0.5c0.1,0.2,0.1,0.3,0.2,0.5c0.1,0.2,0.1,0.3,0.1,0.4
			c0,0.1,0,0.2,0,0.3C236.7,127,236.6,127,236.3,126.9z"/>
		<path class="st2" d="M252.8,121.8c0.6,0.1,1.9,0.2,3.1,0.3c1.2,0.1,2.4,0.2,3.6,0.2s2.3,0,3.9,0s4,0,5.3,0c1.4,0,1.8,0,2.3,0
			c0.5,0,1,0.2,1.6,0.4c0.6,0.2,1.3,0.6,1.9,1c0.6,0.4,1.2,0.9,1.7,1.4c0.5,0.5,0.9,1.1,1.2,1.6c0.3,0.5,0.6,1,0.9,1.6
			c0.3,0.6,0.6,1.3,0.9,2.2c0.3,0.9,0.6,1.9,1,3.6c0.4,1.7,1.1,4.1,1.7,6.6c0.7,2.5,1.3,5.1,1.8,6.9c0.3,1.3,0.6,2.1,0.7,2.8
			c-2.5,0.4-4.5,2.1-5.4,4.4c-0.1-0.2-0.1-0.5-0.2-0.9c-0.5-2-1.5-5.6-2.4-8.9c-0.9-3.3-1.6-6.2-2-7.7c-0.4-1.6-0.5-1.8-0.6-1.9
			c0,0,0,0.2,0,0.5c0,0.3,0,0.8,0,1.2c0,0.4,0,0.8,0.8,5.3c0.8,4.5,2.3,13.2,3.2,18.1c0.6,3.5,0.8,5.1,0.8,6.2
			c-0.4,0.4-0.7,0.8-1.1,1.3c0,0.1-0.1,0.1-0.1,0.2c-0.2,0.4-0.4,0.7-0.6,1.1c-0.4,0.8-0.7,1.7-1,2.6c-1.3,3.5-2.5,6.9-3.7,10.4
			c-0.1,0.2-0.1,0.3-0.2,0.5c-0.1,0-0.1,0-0.2,0c-0.5,0-1.3,0-4.8,0s-9.5,0-12.5,0c-3,0-3,0-3,0c0,0,0,0,0.3-0.8
			c0.3-0.7,0.7-2.2,1.1-4c0.4-1.8,0.7-4,1-6.5c0.3-2.4,0.6-5.1,0.9-8.6c0.3-3.5,0.6-7.8,0.9-12.7c0.2-4.9,0.4-10.4,0.4-14.3
			c0-3.9,0-6.3,0-7.9c0-1.5,0-2.2,0.1-2.7c0.1-0.4,0.1-0.6,0.2-0.7c0.1-0.1,0.1-0.1,0.1-0.2s0,0-0.1-0.1c-0.1,0-0.1,0-0.3-0.2
			c-0.2-0.1-0.4-0.4-1-0.8c-0.6-0.4-1.4-0.9-1.9-1.2c-0.5-0.3-0.6-0.3-0.8-0.4c-0.1,0-0.3-0.1-0.3-0.1
			C252.1,121.7,252.1,121.7,252.8,121.8L252.8,121.8z"/>
		<path class="st2" d="M289,165.1c0.3,0.1,1,0.4,1.6,0.7c0.6,0.3,1.3,0.8,1.8,1.4c0.6,0.6,1.1,1.3,1.6,2.5c0.6,1.3,1.3,3.1,2.1,5.5
			c0.9,2.4,1.9,5.4,2.5,7.2c0.6,1.8,0.8,2.3,0.9,2.7c0.1,0.4,0,0.7-0.2,1c-0.2,0.3-0.4,0.5-0.8,0.8c-0.4,0.2-0.8,0.4-1.2,0.5
			c-0.4,0.1-0.7,0.1-1,0c-0.3-0.1-0.6-0.2-0.8-0.4c-0.2-0.2-0.4-0.5-1.1-2.6c-0.8-2.1-2.1-6-2.8-7.9c-0.7-2-0.7-2-0.7-1.9
			s0,0.2,0.5,3.8c0.4,3.6,1.3,10.6,1.8,14.2c0.4,3.5,0.4,3.5,0.4,3.5s0,0-0.2,0s-0.7,0-0.9,0c-0.2,0-0.2,0-0.2,0c0,0,0,0,0,1.9
			c0,1.9,0,5.7,0,7.7c0,2-0.1,2.3-0.1,2.5c-0.1,0.2-0.2,0.5-0.4,0.7c-0.2,0.2-0.4,0.5-0.7,0.7c-0.2,0.2-0.5,0.3-0.8,0.4
			c-0.3,0.1-0.7,0.1-1,0.1c-0.3,0-0.6,0-0.9-0.1c-0.3,0-0.5-0.1-0.7-0.2c-0.2-0.1-0.5-0.3-0.8-0.5c-0.2-0.2-0.4-0.5-0.6-0.7
			c-0.1-0.3-0.2-0.5-0.3-0.8c-0.1-0.2-0.1-0.4-0.1-2.4c0-2,0-5.7,0-7.5c0-1.9,0-1.9,0-1.9c0,0-0.1,0-0.1,0c0,0,0,0.1-0.1,0.1
			s0,0.1,0,2c0,1.9,0,5.6,0,7.6s0,2.1-0.1,2.3c-0.1,0.2-0.2,0.6-0.4,0.8c-0.2,0.3-0.3,0.5-0.6,0.7c-0.2,0.2-0.5,0.3-0.8,0.4
			c-0.3,0.1-0.6,0.2-0.9,0.2c-0.3,0-0.6,0-0.9,0c-0.3,0-0.6-0.1-0.9-0.2c-0.3-0.1-0.6-0.3-0.8-0.5c-0.2-0.2-0.4-0.5-0.6-0.7
			c-0.1-0.3-0.3-0.5-0.3-0.8c-0.1-0.2-0.1-0.5-0.1-2.4c0-2,0-5.7,0-7.6c0-1.9,0-1.9,0-1.9s0,0-0.2,0c-0.2,0-0.7,0-0.9,0
			c-0.2,0-0.2,0-0.2,0s0,0,0.4-3.6c0.4-3.6,1.3-10.7,1.8-14.3c0.4-3.6,0.4-3.6,0.4-3.6s0,0-0.7,1.9c-0.7,1.9-2,5.7-2.8,7.8
			c-0.8,2.1-1,2.4-1.3,2.7c-0.3,0.3-0.6,0.4-0.9,0.5c-0.3,0.1-0.5,0.2-0.7,0.2c-0.2,0-0.4,0-0.7,0c-0.3,0-0.6-0.1-0.9-0.5
			c-0.3-0.4-0.4-1-0.6-1.4c-0.1-0.4-0.2-0.6-0.2-0.7c0-0.1,0-0.3,0.9-2.8c0.9-2.6,2.7-7.7,3.7-10.4c1-2.7,1.2-3.2,1.6-3.7
			c0.4-0.6,1-1.3,1.6-1.8c0.6-0.5,1.3-0.8,1.8-1.1c0.6-0.2,1.1-0.4,1.4-0.4c0.3-0.1,0.5-0.1,0.5-0.1c0.1,0,0.1,0,0.1,0s0,0,0,0.1
			s0,0.2,0,0.2c0,0.1,0,0.1,0,0.1c0,0,0,0,0.1,0c0.1,0,0.3-0.1,0.8-0.1c0.5,0,1.3,0,1.9,0c0.6,0,1,0.1,1.2,0.1c0.2,0,0.3,0,0.3,0.1
			c0,0,0,0,0,0s0-0.2,0-0.2c0-0.1,0-0.1,0-0.1c0,0,0,0,0.1,0c0.1,0,0.3,0,0.4,0C288.6,165,288.6,165,289,165.1L289,165.1L289,165.1z
			"/>
		<path class="st2" d="M278.5,181.8c0.3-0.9,0.9-2.6,1.2-3.5c0.3-0.9,0.3-0.8,0.4-0.8c0,0,0,0-0.1,0.9c-0.1,0.9-0.4,2.6-0.5,3.5
			c-0.1,0.9-0.1,0.9-0.1,0.9s0,0-0.2,0s-0.6,0-0.8,0s-0.2,0-0.2,0c0,0,0,0,0,0C278.2,182.7,278.2,182.7,278.5,181.8z"/>
		<path class="st2" d="M265.6,183.3h6.4c-0.2,0.4-0.3,0.9-0.4,1.3c0,0.1,0,0.1-0.1,0.2l3.1,1.1v19.7c0,2.5-2,4.5-4.5,4.5l0,0
			c-2.5,0-4.5-2-4.5-4.5L265.6,183.3C265.6,183.3,265.6,183.3,265.6,183.3z"/>
		<path class="st2" d="M255.3,183.3h9v22.3c0,2.5-2,4.5-4.5,4.5h0c-2.5,0-4.5-2-4.5-4.5V183.3z"/>
		<path class="st3" d="M102.1,267.4v-4.7h3.6c3.4,0,5.5-2.4,5.5-5.2c0-2.9-2.2-5.2-5.5-5.2h-7.2v15.1
			C98.5,267.4,102.1,267.4,102.1,267.4z M102.1,255.2h3.2c1.5,0,2.4,0.9,2.4,2.3c0,1.2-0.8,2.3-2.4,2.3h-3.2
			C102.1,259.7,102.1,255.2,102.1,255.2z M117.1,267.4v-4.7h2.4l3.3,4.7h4.1l-3.6-5.2c2-0.7,3.1-2.6,3.1-4.7c0-2.9-2.2-5.2-5.5-5.2
			h-7.5v15.1C113.5,267.4,117.1,267.4,117.1,267.4z M117.1,255.2h3.5c1.6,0,2.4,0.9,2.4,2.3c0,1.2-0.8,2.3-2.4,2.3h-3.5
			C117.1,259.7,117.1,255.2,117.1,255.2z M129.1,267.4h11.8v-2.9h-8.2v-3.3h7.1v-2.8h-7.1v-3.3h8.2v-2.9h-11.8
			C129.1,252.3,129.1,267.4,129.1,267.4z M143.6,252.3v15.1h3.6v-5.6h7.1v-2.9h-7.1v-3.7h8.2v-2.9H143.6z M157.9,267.4h11.8v-2.9
			h-8.2v-3.3h7.1v-2.8h-7.1v-3.3h8.2v-2.9h-11.8C157.9,252.3,157.9,267.4,157.9,267.4z M176.2,252.3h-3.6v15.1h3.6V252.3z
			 M178.4,255.2h4.7v12.2h3.6v-12.2h4.7v-2.9h-13V255.2z M200.1,267.6c3.6,0,6.6-2.1,6.6-6l0-9.3h-3.6l0,9.3c0,1.7-1,3.1-3,3.1
			c-2,0-3-1.4-3-3.1v-9.3h-3.6v9.3C193.5,265.5,196.6,267.6,200.1,267.6z M213.6,267.4v-4.7h2.4l3.3,4.7h4.1l-3.6-5.2
			c2-0.7,3.1-2.6,3.1-4.7c0-2.9-2.2-5.2-5.5-5.2H210v15.1C210,267.4,213.6,267.4,213.6,267.4z M213.6,255.2h3.5
			c1.6,0,2.4,0.9,2.4,2.3c0,1.2-0.8,2.3-2.4,2.3h-3.5C213.6,259.7,213.6,255.2,213.6,255.2z M224.2,267.4h3.8l1.3-2.8h7.4l1.3,2.8
			h3.8l-6.9-15.1h-3.8C231.1,252.3,224.2,267.4,224.2,267.4z M233,256.4l2.4,5.3h-4.8L233,256.4z M249.3,267.4h3.6v-9.3l4.7,7.3
			l4.8-7.3v9.3h3.6v-15.1h-3.7l-4.7,7.1l-4.7-7.1h-3.7C249.3,252.3,249.3,267.4,249.3,267.4z M276,267.6c3.6,0,6.6-2.1,6.6-6l0-9.3
			H279l0,9.3c0,1.7-1,3.1-3,3.1c-2,0-3-1.4-3-3.1v-9.3h-3.6v9.3C269.3,265.5,272.4,267.6,276,267.6z M285.8,252.3v15.1h3.6V258
			l6.8,9.4h3.8v-15.1h-3.6v9.4l-6.8-9.4H285.8z M307.1,252.3h-3.6v15.1h3.6V252.3z M317.9,267.6c3.3,0,5.5-1.7,6.4-3.1l-2.3-1.7
			c-0.7,0.9-1.7,1.9-3.9,1.9c-2.5,0-4.7-1.9-4.7-4.8c0-3,2.2-4.9,4.7-4.9c1.9,0,3.1,0.9,3.8,1.8l2.4-1.8c-1.2-1.6-3.4-2.9-6.4-2.9
			c-4.4,0-8.1,3.1-8.1,7.8C309.8,264.6,313.4,267.6,317.9,267.6z M330.5,252.3h-3.6v15.1h3.6V252.3z M337.5,267.4v-4.7h3.6
			c3.4,0,5.5-2.4,5.5-5.2c0-2.9-2.2-5.2-5.5-5.2h-7.2v15.1C333.9,267.4,337.5,267.4,337.5,267.4z M337.5,255.2h3.2
			c1.5,0,2.4,0.9,2.4,2.3c0,1.2-0.8,2.3-2.4,2.3h-3.2C337.5,259.7,337.5,255.2,337.5,255.2z M346.3,267.4h3.8l1.3-2.8h7.4l1.3,2.8
			h3.8l-6.9-15.1h-3.8C353.2,252.3,346.3,267.4,346.3,267.4z M355.1,256.4l2.4,5.3h-4.8C352.7,261.7,355.1,256.4,355.1,256.4z
			 M369.4,264.4v-12.2h-3.6v15.1h10.9v-2.9C376.7,264.4,369.4,264.4,369.4,264.4z M384.7,252.3v15.1h6.5c4.8,0,7.9-3,7.9-7.5
			c0-4.4-3.1-7.5-7.9-7.5C391.2,252.3,384.7,252.3,384.7,252.3z M388.4,264.4v-9.2h2.9c2.6,0,4.3,1.9,4.3,4.6c0,2.7-1.8,4.6-4.3,4.6
			C391.2,264.4,388.4,264.4,388.4,264.4z M401.7,267.4h11.8v-2.9h-8.2v-3.3h7.1v-2.8h-7.1v-3.3h8.2v-2.9h-11.8
			C401.7,252.3,401.7,267.4,401.7,267.4z"/>
		<path class="st4" d="M10.9,318.5c2,1.3,8.8,5.3,20.2,5.3c12.5,0,19.6-6.3,19.7-14.6c0.1-14.9-25.4-12.8-25.4-16.9
			c0-0.8,1-1.6,4.5-1.6c7.7,0,12.3,2.1,14.3,3.5l5.7-9.6c-2.5-1.6-8.1-5.2-20.1-5.2c-12.8,0-18.7,6.1-18.7,13
			c0,15.2,25.4,13.3,25.4,18.1c0,1.5-1.9,2-4.7,2c-8.3,0-12.9-2.8-15.2-4.2C16.8,308.3,10.9,318.5,10.9,318.5z M52.7,323.2h14.9
			l2.7-6h18.3l2.6,6h14.9l-19.2-43.3H72C72,279.9,52.7,323.2,52.7,323.2z M75.2,305.9l4.3-9.8l4.3,9.8
			C83.7,305.9,75.2,305.9,75.2,305.9z M110.5,323.2h14.2v-20.3l14.5,20.3h14.2v-43.3h-14.2V300l-14.5-20.1h-14.2V323.2z
			 M170.8,291.2v32H185v-32h12.5v-11.3h-39.2v11.3C158.3,291.2,170.8,291.2,170.8,291.2z M195.7,323.2h14.9l2.7-6h18.3l2.6,6h14.9
			l-19.2-43.3h-14.9L195.7,323.2z M218.1,305.9l4.3-9.8l4.3,9.8C226.6,305.9,218.1,305.9,218.1,305.9z M269.4,323.2h14.2v-20.5
			l11.5,17.6l11.7-17.6v20.5h14.2v-43.3h-14.2l-11.7,17l-11.5-17h-14.2C269.4,279.9,269.4,323.2,269.4,323.2z M325.4,323.2h14.9
			l2.7-6h18.3l2.6,6h14.9l-19.2-43.3h-14.9L325.4,323.2z M347.9,305.9l4.3-9.8l4.3,9.8H347.9z M383.1,323.2h14.2v-11.5h3.1l7.7,11.5
			h16.1l-9.2-13.8c4.9-2.7,7.6-7.7,7.6-13.6c-0.1-8.9-6.2-15.9-16.9-15.9h-22.6V323.2L383.1,323.2z M404.8,291.2
			c2.8,0,4.3,2.3,4.3,4.6c0,2.2-1.4,4.5-4.3,4.5h-7.5v-9.1H404.8z M443,279.9h-14.2v43.3H443V279.9z M447.7,323.2h14.9l2.7-6h18.3
			l2.6,6h14.9l-19.2-43.3h-14.9L447.7,323.2z M470.1,305.9l4.3-9.8l4.3,9.8H470.1z"/>
		<path class="st4" d="M45.3,326.9v35.8h16.3c12,0,19.2-7.1,19.2-17.9c0-10.4-7.3-17.9-19.2-17.9L45.3,326.9
			C45.3,326.9,45.3,326.9,45.3,326.9z M61.6,336.3c4.4,0,7.5,3.5,7.5,8.6c0,4.9-3.2,8.6-7.5,8.6h-4.5v-17.1
			C57.1,336.3,61.6,336.3,61.6,336.3z M103.5,363.3c11.3,0,19.6-8.2,19.6-18.6c0.1-10.2-8.2-18.3-19.6-18.3
			c-11.3,0-19.6,8-19.6,18.3C83.9,355,92.2,363.3,103.5,363.3z M95.6,344.8c0-4.7,3.5-8.3,7.9-8.3c4.3,0,7.8,3.5,7.8,8.3
			c0.1,4.9-3.5,8.6-7.8,8.6C99.2,353.3,95.6,349.6,95.6,344.8z M149.2,336.3v26.5H161v-26.5h10.4v-9.3h-32.4v9.3H149.2L149.2,336.3z
			 M191.7,363.3c11.3,0,19.6-8.2,19.6-18.6c0.1-10.2-8.2-18.3-19.6-18.3c-11.3,0-19.6,8-19.6,18.3
			C172.1,355,180.4,363.3,191.7,363.3z M183.8,344.8c0-4.8,3.5-8.3,7.9-8.3c4.3,0,7.8,3.5,7.8,8.3c0.1,4.9-3.5,8.6-7.8,8.6
			C187.4,353.3,183.8,349.6,183.8,344.8z M233.9,363.2c9.3,0,14.5-5.2,16-8.3l-7.6-5.2c-0.8,1.5-2.7,4-7.9,4c-4.5,0-8.4-3.4-8.4-8.8
			c0-5.5,4-9.1,8.5-9c4.2,0.1,6.4,2.1,7.5,3.8l7.8-5.7c-2.3-3.8-7.8-7.5-16-7.5c-10.6,0-19.6,7.3-19.6,18.4
			C214.3,356.2,223.2,363.2,233.9,363.2z M251.7,362.7h12.4l2.2-5h15.2l2.1,5h12.3L280,326.9h-12.4L251.7,362.7z M270.3,348.5
			l3.5-8.1l3.5,8.1H270.3C270.3,348.5,270.3,348.5,270.3,348.5z M299.5,362.7h11.7V346l12,16.8H335v-35.8h-11.7v16.6l-12-16.6h-11.7
			V362.7z M349.4,336.3v26.5h11.7v-26.5h10.4v-9.3H339v9.3H349.4C349.4,336.3,349.4,336.3,349.4,336.3z M387.6,326.9h-11.7v35.8
			h11.7C387.6,362.7,387.6,326.9,387.6,326.9z M394,362.7h11.7V346l12,16.8h11.7v-35.8h-11.7v16.6l-12-16.6H394V362.7z M433.5,358.9
			c1.7,1.1,7.3,4.4,16.8,4.4c10.3,0,16.2-5.2,16.3-12.1c0.1-12.3-21-10.6-21-14c0-0.7,0.8-1.3,3.7-1.3c6.4,0,10.2,1.7,11.8,2.9
			l4.8-7.9c-2.1-1.3-6.7-4.3-16.6-4.3c-10.6,0-15.5,5.1-15.5,10.8c0,12.6,21,11,21,15c0,1.2-1.5,1.6-3.9,1.6
			c-6.8,0-10.7-2.3-12.6-3.5C438.4,350.5,433.5,358.9,433.5,358.9z"/>
		<path class="st3" d="M68.2,379.2c0,0.9,0.8,1.6,1.6,1.6c0.9,0,1.6-0.7,1.6-1.6c0-0.7-0.4-1.2-1-1.4c0.1-0.4,0.3-0.9,0.5-1.2
			l-1.2-0.6C69.1,376.6,68.2,378.1,68.2,379.2z M73.4,379.2c0,0.9,0.8,1.6,1.6,1.6c0.9,0,1.6-0.7,1.6-1.6c0-0.7-0.4-1.2-1-1.4
			c0.1-0.4,0.3-0.9,0.5-1.2L75,376C74.3,376.6,73.4,378.1,73.4,379.2z M79,376.1V388h9.3v-2.3h-6.5v-2.6h5.6V381h-5.6v-2.6h6.5v-2.3
			H79z M81.3,374.9h1.8l2.4-1.6l-1.2-1.2L81.3,374.9z M93.9,378.5h3.7v9.6h2.9v-9.6h3.7v-2.3H93.9C93.9,376.1,93.9,378.5,93.9,378.5
			z M105.7,388h9.3v-2.3h-6.5v-2.6h5.6V381h-5.6v-2.6h6.5v-2.3h-9.3V388z M117.2,388h2.9v-7.3l3.7,5.8l3.8-5.8v7.3h2.9v-11.9h-2.9
			l-3.7,5.6l-3.7-5.6h-2.9C117.2,376.1,117.2,388,117.2,388z M135.8,388v-3.7h2.8c2.7,0,4.3-1.9,4.3-4.1c0-2.3-1.7-4.1-4.3-4.1H133
			V388C133,388,135.8,388,135.8,388z M135.8,378.5h2.5c1.2,0,1.9,0.7,1.9,1.8c0,1-0.6,1.8-1.9,1.8h-2.5V378.5z M144.2,382.1
			c0,3.4,2.8,6.2,6.4,6.2c3.6,0,6.4-2.7,6.4-6.2c0-3.4-2.8-6.1-6.4-6.1C147,376,144.2,378.6,144.2,382.1z M147.1,382.1
			c0-2,1.6-3.7,3.6-3.7c2,0,3.6,1.6,3.6,3.7c0,2-1.6,3.7-3.6,3.7C148.7,385.8,147.1,384.1,147.1,382.1z M163.5,376.1V388h5.1
			c3.8,0,6.3-2.4,6.3-5.9c0-3.4-2.5-5.9-6.3-5.9C168.6,376.1,163.5,376.1,163.5,376.1z M166.3,385.7v-7.3h2.3c2,0,3.4,1.5,3.4,3.6
			c0,2.1-1.4,3.6-3.4,3.6C168.6,385.7,166.3,385.7,166.3,385.7z M176.9,388h9.3v-2.3h-6.5v-2.6h5.6V381h-5.6v-2.6h6.5v-2.3h-9.3V388
			z M198.6,388.2c2.6,0,4.3-1.3,5-2.5l-1.8-1.3c-0.5,0.7-1.4,1.5-3.1,1.5c-2,0-3.7-1.5-3.7-3.8c0-2.3,1.7-3.8,3.7-3.8
			c1.5,0,2.4,0.7,3,1.4l1.9-1.4c-1-1.3-2.7-2.3-5.1-2.3c-3.5,0-6.4,2.4-6.4,6.1C192.2,385.9,195,388.2,198.6,388.2z M208.4,388v-3.7
			h1.9l2.6,3.7h3.2l-2.9-4.1c1.6-0.6,2.5-2,2.5-3.7c0-2.3-1.7-4.1-4.3-4.1h-5.9V388C205.5,388,208.4,388,208.4,388z M208.4,378.5
			h2.8c1.2,0,1.9,0.7,1.9,1.8c0,1-0.6,1.8-1.9,1.8h-2.8V378.5z M217.8,388h9.3v-2.3h-6.5v-2.6h5.6V381h-5.6v-2.6h6.5v-2.3h-9.3V388z
			 M228.5,386.6c0.5,0.4,2.2,1.6,5.5,1.6c3.2,0,5.1-1.6,5.1-3.8c0-4.3-7.6-3.1-7.6-5.1c0-0.5,0.4-1,2.1-1c2.2,0,3.4,0.7,4,1.1l1.2-2
			c-0.7-0.5-2.2-1.4-5.2-1.4c-3.4,0-4.9,1.6-4.9,3.4c0,4.3,7.6,3.1,7.6,5.3c0,0.8-0.8,1.3-2.1,1.3c-2.4,0-3.8-1-4.3-1.3
			C229.8,384.6,228.5,386.6,228.5,386.6z M246.8,388.2c2.6,0,4.3-1.3,5-2.5l-1.8-1.3c-0.5,0.7-1.4,1.5-3.1,1.5c-2,0-3.7-1.5-3.7-3.8
			c0-2.3,1.7-3.8,3.7-3.8c1.5,0,2.4,0.7,3,1.4l1.9-1.4c-1-1.3-2.7-2.3-5.1-2.3c-3.5,0-6.4,2.4-6.4,6.1
			C240.4,385.9,243.3,388.2,246.8,388.2z M253.7,388h9.3v-2.3h-6.5v-2.6h5.6V381h-5.6v-2.6h6.5v-2.3h-9.3V388z M268,388v-3.7h1.9
			l2.6,3.7h3.2l-2.9-4.1c1.6-0.6,2.5-2,2.5-3.7c0-2.3-1.7-4.1-4.3-4.1h-5.9V388C265.2,388,268,388,268,388z M268,378.5h2.8
			c1.2,0,1.9,0.7,1.9,1.8c0,1-0.6,1.8-1.9,1.8H268V378.5z M281.9,388h9.3v-2.3h-6.5v-2.6h5.6V381h-5.6v-2.6h6.5v-2.3h-9.3V388z
			 M297.7,376.1V388h5.1c3.8,0,6.3-2.4,6.3-5.9c0-3.4-2.5-5.9-6.3-5.9C302.9,376.1,297.7,376.1,297.7,376.1z M300.6,385.7v-7.3h2.3
			c2,0,3.4,1.5,3.4,3.6c0,2.1-1.4,3.6-3.4,3.6C302.9,385.7,300.6,385.7,300.6,385.7z M311.1,388h9.3v-2.3H314v-2.6h5.6V381H314v-2.6
			h6.5v-2.3h-9.3V388z M321.9,386.6c0.5,0.4,2.2,1.6,5.5,1.6c3.2,0,5.1-1.6,5.1-3.8c0-4.3-7.6-3.1-7.6-5.1c0-0.5,0.4-1,2.1-1
			c2.2,0,3.4,0.7,4,1.1l1.2-2c-0.7-0.5-2.2-1.4-5.2-1.4c-3.4,0-4.9,1.6-4.9,3.4c0,4.3,7.6,3.1,7.6,5.3c0,0.8-0.8,1.3-2.1,1.3
			c-2.4,0-3.8-1-4.3-1.3C323.1,384.6,321.9,386.6,321.9,386.6z M334.3,388h9.3v-2.3h-6.5v-2.6h5.6V381h-5.6v-2.6h6.5v-2.3h-9.3V388z
			 M345.7,376.1V388h2.9v-7.4l5.3,7.4h3v-11.9H354v7.4l-5.4-7.4H345.7z M358.7,376.1l5.5,11.9h3l5.5-11.9h-3l-4,8.6l-3.9-8.6H358.7z
			 M373.2,382.1c0,3.4,2.8,6.2,6.4,6.2c3.6,0,6.4-2.7,6.4-6.2c0-3.4-2.8-6.1-6.4-6.1C375.9,376,373.2,378.6,373.2,382.1z M376,382.1
			c0-2,1.6-3.7,3.6-3.7c2,0,3.6,1.6,3.6,3.7c0,2-1.6,3.7-3.6,3.7C377.6,385.8,376,384.1,376,382.1z M390.8,385.7v-9.6H388V388h8.6
			v-2.3L390.8,385.7L390.8,385.7z M396.4,376.1l5.5,11.9h3l5.5-11.9h-3l-4,8.6l-3.9-8.6H396.4z M412.1,388h9.3v-2.3H415v-2.6h5.6
			V381H415v-2.6h6.5v-2.3h-9.3V388z M426.4,388v-3.7h1.9l2.6,3.7h3.2l-2.9-4.1c1.6-0.6,2.5-2,2.5-3.7c0-2.3-1.7-4.1-4.3-4.1h-5.9
			V388C423.6,388,426.4,388,426.4,388z M426.4,378.5h2.8c1.2,0,1.9,0.7,1.9,1.8c0,1-0.6,1.8-1.9,1.8h-2.8
			C426.4,382,426.4,378.5,426.4,378.5z M436.3,379c-0.1,0.4-0.3,0.9-0.5,1.2l1.2,0.6c0.7-0.6,1.6-2.1,1.5-3.3c0-0.9-0.8-1.6-1.6-1.6
			c-0.9,0-1.6,0.7-1.6,1.6C435.3,378.2,435.7,378.8,436.3,379z M441.5,379c-0.1,0.4-0.3,0.9-0.5,1.2l1.2,0.6
			c0.7-0.6,1.6-2.1,1.5-3.3c0-0.9-0.8-1.6-1.6-1.6c-0.9,0-1.6,0.7-1.6,1.6C440.5,378.2,440.9,378.8,441.5,379z"/>
		<path class="st3" d="M159.9,411.9h3.8l1.3-2.8h7.4l1.3,2.8h3.8l-6.9-15.1h-3.8C166.8,396.8,159.9,411.9,159.9,411.9z M168.7,400.9
			l2.4,5.3h-4.8L168.7,400.9z M179.4,396.8v15.1h6.5c4.8,0,7.9-3,7.9-7.5c0-4.4-3.1-7.5-7.9-7.5
			C185.8,396.8,179.4,396.8,179.4,396.8z M183,408.9v-9.2h2.9c2.6,0,4.3,1.9,4.3,4.6c0,2.7-1.8,4.6-4.3,4.6
			C185.8,408.9,183,408.9,183,408.9z M196.3,411.9h3.6v-9.3l4.7,7.3l4.8-7.3v9.3h3.6v-15.1h-3.7l-4.7,7.1l-4.7-7.1h-3.7V411.9z
			 M216.2,410.1c0,1.1,0.9,2,2.1,2c1.1,0,2.1-0.9,2.1-2c0-1-1-2-2.1-2C217.1,408.1,216.2,409,216.2,410.1z M216.2,402.9
			c0,1.1,0.9,2,2.1,2c1.1,0,2.1-0.9,2.1-2c0-1.1-1-2-2.1-2C217.1,400.9,216.2,401.8,216.2,402.9z M228.2,399.7l2.3,1.9
			c0,0,1.3-2.1,3.5-2.1c1.2,0,1.9,0.5,1.9,1.6c0,1.9-2.5,4.1-4.1,5.7l-2.9,2.8v2.4h10.5v-2.9h-5.5l1.3-1.3c2-2,4.2-4.1,4.2-6.8
			c0-2.3-1.9-4.4-5.4-4.4C231.1,396.5,229.2,398.2,228.2,399.7L228.2,399.7z M247.6,412.1c4.9,0,6.3-3.8,6.3-7.8
			c0-3.9-1.4-7.8-6.3-7.8c-4.8,0-6.3,3.8-6.3,7.8C241.2,408.3,242.3,412.1,247.6,412.1C247.6,412.1,247.6,412.1,247.6,412.1z
			 M247.6,399.5c2,0,2.7,1.9,2.7,4.8c0,3-0.7,4.8-2.7,4.8c-2,0-2.7-1.9-2.7-4.8C244.9,401.3,245.6,399.5,247.6,399.5z M255.7,399.7
			l2.3,1.9c0,0,1.3-2.1,3.5-2.1c1.2,0,1.9,0.5,1.9,1.6c0,1.9-2.5,4.1-4.1,5.7l-2.9,2.8v2.4h10.5v-2.9h-5.5l1.3-1.3
			c2-2,4.2-4.1,4.2-6.8c0-2.3-1.9-4.4-5.4-4.4C258.6,396.5,256.8,398.2,255.7,399.7L255.7,399.7z M268.1,400l1.8,2.4l2-1.5v11h3.6
			v-15.1h-3C272.6,396.8,268.1,400,268.1,400z M293.7,394.8l-2.8,0l-9,18.9h2.8L293.7,394.8z M299.1,399.7l2.3,1.9
			c0,0,1.3-2.1,3.5-2.1c1.2,0,1.9,0.5,1.9,1.6c0,1.9-2.5,4.1-4.1,5.7l-2.9,2.8v2.4h10.5v-2.9h-5.5l1.3-1.3c2-2,4.2-4.1,4.2-6.8
			c0-2.3-1.9-4.4-5.4-4.4C302,396.5,300.1,398.2,299.1,399.7L299.1,399.7z M318.5,412.1c4.9,0,6.3-3.8,6.3-7.8
			c0-3.9-1.4-7.8-6.3-7.8c-4.8,0-6.3,3.8-6.3,7.8C312.1,408.3,313.3,412.1,318.5,412.1C318.5,412.1,318.5,412.1,318.5,412.1z
			 M318.5,399.5c2,0,2.7,1.9,2.7,4.8c0,3-0.7,4.8-2.7,4.8c-2,0-2.7-1.9-2.7-4.8C315.8,401.3,316.5,399.5,318.5,399.5z M326.6,399.7
			l2.3,1.9c0,0,1.3-2.1,3.5-2.1c1.2,0,1.9,0.5,1.9,1.6c0,1.9-2.5,4.1-4.1,5.7l-2.9,2.8v2.4h10.5v-2.9h-5.5l1.3-1.3
			c2-2,4.2-4.1,4.2-6.8c0-2.3-1.9-4.4-5.4-4.4C329.5,396.5,327.7,398.2,326.6,399.7L326.6,399.7z M339.3,408.9h7.9v3h3.6v-3h1.3V406
			h-1.3v-9.2h-3.3l-8.2,9.8V408.9z M343.7,406l3.5-4.3v4.3H343.7z"/>
		<path class="st5" d="M29.5,242.4c47.5-37,98.7-39.2,154.3,1.1c39.8-32.4,104.4-36,144.8-0.9c54.5-40.3,106.3-37.6,155.9,1
			c-34.1-45.1-101.8-62.1-155.3-17.3c-40.1-35.1-105.7-35.7-145,0C147.6,191.3,73.6,189.3,29.5,242.4
			C29.5,242.4,29.5,242.4,29.5,242.4z"/>
		<path class="st5" d="M373,150c-0.4,0.4-0.9,1.2-1.5,1.9c-0.7,0.7-1.4,1.5-2.2,2c-0.7,0.5-1.4,0.9-2.2,1.2c-0.9,0.3-1.9,0.5-3,0.5
			c-1.1,0-2.1-0.3-3.1-0.9c-0.9-0.6-1.8-1.4-2.5-2.4c-0.7-1-1.4-2.2-1.7-2.9c-0.3-0.7-0.4-1-0.4-1.1c0-0.1,0-0.1,0-0.1s0,0-0.3,0
			c-0.3,0-0.8-0.1-1.4-0.4c-0.6-0.3-1.2-0.9-1.8-1.6c-0.5-0.8-1-1.7-1.4-2.9c-0.4-1.1-0.7-2.5-0.8-3.8c-0.1-1.3,0.1-2.7,0.4-3.8
			c0.3-1.1,0.8-2,1.4-2.8c0.6-0.7,1.5-1.3,2-1.6c0.5-0.3,0.8-0.4,0.9-0.4c0.1,0,0.1,0,0.1,0s0,0,0-0.4c0-0.4-0.1-1.2,0-1.9
			c0.1-0.7,0.4-1.4,0.9-2s1.4-1.3,2.6-1.9c1.2-0.6,2.8-1.1,4.1-1.4c1.3-0.3,2.3-0.5,3.2-0.5c0.8,0,1.5,0,2.1,0.1s1.2,0.3,1.5,0.4
			c0.4,0.1,0.6,0.3,0.7,0.3c0.1,0.1,0.1,0.1,0.1,0.1s0,0,0.1-0.2c0.1-0.2,0.3-0.5,0.8-0.7c0.5-0.2,1.3-0.4,2-0.4
			c0.7,0,1.5,0.2,2.4,0.6c0.9,0.5,2,1.2,3.2,2.2c1.1,1,2.3,2.2,2.9,3.2c0.7,0.9,0.9,1.5,1,2.1c0.1,0.5,0.1,1,0,1.4
			c-0.1,0.4-0.2,0.6-0.3,0.8s-0.3,0.3-0.3,0.4c-0.1,0.1-0.1,0.1-0.1,0.1s0,0,0.4,0.2c0.4,0.2,1.1,0.6,1.6,1.2c0.6,0.6,1,1.4,1.4,2.2
			c0.3,0.8,0.5,1.6,0.6,2.4c0.1,0.9,0.1,1.8,0,2.9c-0.2,1.1-0.5,2.4-1,3.5c-0.4,1-1,1.8-1.5,2.5c-0.5,0.7-1.1,1.2-1.6,1.6
			c-0.5,0.3-0.9,0.5-1.4,0.6c-0.4,0.1-0.9,0.1-1.4,0c-0.5-0.1-0.9-0.2-1.4-0.4c-0.5-0.2-0.9-0.4-1.2-0.6c-0.3-0.2-0.5-0.2-0.6-0.3
			l-0.1-0.1l0.2,0.6c1.1,3,2.9,8.7,4.7,15.3c1.7,6.5,3.3,13.8,4.3,19.5c1,5.7,1.4,9.6,1.6,11.6c0.2,2,0.2,2,0.2,2s0,0-0.4,0
			c-0.4,0-1.1,0.1-2.7,0.4s-4.2,0.8-5.5,1.1c-1.3,0.3-1.3,0.3-1.3,0.3s0,0,0-1.5c0-1.5,0-4.5-0.3-9.4c-0.2-4.9-0.7-11.8-1.2-17.5
			c-0.5-5.7-1-10.3-1.5-14c-0.5-3.1-1-5.7-1.3-7.5C373.1,149.8,373,149.8,373,150z"/>
		<path class="st5" d="M423.5,200c-2.1-0.7-4.1-1.3-6.2-2c1.6-9.4,6.3-18.5,11.8-27.9c-0.1,0-0.3,0.1-0.5,0.1
			c-0.5,0.1-1.1,0.2-1.7,0.1c-0.7-0.1-1.4-0.4-1.9-0.9c-0.5-0.5-0.7-1.1-0.8-1.8c-0.1-0.6-0.2-1.2-0.2-1.8c0-0.6,0-1.2,0.1-1.8
			c0.1-0.6,0.2-1.2,0.5-1.9c0.3-0.6,0.7-1.3,1.3-1.8c0.7-0.5,1.7-1,2.2-1.2c0.5-0.2,0.5-0.2,0.5-0.2s0,0,0-0.1
			c0-0.1-0.1-0.3-0.1-0.5c0-0.2,0-0.5,0.1-0.8c0.1-0.3,0.4-0.8,0.9-1.2c0.5-0.4,1.2-0.9,2-1.2c0.8-0.4,1.6-0.8,2.5-1
			c0.9-0.2,1.8-0.4,2.4-0.3c0.7,0,1.1,0.3,1.4,0.5s0.5,0.5,0.6,0.7c0.1,0.1,0.1,0.1,0.1,0.1s0,0,0.1,0c0.1,0,0.2-0.1,0.5-0.1
			c0.3,0,0.9,0,1.5,0.1c0.7,0.1,1.5,0.3,2.4,0.7s2,1,2.8,1.6c0.8,0.6,1.3,1.2,1.7,1.8c0.3,0.6,0.4,1.3,0.4,1.9
			c-0.1,0.6-0.3,1-0.5,1.2c-0.1,0.2-0.1,0.2,0,0.3c0.1,0,0.3,0.1,0.5,0.3c0.2,0.1,0.4,0.4,0.7,0.8c0.3,0.5,0.6,1.2,0.7,2
			c0.1,0.8-0.1,1.6-0.3,2.3c-0.2,0.7-0.4,1.2-0.8,1.8c-0.3,0.6-0.8,1.2-1.2,1.7c-0.5,0.5-0.9,1-1.4,1.3c-0.5,0.3-1,0.5-1.4,0.6
			c-0.4,0.1-0.8,0-0.9,0c-0.2,0-0.2,0-0.2,0s0,0-0.1,0c-0.1,0-0.2,0.1-0.5,0.5c-0.3,0.3-0.8,0.9-1.4,1.4c-0.6,0.5-1.2,0.9-1.8,1.1
			c-0.7,0.2-1.4,0.4-2,0.4c-0.6,0-1,0-1.5-0.1c-0.5-0.2-1.1-0.4-1.7-0.9c-0.6-0.5-1.2-1.2-1.7-2.1c-0.5-0.9-1-2.1-1.2-2.7
			C426.8,178.8,424.5,188.8,423.5,200L423.5,200z"/>
		<path class="st5" d="M408.6,158.2c0.3,0.4,0.7,0.9,1.2,1.5s1.1,1.2,1.7,1.6c0.6,0.4,1.1,0.7,1.8,0.9c0.7,0.2,1.5,0.4,2.4,0.4
			c0.8,0,1.7-0.2,2.4-0.7c0.7-0.5,1.4-1.1,2-1.9c0.6-0.8,1.1-1.7,1.4-2.3c0.3-0.6,0.3-0.8,0.3-0.9c0-0.1,0-0.1,0-0.1s0,0,0.2,0
			c0.2,0,0.6-0.1,1.1-0.3c0.5-0.2,1-0.7,1.4-1.3c0.4-0.6,0.8-1.4,1.1-2.3c0.3-0.9,0.5-1.9,0.6-3c0.1-1.1,0-2.1-0.3-3
			c-0.2-0.9-0.6-1.6-1.1-2.2c-0.5-0.6-1.2-1-1.6-1.3c-0.4-0.2-0.6-0.3-0.7-0.3c-0.1,0-0.1,0-0.1,0s0,0,0-0.3c0-0.3,0.1-1,0-1.5
			c-0.1-0.6-0.3-1.1-0.7-1.6c-0.4-0.5-1.1-1.1-2.1-1.5c-1-0.5-2.2-0.9-3.2-1.1c-1-0.3-1.9-0.4-2.5-0.4c-0.7,0-1.2,0-1.7,0.1
			c-0.5,0.1-0.9,0.2-1.2,0.3c-0.3,0.1-0.5,0.2-0.6,0.3c-0.1,0.1-0.1,0.1-0.1,0.1s0,0-0.1-0.1c-0.1-0.1-0.3-0.4-0.6-0.5
			c-0.4-0.2-1-0.3-1.6-0.3c-0.6,0-1.2,0.1-1.9,0.5c-0.7,0.4-1.6,1-2.5,1.7c-0.9,0.8-1.8,1.8-2.3,2.5c-0.5,0.7-0.7,1.2-0.8,1.6
			c-0.1,0.4-0.1,0.8,0,1.1c0.1,0.3,0.2,0.5,0.3,0.7c0.1,0.2,0.2,0.3,0.3,0.3c0.1,0.1,0.1,0.1,0.1,0.1s0,0-0.3,0.2
			c-0.3,0.2-0.8,0.5-1.3,0.9c-0.5,0.5-0.8,1.1-1.1,1.7c-0.3,0.6-0.4,1.2-0.5,1.9c-0.1,0.7-0.1,1.4,0,2.3c0.1,0.9,0.4,1.9,0.8,2.7
			c0.4,0.8,0.8,1.5,1.2,2c0.4,0.5,0.9,1,1.3,1.2c0.4,0.3,0.7,0.4,1.1,0.5c0.4,0.1,0.7,0.1,1.1,0c0.4,0,0.7-0.2,1.1-0.3
			c0.4-0.1,0.7-0.3,1-0.4c0.2-0.1,0.4-0.2,0.4-0.2l0.1,0l-0.2,0.5c-0.8,2.4-2.3,6.9-3.7,12.1c-1.4,5.2-2.6,10.9-3.4,15.4
			c-0.8,4.5-1.1,7.6-1.3,9.2c-0.2,1.6-0.2,1.6-0.2,1.6s0,0,0.3,0c0.3,0,0.8,0.1,2.1,0.3c1.3,0.2,3.3,0.7,4.3,0.9c1,0.2,1,0.2,1,0.2
			s0,0,0-1.2c0-1.2,0-3.5,0.2-7.4c0.2-3.9,0.5-9.3,0.9-13.8c0.4-4.5,0.8-8.1,1.2-11.1c0.4-2.5,0.8-4.5,1-5.9
			C408.5,158.1,408.6,158.1,408.6,158.2L408.6,158.2L408.6,158.2z"/>
		<path class="st1" d="M144.2,201.1l0.1-0.2l3.8-22.4l-14.9-11.7l-16.7,9.2l0.2,2.7l-13.5-7.8L90,181.1l0.8,4.3l-11-4.5l-9.1,9.2
			l4.2,15.1c2.5-1.1,5-2.2,7.6-3.1l-2.5-8.4c-0.2-0.6,0.2-1.1,0.7-1.3l4.7-1.4c0.6-0.2,1.1,0.1,1.3,0.7l2.5,8.3
			c4.6-1.3,9.3-2.2,14.2-2.8l-1.2-9.5c-0.1-0.6,0.3-1.1,0.9-1.2l4.9-0.6c0.6-0.1,1.1,0.3,1.2,0.9l1.2,9.8c1.5-0.1,3-0.1,4.4-0.1
			c3.7,0,7.3,0.2,10.9,0.6l0.9-12.4c0.1-0.8,0.8-1.5,1.6-1.4l7.1,0.5c0.8,0.1,1.5,0.8,1.4,1.6l-1,13.5
			C138.7,199.5,141.5,200.3,144.2,201.1C144.2,201.1,144.2,201.1,144.2,201.1z"/>
		<path class="st5" d="M183,187.8L183,187.8z M178.1,187.3L178.1,187.3z M171.4,181.3L171.4,181.3
			C171.4,181.4,171.3,181.4,171.4,181.3z M178.1,179.5l-0.3-0.3L178.1,179.5z M177.8,179.3L177.8,179.3z M175.5,136.5L175.5,136.5
			C175.6,136.6,175.5,136.5,175.5,136.5z M172.7,126L172.7,126C172.7,126,172.6,126,172.7,126z M178.1,187.3
			c0.8,0.6,1.6,0.7,2.3,1.3c0.7,0.7,1.1,1.3,2,1.9l2,1.6c0.7,0.7,1.2,1.3,2.5,1.3c-0.4-1.8-2.9-3.9-3.9-5.7h0.8
			c-0.4-0.8-5.3-6.9-5.7-8.2c0.3,0.2,1,0.9,1.2,0.9c2.4,0.7-0.7-3.3-1-3.7c-0.9-1-3.7-3.8-4.1-5c1.2,0.6,2.4,1.5,4.1,1.5
			c-0.2-0.9-0.2-0.6-0.8-1.3l-5.2-5.9c-0.6-0.6-1.5-1.7-2-2.4c0.7,0.2,1,0.6,1.6,1c0.6,0.5,5.9,3.8,4.7,1.3c-1-2.1-4.4-3.7-5.7-5.7
			c1.1,0.3,1.7,0.8,2.8,0.3c-0.3-1.1-0.8-1.2-1.5-1.8c-1.7-1.3-4.7-3.3-6.7-3.9v-0.5c0.1,0,0.1-0.1,0.2-0.1l3.4-1.6
			c0,0,0.1-0.1,0.1-0.1c0,0,0.1-0.1,0.1-0.1c1-0.7,0.7-0.8,1.3-1.8c0,0,0.1-0.1,0.1-0.1c0.6-0.8,1.2-0.8,1.7-1.7
			c0.2-0.3,0.2-0.5,0.4-0.9l2.2-4.5c-0.1-0.6-0.7-1.1-1.1-1.5l-0.7-0.8c2,0.5,2.1,0.1,3.9,0c-0.1-1-0.4-1.1-1.1-1.7
			c0,0-0.1-0.1-0.1-0.1c0,0-0.1-0.1-0.1-0.1c0,0-0.1-0.1-0.1-0.1c1.7,0,2.1,0.1,2.8-1c-0.5-0.7-1.6-0.9-2.3-1.5
			c2.1-0.5,2.2-0.2,3.1-2.1c-0.6-0.1-1.3-0.3-1.9-0.5l-1.2-0.3c-0.1,0-0.1-0.1-0.2-0.1l-0.3-0.2c2.1,0,3.7-0.4,4.1-2.1
			c-1.8-0.2-2.9-0.5-5.2-0.5v-0.3c3.3,0,8.1-2.8,3.9-2.9c-0.7,0-1.4,0-2.1,0c1.6-1.1,4.5-1.3,5.2-3.6c-2.9,0-5.5,1.3-8.2,1.5
			l1.1-0.7c7.3-3.8,10.5-8.3,0.5-3.6c-0.8,0.4-1.8,1-2.4,1.2c-1.1,0.3-1.3-0.3-2.8,0c1.2-1.8,4.7-3.1,4.1-5.7
			c-1,0.2-0.8,0.2-1.5,0.8c-2.6,2.4-5.3,4.6-7.7,7.2c-1.3,1.4-2,2.7-3.6,3.8c-0.9,0.7-1.7,1.6-2.1,2.8c-0.7,1.7-0.7,1.8-1.8,3.1
			c-0.4,0.6-0.7,0.8-1.2,1.4c-4.5,5.7-5.6,5.6-9.7,1.5c-4.9-4.9-9.2-1.9-8.1,1.4c0.4,1.1,1.5,1.9,2.3,2.6c0.3,0.3,0,0,0.3,0.2
			c0.9,0.8,1.6,1.5,1.9,2.7c-2.7,0.6-3.3,0.3-6.7,0.3c-2.8,0-4.3,0.3-6.8,0.7l-5.1,0.3c-1,0.1-0.7,0.2-1.8,0.3
			c-0.6,0-2.6-0.3-3.2-0.4c-1.3-0.3-1.9-0.9-2.7-1.1c0.2,1,0.3,1.3,1.3,1.5c-0.1,0-0.1,0-0.2,0.1c-0.1,0.3-0.1,0-0.3,0.2
			c-0.3,0.3-0.1-0.1-0.3,0.5l3.1,1.8c-0.8,0-1.4-0.2-1.8,0.2c-0.9,0.9,1.2,2.1,1.9,2.2c0.9,0.2,1.1-0.1,2-0.2
			c-0.5,0.9-0.8,1.2-0.8,2.6c1.5,0.8,2.9,0.7,4.4,0c0,1.5-0.2,2.1,1.1,2.3c1.3,0.3,1.9-0.3,2.5-0.7c0,1.5,0.1,1.9,1,2.6
			c1.3,0.9,1.5,0.6,2.3-0.6c0.3,1.3,0.9,2.2,2.3,2.3c0.2-0.7,0.1-0.6,0.5-1c0.2,1,0.5,1.8,1.5,2.1c0.8-0.6,0.8-1.3,0.8-2.6l1.4,2.2
			c0.7,0.6,1.2,0.2,1.9,0.7l1.1,0.6c1.5,0.4,1.1,0.9,4.7,0.6l2.8-0.3c0.2,0-0.1-0.1,0.5-0.1l3.1-0.6c0,0,0.9-0.6,1.1-0.7l2.5-1.4
			c1.1,2.4,2.5,9.1,4.6,10.6c1.2,0.8,0.5-0.5,1.4,1.2c0.6,1.1,1,2.2,1.8,3.1c1.4,1.6-0.1-1.3,2.2,2.4c1,1.6,3.5,7.3,5.5,7.4
			c-0.1-0.9-0.3-1.2-0.5-2.1c1,0.7,2.3,3.5,3.1,4.6c1,1.4,2.2,3.5,4.3,3.6C179,188.8,178.4,188.5,178.1,187.3z"/>
		<path class="st2" d="M342.4,184.7c0.4-0.3,0.9-0.4,1.4-0.2c0,0,0,0,0,0c0.4,0,0.7,0.2,1,0.5c0.6,0.7,1.3,1.6,1.7,2.4
			c0.2,0.4,0.2,0.8,0,1.1c0,0.3-0.1,0.6-0.3,0.8l-0.3,0.3l0.5,0.5l1.9-1.3l0.9-0.6l1-0.7l0.9-0.6l1.2-0.8l0.7-0.5l1-0.7
			c0.1-0.1,0.4-0.2,0.5-0.3c0.2-0.2,0.4-0.3,0.6-0.4l0.3-0.2c0.2-0.1,0.4-0.2,0.5-0.3c0,0,0,0,0.1,0l0.6-0.3
			c0.3-0.1,0.5-0.2,0.8-0.1c0.8,0.2,1,0.6,1.6,0.9c0.1,0,0.1,0.1,0.1,0.1c0.2,0.2,0.6,0.4,0.8,0.6c0.3,0.1,0.6,0.4,0.7,0.6
			c0.1,0.1,0.2,0.2,0.3,0.3c0,0,0,0,0,0.1l0.8,1c0.1,0.1,0.1,0.2,0.2,0.3l0.5,1.1l0.5-0.3c0.3-0.2,0.6-0.2,0.9-0.2l0.5-0.2
			c0.2-0.1,0.3-0.1,0.5-0.1c0.3,0,0.5-0.1,0.8-0.1c0.3-0.2,0.7-0.4,1.2-0.4c0.1,0,0.2,0,0.3,0c0.2,0,0.4,0,0.6,0.1
			c0.3,0.1,0.6,0.2,0.8,0.3c0.1,0,0.2,0,0.3,0.1c0.2,0,0.3,0.1,0.5,0.1c0.1,0,0.2,0,0.4,0.1c0.2,0.1,0.4,0.1,0.6,0.2
			c0.4-0.1,0.7,0,1.1,0.2l0,0c0.2,0.2,0.5,0.3,0.7,0.4c0.3,0.2,0.6,0.5,0.8,0.8c0.3,0.3,0.6,0.5,0.9,0.8c0.2,0.1,0.4,0.2,0.6,0.4
			l0.2,0.2c0,0,0.1,0.1,0.1,0.1l0.6,0.8c0.2,0.3,0.3,0.6,0.2,0.9c0.2,0.5,0.5,1,0.7,1.6c0.2,0.2,0.3,0.4,0.4,0.7l0.1,0.5
			c0,0.1,0,0.1,0,0.2l0,0.7c0,0.3,0,0.5-0.2,0.8c0,0,0,0,0,0.1c0,0.2,0,0.3,0,0.5c0,0,0,0.1,0,0.1l-0.2,1.4c0.2,0.6-0.1,1.1-0.4,1.8
			c-0.2,0.4-0.4,0.7-0.7,0.8l-0.5,0.7c-0.1,0.1-0.1,0.2-0.2,0.2l-0.5,0.5c-0.1,0.3-0.3,0.6-0.5,0.7l-1.1,0.7
			c-0.3,0.2-0.6,0.2-0.8,0.2c0,0-0.1,0-0.1,0.1l-1.3,0.4c-0.1,0-0.2,0.1-0.3,0.1c-0.1,0-0.1,0-0.2,0c-0.2,0.2-0.5,0.3-0.8,0.3
			c-0.4,0-0.9,0.1-1.2,0c-0.3,0-0.6-0.1-0.8-0.2c-0.2,0-0.3,0-0.5-0.1c-0.1,0-0.3,0-0.4-0.1l-0.4-0.1c-0.1,0-0.3,0-0.4-0.1l-0.2-0.1
			c-0.1,0-0.3,0-0.4,0c-0.1,0-0.2,0-0.3-0.1c-0.4-0.2-0.9-0.4-1.3-0.7c0,0,0,0,0,0c-0.1,0.1-0.1,0.1-0.2,0.2l0.3,0.6
			c0.3,0.2,0.5,0.4,0.6,0.8l0.4,1.3c0.1,0.3,0.1,0.6-0.1,0.9c0.2,0.2,0.3,0.6,0.3,0.9c0,0.3-0.1,0.5-0.2,0.8
			c0.1,0.2,0.2,0.5,0.2,0.7c0,0.6-0.1,1.2-0.3,1.7c-0.1,0.3-0.3,0.5-0.5,0.7c-0.2,0.6-0.3,1.1-0.7,1.6c0,0.4-0.1,0.7-0.4,1
			c-0.4,0.4-0.6,0.7-1.1,1c-0.2,0.2-0.5,0.2-0.7,0.2c-0.5,0.3-1,0.6-1.5,0.8c-0.2,0.2-0.4,0.4-0.6,0.4l-1.3,0.4
			c-0.4,0.1-0.8,0-1.1-0.2c-0.4,0-0.7,0-1,0c-0.2,0-0.4,0-0.6-0.1l0,0c-0.3,0.2-0.6,0.2-1,0.1c-0.2-0.1-0.4-0.1-0.6-0.2
			c-0.2,0-0.3-0.1-0.5-0.2c-0.4,0-0.8-0.3-1-0.7c-0.5-0.2-1-0.5-1.4-0.7c-0.3,0-0.7-0.1-1-0.3c-0.4-0.3-0.7-0.6-1-0.9
			c-0.2-0.2-0.3-0.4-0.4-0.7l-0.5-0.6c0,0,0,0-0.1-0.1l-0.3-0.4l-0.8,0.4c0,0,0,0-0.1,0c-0.1,0-0.3,0.1-0.3,0.2
			c-0.2,0.2-0.4,0.3-0.6,0.3c-0.2,0.1-0.4,0.2-0.6,0.3l0,0.1c0.2,0.6,0.4,1.3,0.2,1.8l0.1,0.6c0,0.2,0,0.3,0,0.5c0,0.2,0,0.3,0,0.4
			c0.3,0.3,0.4,0.7,0.3,1.1c0,0.2-0.1,0.5-0.1,0.7c0,0.2,0,0.3-0.1,0.4c0,0.3-0.2,0.6-0.5,0.8c0,0-0.1,0-0.1,0.1c0,0,0,0,0,0
			c0,0.2-0.1,0.4-0.3,0.6c0,0-0.1,0.1-0.1,0.1c-0.2,0.3-0.4,0.6-0.6,0.8c0,0.4-0.2,0.7-0.5,0.9l-0.5,0.3c-0.1,0-0.1,0.1-0.2,0.1
			l-0.6,0.3c-0.3,0.2-0.7,0.2-1.1,0c-0.6,0.1-1.2,0.2-1.8,0.2c-0.3,0.2-0.6,0.3-0.9,0.2c-0.5-0.1-0.9-0.2-1.4-0.4
			c-0.4-0.1-0.6-0.3-0.8-0.6c-0.5-0.2-0.9-0.4-1.4-0.7c-0.3,0-0.6,0-0.9-0.2l-0.7-0.5c-0.1,0-0.1-0.1-0.1-0.1
			c-0.2-0.2-0.4-0.3-0.5-0.5c-0.1-0.1-0.1-0.3-0.2-0.4c-0.1,0-0.1-0.1-0.2-0.2l-0.9-1c-0.3,0-0.5-0.2-0.8-0.4l-0.7-0.7
			c-0.1-0.1-0.1-0.1-0.1-0.2l-0.2-0.3c-0.2-0.3-0.3-0.6-0.2-1c0-0.1,0-0.1,0-0.1c-0.1-0.3-0.3-0.7-0.4-0.8c-0.1-0.1-0.2-0.2-0.2-0.4
			c-0.2-0.1-0.4-0.3-0.5-0.6l-0.2-0.5c0,0,0-0.1,0-0.1l-0.2-0.8c-0.1-0.3-0.1-0.6,0-0.9c-0.1-0.5-0.2-1.1-0.2-1.6
			c-0.2-0.2-0.3-0.5-0.3-0.8c0,0,0,0,0,0c0,0,0,0,0,0c-0.6-0.6-1-0.9-1.5-1.6c-0.1-0.1-0.1-0.2-0.1-0.4c-0.1-0.5-0.1-0.7,0-1.1
			c0,0,0-0.1,0-0.1c0-0.1,0.1-0.3,0.2-0.4l0.6-1c0-0.1,0.1-0.1,0.2-0.2c0.3-0.3,0.6-0.8,0.9-1.2c0.5-0.7,1.1-1.4,1.7-2c0,0,0,0,0,0
			l-1.5-2.8l-0.1-0.1c-0.1-0.2-0.2-0.4-0.3-0.6c0,0,0-0.1-0.1-0.1c-0.1-0.1-0.3-0.1-0.4-0.3c-0.1-0.1-0.1-0.1-0.2-0.2
			c-0.2-0.1-0.3-0.2-0.4-0.4l-0.1-0.2c-0.3-0.4-0.7-0.9-0.8-1.4c-0.2-0.5-0.1-0.8,0.1-1.3c0-0.3,0.1-0.6,0.3-0.8l1.2-2.2
			c0.1-0.1,0.2-0.2,0.3-0.3c0.1-0.1,0.2-0.4,0.3-0.5c0.1-0.1,0.1-0.2,0.2-0.3c0.2-0.3,0.4-0.7,0.6-1l0.5-0.8
			c-0.2-0.3-0.4-0.7-0.4-1.1c0-0.5,0.1-0.8,0.3-1.2c0.1-0.2,0.2-0.4,0.4-0.5l0.3-0.2c0.2-0.1,0.4-0.2,0.7-0.2c0.8,0,1.1-0.1,1.8,0.5
			c0.1,0.1,0.1,0.1,0.2,0.2l1.5-1c0.1-0.1,0.2-0.1,0.3-0.2l1.2-0.6c0,0,0,0,0.1,0c0.1-0.1,0.4-0.2,0.5-0.3c0.1-0.1,0.2-0.2,0.4-0.3
			l0.8-0.3c0.3-0.1,0.5-0.2,0.8-0.3c0.5-0.2,1.1-0.4,1.6-0.6c1.2-0.4,1.7-0.7,2.7,0.3c0.2,0.2,0.3,0.3,0.4,0.5L342.4,184.7
			L342.4,184.7z M332.4,197.8l-0.5-0.1c0,0-0.1,0.1-0.1,0.1c-0.9,0.7-1.9,1-2.8,0c-0.2-0.2-0.3-0.4-0.4-0.6l0,0l1.3,2.3
			c0,0,0,0.1,0,0.1c0.1,0.1,0.2,0.4,0.3,0.5c0.1,0.1,0.2,0.2,0.3,0.3c0.6-0.3,1.2-0.6,1.8-1c0.2-0.1,0.4-0.2,0.5-0.2
			c-0.1-0.1-0.1-0.2-0.2-0.3c-0.2-0.3-0.3-0.7-0.1-1C332.4,197.9,332.4,197.8,332.4,197.8z M335.7,190.9c-0.6,0.3-1.3,0.7-1.9,1.1
			l0.9,1.4c0.1,0.1,0.2,0.3,0.3,0.4c0-0.3,0.2-0.6,0.5-0.9c0.2-0.1,0.5-0.3,0.8-0.5C336.3,192.4,335.7,190.9,335.7,190.9z
			 M339,189.1c0.4,0.5,1,1.9,1.4,2.3c0,0,0.1,0,0.1,0l0.9-0.6c0.2-0.2,0.5-0.2,0.8-0.2l-1.3-1.3l-0.7-0.8l-0.5,0.2
			C339.7,188.8,339,189.1,339,189.1z"/>
		<path class="st5" d="M362,212.1c-0.5-0.7-1.9-0.6-2.7-0.1c0.2,0.2,1,0.2,1.3,0.1C361,212.2,361.7,212.2,362,212.1z M329.3,188.7
			l-0.3,0.2c-0.1,0.2-0.2,0.3-0.2,0.6c0,0.2,0.2,0.5,0.3,0.7l0.4,0.6l-0.1,0.2c-0.1,0.1-0.1,0.1-0.2,0.2l-0.7,1
			c-0.2,0.3-0.5,0.8-0.7,1.1c-0.1,0.2-0.4,0.8-0.6,0.9l-1.3,2.4l-0.1,0.1c0,0.3-0.2,0.5-0.1,0.9c0.1,0.4,0.4,0.8,0.7,1.1l0.1,0.2
			c0.1,0,0.2,0.2,0.4,0.3c0.2,0.1,0.3,0.1,0.4,0.2c0.2,0.1,0.5,0.7,0.5,0.9l0.1,0.2l2.1,3.7c0,0,0.1-0.2,0.1-0.2
			c0.1-0.1,0-0.1,0.2,0c0,0.1-0.9,0.8-1,0.9c-1.4,1.3-2,2.5-2.6,3.1l-0.6,1c0,0,0,0,0,0c0,0,0,0,0,0c0,0.1,0,0,0,0.1
			c-0.1,0.2-0.1,0.2,0,0.5c0.4,0.7,0.8,0.9,1.3,1.4l0.2,0.1l0.2-0.3c0-0.1,0,0,0-0.2l0.3-0.5l-0.7-0.7c0.3-0.5,0.8-1.2,1.5-1.5
			c0.4-0.1,0.3,0,0.5,0.3c-0.8,0.8-1,1.7-1.2,2.4c-0.2,0-0.1,0-0.3,0.1c0,0.2,0,0,0,0.2c0.1,0.2,0,0.3,0,0.6c0,0.2,0,0.4,0,0.6
			c0.2,0.1,0.1,0,0.3,0.1c0,0.7,0.2,1.9,0.4,2.6l-0.3,0.1l0.2,0.8l0.2,0.5l0.3,0c0.1,0.2,0.2,0.4,0.2,0.6c0.3,0.3,0.5,0.8,0.7,1.2
			c0.3,0.4,0.6,0.9,0.9,1.3l-0.6-0.7l-0.3,0.2l0.2,0.3l0.7,0.7c0.2,0,0.1,0,0.3-0.1l1.4,1.5c0.1,0,0.5,0.3,0.5,0.4
			c0,0.3-0.2,0,0,0.3c0,0,0.3,0.3,0.3,0.3l0.7,0.5l0.2-0.2c0.8,0.6,1.6,0.9,2.4,1.2c0,0.2-0.1,0.1,0,0.3c0.4,0.1,0.8,0.3,1.3,0.3
			c0.1-0.2,0-0.1,0.1-0.3c2,0.2,2.3-0.2,2.6-0.2c0.2,0,0.3,0.2,0.3,0.1c0,0,0,0,0,0l0.6-0.3l0.5-0.3c0-0.2,0-0.1-0.1-0.3
			c0.9-0.8,0.7-1,1.1-1.4c0-0.1,0.2-0.7,0.3-0.9c0.3-0.1,0.1,0.1,0.4-0.1c0-0.1,0-0.1,0-0.2c0-0.1,0.1-0.9,0.1-1.1
			c-0.2-0.2-0.1,0-0.3-0.2c0.1-0.4-0.1-1,0-1.3l-0.3-1.4c0.2-0.1,0.4,0.1,0-1l-0.1-0.4c-0.1-0.1-0.1,0-0.2,0l-0.2,0l-0.2-0.5
			l0.9-0.5c0.3-0.2,1-0.7,1.3-0.7c0.2-0.2,0.4-0.3,0.7-0.4l1.4-0.8l0.4,0l0.8,1.1l0.9,1c0,0.1,0,0,0,0.1c0,0,0,0-0.1,0.1
			c0.2,0.2,0.6,0.6,0.9,0.7c0.3,0.2,0.2-0.1,0.5,0c0,0,1.7,1.1,2.3,1.2c0.1,0.3,0,0.1,0,0.4c0.2,0,0.5,0.1,0.7,0.2
			c0.2,0.1,0.4,0.1,0.6,0.2c0.1-0.2,0-0.1,0.1-0.2l0.8,0.1c0.2,0.1,0.2,0,0.4,0c0.3,0,1.1,0,1.5,0l0.1,0.3l1.3-0.4c0,0,0-0.1,0-0.1
			c0-0.1,0,0,0-0.1c0.9-0.3,1.5-0.7,2.3-1.3c0.2,0,0.1,0,0.2,0.1c0.4-0.3,0.6-0.6,0.9-0.9c-0.3-0.1-1.8,0.1-2.3-0.2
			c0.7-0.5,1.8-0.5,2.2-0.2c0.7-0.6,0.9-1.9,1.1-2.3c0.2,0,0.1,0,0.3,0c0.2-0.4,0.2-0.9,0.2-1.4l-0.1,0c0,0,0,0,0,0l-0.1,0
			c0-0.2,0-0.6,0.1-0.8c0.1-0.2,0.2-0.5,0.2-0.7c-0.5-0.3-0.1-0.1-0.4-1.2l0.3-0.1l-0.4-1.3l-0.3,0l-0.7-1.4c0,0.1,0,0.1,0,0.1
			c0,0.3,0,0.7-0.1,1.3c-0.1,0.4-0.2,0.9-0.5,1.3c-0.4-0.7,0.1-2.3,0.3-3c0-0.1,0.1-0.3,0.1-0.3c0.1-0.2,0.4-0.4,0.5-0.6
			c0.4-0.3,0.8-0.8,1.2-1.1c0.2,0.1,0.4,0.2,0.5,0.4c0.5,0.4-0.2,0.1,0.3,0.4c0.2,0.1,0.8,0.4,1,0.5c0.2,0,0-0.2,0.5,0l0.5,0.2
			c0,0,0,0,0.1,0l0.5,0.1c0.2,0.1,0.4,0.1,0.6,0.2c0.1,0,0.4-0.1,0.5,0c0.2,0.1-0.1,0.2,0.3,0.2c0.2,0,0.7,0,1,0
			c0.5-0.1-0.2-0.2,0.5-0.3c0.1,0,0.5-0.1,0.6-0.1l1.3-0.4c0.1-0.1,0.2-0.2,0.4-0.2c0.3-0.1,0-0.1,0.3,0.1l1.1-0.7l0-0.2l0.9-0.9
			l0.7-1.1c0.2-0.3,0.1,0.2,0.4-0.4c0.5-0.9,0.3-0.8,0.2-1.1l0.3-1.7c0.1-0.6,0-0.8,0.1-1c0,0,0.1,0.1,0.1,0c0,0,0,0,0,0l0-0.7
			l-0.1-0.5c-0.2-0.1-0.1,0.1-0.2-0.1c0,0-0.1-0.3-0.1-0.3c-0.3-1-0.6-1.4-0.9-2.1l0.2-0.1l-0.6-0.8l-0.2-0.2l-0.2,0
			c-0.5-0.5-0.8-0.9-1.3-1.2c-0.5-0.4,0.2-0.1-0.4-0.6c-0.3-0.2-0.5-0.3-0.8-0.5l-0.1,0l-0.1,0.2c-0.2,0-0.4-0.1-0.6-0.2
			c-0.2-0.1-0.4-0.1-0.6-0.2c-0.2,0-0.3-0.1-0.6-0.1c0.1,0.3,0.2,0.5,0.4,0.7c0.1,0.3,0.3,0.5,0.3,0.7c-0.3-0.1-0.6-1.2-0.8-1.5
			c-0.1-0.1-0.1-0.1-0.3-0.1c-0.8-0.1,0-0.2-0.7-0.3c-0.2,0-0.1,0-0.2,0c-0.2,0-0.3,0-0.5,0c-0.9,0,0,0.4-0.2,0.8
			c-0.2,0,0,0.2-0.5-0.5c-0.2,0-1.2,0.2-1.4,0.2l-1,0.4c0,0.1,0,0-0.2-0.1l-1,0.6c-0.3,0.3-0.1,0-0.1,0.3l-0.6,0.5l-0.3-0.6
			l-0.4-1.1l-0.5-1.1l-0.8-1c-0.2-0.2-0.4-0.4-0.5-0.7c-0.2-0.1-1-0.7-1.1-0.8c-0.4-0.2-0.8-0.7-1.2-0.7l-0.6,0.3
			c-0.2,0.1-0.4,0.2-0.5,0.3l-0.4,0.3c0,0,0,0,0,0l-0.1,0c-0.2,0.2-0.5,0.4-0.8,0.5l-1,0.6l-0.7,0.5l-1.2,0.8l-1,0.6l-1,0.7L349,190
			l-2.8,1.8l-2-2.1l1.1-1.2l-0.1-0.2l0.3-0.3c-0.3-0.6-1.1-1.6-1.6-2.2c-0.1,0-0.1,0.1-0.4,0c-0.4-0.2,0.2,0-0.1-0.1l-1.9,1
			c-0.2-0.2-0.2-0.2-0.4-0.3c0,0,0,0,0,0c0,0,0,0,0,0c-0.1-0.1,0,0-0.2-0.1c-0.2-0.2-0.3-0.4-0.6-0.6c-0.4-0.4-0.3-0.4-1.4,0
			c-0.5,0.2-1,0.4-1.5,0.6c-0.2,0.1-0.5,0.2-0.8,0.3l-0.8,0.4c-0.2,0.2-0.6,0.4-0.9,0.5l-1.3,0.7c0,0,0,0-0.1,0l-2.5,1.8
			c-0.2-0.2-0.5-0.8-0.7-1C329.9,188.5,329.7,188.6,329.3,188.7L329.3,188.7L329.3,188.7z M361.9,209.2c-0.5-0.5-2.4-0.6-3.2-0.1
			C359.1,209.3,361.1,209.5,361.9,209.2z M341.3,221.4c-0.4-0.7-1.7-0.6-2.4-0.1C339.2,221.5,340.7,221.5,341.3,221.4z M374.3,198.8
			c-0.4-0.5-1.7-1-2.2-1.1l-0.1,0.5C372.6,198.4,373.7,198.4,374.3,198.8z M342.9,217.3c-0.2,0.5-0.6,2.3-0.4,2.8
			c0.2-0.5,0.4-1.9,0.5-2.5C342.9,217.5,342.9,217.4,342.9,217.3z M341.3,219.1c-0.5-0.6-1.4-0.5-2.1,0
			C339.4,219.3,340.9,219.3,341.3,219.1z M374.2,197.3c0.2-0.1,0.1-0.1,0.1-0.4l0.1-1c0-0.3,0-0.4,0.1-0.7c0-0.2,0.2-0.4,0.2-0.6
			C374.2,194.9,374.2,197.1,374.2,197.3z M360.2,206.3c-0.1-0.6-1.4-0.6-1.7-0.6c-0.5,0-1.5,0.2-2,0.5
			C357.3,206.5,358.9,206,360.2,206.3z M373.8,195.8c-0.3-0.2-2-0.7-2.4-0.6c0,0.2,0,0.3,0,0.5C372.4,195.6,373.3,195.8,373.8,195.8
			z M341.8,217.1c0.1-0.4,0.6-1.7,0.4-2.5C342,214.9,341.6,216.7,341.8,217.1z M341,216.6c-0.5-0.5-1.7-0.6-2.5-0.1
			C339,216.8,340.3,216.9,341,216.6z M351.4,207.4c-0.6-0.5-2.2-1.1-1.9,0.4c0.5,2.2,4.3,5.7,5.3,4.9c0.3-0.3,0.2-1,0-1.4
			c-0.6,0.1-0.8,0.1-1.4-0.2c-0.9-0.5-1.9-1.5-2.4-2.5C350.8,208,350.7,207.6,351.4,207.4z M358.8,201.7c-0.3,0.5-0.4,2.3,0,3.1
			C359.2,204.3,359.2,202.6,358.8,201.7z M373.1,192.4c0,0.5,0.1,2.1,0.2,2.4c0.1-0.2,0-0.5,0-0.7c0-0.3,0-0.5-0.1-0.7
			c0-0.3,0-1.2-0.1-1.4C373.1,192.2,373.1,192.2,373.1,192.4z M372.3,193.2c-0.3-0.2-0.8-0.3-1.2-0.3c-0.3,0-1-0.1-1.3,0l0.1,0.5
			C370.8,193.1,371.6,193.2,372.3,193.2z M357.6,203.4c-0.7-0.6-2.7-0.4-3.8,0.3C354.3,203.9,356.8,203.5,357.6,203.4z M340.4,215.2
			c0.3-0.7,0.5-2.1,0.4-2.9C340.6,212.9,340.3,214.6,340.4,215.2z M342.7,210c0.8,1.2,1.6,1.9,2.8,0.9c-0.6,0.1-0.8,0.5-1.4,0.1
			c-0.5-0.3-0.7-0.9-1-1.3L342.7,210z M348.7,206.1c-1.5,0.2-1.5,1.5-1.1,2.6c0.7,2.4,4,5.8,6.4,6.1c0.5,0,1.3,0,1.5-0.7l-0.3,0
			c-0.7,0-1.5-0.3-2.2-0.7c-2.1-1.2-4.8-4.3-4.5-6.7C348.6,206.6,348.7,206.4,348.7,206.1z M340,214c-0.5-0.8-2.5-0.7-3.4,0
			C337.6,214.2,338.7,213.8,340,214z M364.4,200.2l-1.1,1.2c0.5,0.5,1.2,0.8,1.8,1c3.9,1.3,6.5-2.8,4.2-6.5
			c-0.8-1.3-2.7-1.9-3.6-1.8c0.4,0.2,0.8,0.3,1.3,0.6c0.5,0.3,0.9,0.6,1.2,1.2c0.9,1.4,1.2,3.2,0.3,4.4
			C367.5,201.6,365.6,201.3,364.4,200.2z M371.2,190.3c0,0.4,0.3,1.9,0.4,2c0.1-0.1,0.1,0,0-0.3c-0.1-0.5-0.3-1.7-0.4-2
			C371.2,190.2,371.2,190.1,371.2,190.3z M356.3,202.4c0.3-0.5,0.2-1.8-0.3-2.6C355.8,200.4,355.8,201.6,356.3,202.4z M344.5,208.1
			c-0.3,0.1-2.8,1.4-3,1.6l0.3,0.4C341.8,210.1,344.5,208.1,344.5,208.1z M365.1,193.9c-1,0.7-2.1,1.5-3.1,2.3c-1,0.7-2.1,1.5-3,2.3
			l0.4,0.3L365.1,193.9z M370.4,191c-0.6-0.4-2.4-0.2-2.9,0.1l0.2,0.5C368.5,191.2,369.8,190.8,370.4,191z M340.8,208.9l0.3,0.5
			l2.8-2.1L340.8,208.9z M357.4,197.6c0.1,0.4,0.2,0.3,0.5,0.1c1.1-0.7,4.1-2.7,4.7-3.3c-0.1-0.5-0.3-0.3-0.7,0
			C361.6,194.7,357.5,197.4,357.4,197.6z M355,201.2c-0.8-0.5-3.1,0.1-4.1,1C351.6,202.3,353.9,201.4,355,201.2z M333.7,214.3
			c-0.6-0.7-2.1-1.2-1.8,0.2c0.2,0.9,0.8,2,1.4,2.8c0.5,0.7,2.8,3.1,3.3,1.9c0.1-0.3,0-0.9-0.2-1.3c-0.1,0.7-0.4,0.9-1.3,0.4
			C333.5,217.3,331.5,213.5,333.7,214.3z M338.7,212.6c0.2-0.3,0.2-2.1,0-2.7C338.5,210.2,338.5,212,338.7,212.6z M337.6,211.4
			c-0.2-0.2-0.5-0.3-0.7-0.3c-0.3,0-0.6,0.3-0.9,0.5C336.2,211.6,337.4,211.4,337.6,211.4z M353.1,200.8c0.4-0.3,0.5-1,0.1-1.5
			C352.8,199.7,352.7,200.3,353.1,200.8z M339.6,208.7l-0.9,0.8c0.2,0.2,0.5,0.5,0.7,0.7c0.1,0.1,0.2,0.2,0.3,0.3
			c0.2,0.2,0.2,0.2,0.3,0.3C340,210.8,339.6,208.7,339.6,208.7z M357.5,196.3c-0.3,0.2-0.5,0.2-0.3,0.6c0.8-0.4,5-3.3,5.2-3.6
			c-0.1-0.2-0.2-0.2-0.4,0L357.5,196.3L357.5,196.3z M335.1,211.2c-0.3,0.1-0.6,0.2-0.8,0.4c0,0,0,0,0,0l0.2,0c0.1,0,0.2,0,0.3,0
			c0.2,0,0.3,0,0.6-0.1L335.1,211.2z M367.7,189.6c-0.4-0.1-1,0-1.5,0.2c-0.3,0.1-1.3,0.3-1.5,0.4l0.2,0.5
			C366.1,190.1,366.5,189.9,367.7,189.6z M352.1,200.2c-0.9-0.6-2.8,0.5-3.7,1.4c0,0,0,0,0.1,0c0.3,0,0.6-0.2,0.9-0.3
			C350.3,200.9,351,200.5,352.1,200.2z M356.7,195.8c0.2,0,0.2,0,0.4-0.2l4.4-3c0.3-0.2,0.5-0.3,0.6-0.5c-0.2-0.2-0.2-0.2-0.4,0
			l-4.8,3.3C356.5,195.6,356.5,195.5,356.7,195.8z M336.6,220.8c-0.7-0.1-1.4-0.4-2-0.8c-0.8-0.6-1.4-1.2-2-2
			c-0.8-1.1-1.9-3.2-1.5-4.6c0.1-0.2,0.2-0.4,0.2-0.5c-1.4-0.1-1.4,1.3-1.2,2.3c0.2,1.1,0.9,2.3,1.6,3.2c0.9,1.2,3.7,4.3,5.3,2.6
			C336.9,220.9,336.6,220.8,336.6,220.8z M343.3,203.4c-0.1-0.2-0.3-0.5-0.4-0.5c-0.3,0-1.7,1-1.9,1.2c0.2,0.3,0.6,1.1,0.9,1
			l1.8-1.1C343.7,203.8,343.5,203.5,343.3,203.4C343.3,203.4,343.3,203.4,343.3,203.4z M356.7,194.4l4.5-3.1
			c0.4-0.3,0.5-0.3,0.4-0.6c-0.2,0-5.3,3.4-5.5,3.7C356.3,194.7,356.4,194.6,356.7,194.4C356.7,194.4,356.7,194.4,356.7,194.4z
			 M333.4,210c-0.1-0.1-0.3-0.3-0.4-0.3c-0.2-0.1-0.2-0.1-0.5,0c-0.4,0.2-0.7,0.4-1,0.6C332,210.4,333,210.1,333.4,210z
			 M355.9,193.1l-0.3,0.3l0.2,0.3l0.3-0.2l4.9-3.3l0.4-0.3l-0.2-0.3l-0.4,0.2L355.9,193.1C355.9,193.1,355.9,193.1,355.9,193.1z
			 M343.5,198.2l-1.7,1.1l1.9,2.7c0.2-0.2,1-1.5,1.2-1.8C344.9,200.3,343.5,198.2,343.5,198.2z M354.5,192.8l2.7,5.7
			c-0.2-0.4-0.4-1.1-0.6-1.5c-0.3-0.8-1.4-3.9-1.7-4.4L354.5,192.8z M360.7,189c0.2-0.1,0.4-0.2,0.3-0.5c-0.2-0.2-0.3-0.1-0.5,0.1
			c-1.1,0.8-4.5,2.9-5.3,3.6l0.2,0.3C356.9,191.7,359.1,190.1,360.7,189z M331.7,208.9c-0.5-0.4-0.6-0.4-1.2,0
			c-0.3,0.2-0.8,0.5-1,0.8c-0.1,0.2,0,0.1-0.1,0.1C329.9,209.7,331.1,209.2,331.7,208.9z M337,210.2c-1.2-1.4-5.4-4.2-6.9-4.5
			c-0.2,0.2-0.3,0.5-0.4,0.7c0.2,0.2,0.6,0.3,0.9,0.4c1.8,0.9,4.5,2.3,5.6,4.1L337,210.2z M350.8,189.9l-10.4,7l0.9,1.6l10.2-8.2
			C351.5,190.3,350.8,189.9,350.8,189.9z M339.8,207.6c0.5-0.5,0.5-0.6,0.1-1.2c-1.1-1.5-4.7-2.9-6.5-3.5c-0.5-0.2-0.5-0.3-1.2,0.1
			c0.5,0.4,1.4,0.8,1.9,1.1C335.9,205.1,338.3,206.5,339.8,207.6z M329.9,189.2c-0.3,0.1,0,0.4,0.2,0.7c2.9,4.3,9.1,13.7,11.5,16.4
			c0.6,0.7,0.9,0.9,2.3-0.1c0.2-0.2,0.4-0.3,0.6-0.5c0.2-0.2,0.4-0.2,0.3-0.5c-0.3,0-0.4,0.2-0.8,0.5c-1.4,1-1.6,1-2.3,0.3
			c-0.8-1-1.6-2.1-2.4-3.1c-2.8-3.9-5.7-8.3-8.5-12.3C330.6,190.1,330.2,189.3,329.9,189.2L329.9,189.2z M353.6,191.1
			c-0.7-0.5-1.5-1.7-2-2.1l-0.3,0.3c0,0.3,0,0.1,0.1,0.2l1.5,1.6c0.1,0.1,0.3,0.3,0.5,0.4c0.2,0.1,0.2,0.1,0.5,0
			c0.8-0.4,5.1-3.7,5.3-3.9C357.9,188.3,354.6,190.6,353.6,191.1C353.6,191.1,353.6,191.1,353.6,191.1z M342.6,189.3l-0.8-0.8
			l-0.8-0.8c-0.2-0.2-0.4-0.5-0.6-0.6l-0.3,0.1l-1,0.5l-1,0.5c-1,0.5-2,1.1-2.9,1.6c-0.9,0.5-2.3,1.3-3,1.9c0,0.2-0.2-0.1,0,0.2
			l1.5,2.2c2.1,3.3,4.5,6.5,6.8,9.7c0.3-0.1,1.9-1.2,2.2-1.4c-1.2-1.8-2.6-3.9-3.6-5.8l6.3-4.2l-0.1-0.3c0-0.1-0.1-0.1-0.2-0.2
			L342.6,189.3C342.6,189.3,342.6,189.3,342.6,189.3z M330.7,192.6l-0.4,0.5c0.3,0.6,0.8,1.4,1.2,2c0.2,0.3,0.4,0.8,0.7,0.9l0.9,0.1
			C333,196,330.7,192.6,330.7,192.6z M342.8,186.6c-0.3,0-0.7,0.3-1,0.5l2,2.1l0.5-0.6C344.3,188.7,342.8,186.6,342.8,186.6z
			 M328.1,195.8l-1.1,1.3l1.7,3c0.1,0.3,0.3,0.7,0.5,0.9c0,0.3,0.4,0.8,0.6,1.1c0.1,0.1,0.2,0.5,0.4,0.6c0,0.2,0.3,0.6,0.4,0.8
			c0.4-0.3,0.9-0.6,1.3-0.9c0.5-0.3,0.8-0.6,1.2-0.5c0.7,0.2,1.3,0.5,2.1,0.8c0.5-0.4,1-1,1.7-1.4l-3.4-4.9l-1.7-0.2
			c-0.6,0-1.3,1.2-1.8,0.6c-0.3-0.4-0.6-0.9-0.9-1.3l-0.4-0.6C328.7,195.1,328.1,195.8,328.1,195.8z M340,185.8
			c-0.4,0.1-1.7,0.5-2.2,0.8l0.6,0.8c0.2,0,1.8-0.7,2.1-0.9C340.4,186.2,340.2,186,340,185.8z M335.1,189.2c-0.5-1-0.6-0.9-1.5-0.4
			c-0.6,0.4-1.2,0.8-1.8,1.2c0.1,0.2,0.4,0.7,0.7,0.7C332.8,190.8,334.7,189.5,335.1,189.2z"/>
		<path class="st5" d="M339.9,192.6c0.1,0.2,0.5,0.4,0.6,0.5l0.5-0.4l1.1-0.7l1,1.4l-4.4,2.5c-0.1,0.1-0.1,0-0.1,0.1l1.5,2.9
			l-1.9,0.6c-0.6-0.6-1.7-2.4-2.2-2.8l0.7-0.5c0.2,0.3,0.5,0.8,0.8,0.9l0.5,0.7c0.2,0.2,0.4,0.3,0.9-0.2l-0.8-1.2l-0.6-0.9l-1.2-1.7
			c0.4-0.3,1.2-0.8,1.5-1.2l-0.9-2.3l1.1-0.6C338.4,190.4,339.3,192.4,339.9,192.6z"/>
		<path class="st5" d="M333.6,201.1c0.1,0.2,0.4,0.5,0.6,0.6l0.3-0.2c0.2,0,0.6-0.3,0.8-0.4c-0.5-0.9-1.2-1.8-1.7-2.7l0.2-0.1
			l0.4-0.1l2.4,3.2c-0.2,0.3-1.4,1.2-1.7,1.4l-2.1-1l-1.6,1l-0.6-0.9c0.8-0.5,1.6-0.8,2.3-1.3C333.1,200.7,333.4,201,333.6,201.1
			C333.6,201.1,333.6,201.1,333.6,201.1z"/>
		<polygon class="st5" points="342.1,202.3 340.5,203.4 338.5,200.3 340.3,199.8 		"/>
		<polygon class="st5" points="343.7,191.4 344.8,192.2 343.5,192.9 343,191.8 		"/>
		<path class="st6" d="M29.5,242.4c53.2-46.8,104.4-43.8,154.3-9c45.8-31.2,93.7-35.8,145.3,1.6"/>
	</g>
</g>
</svg>
