<svg width="100%" height="100%" id="svg" viewBox="0 0 1440 400" xmlns="http://www.w3.org/2000/svg" class="transition duration-300 ease-in-out delay-150"><path d="M 0,400 C 0,400 0,133 0,133 C 26.8457602543834,130.28052585819052 53.6915205087668,127.56105171638102 75,121 C 96.3084794912332,114.43894828361898 112.07967821931618,104.03631899266648 137,102 C 161.92032178068382,99.96368100733352 195.98976661396856,106.29367231295312 222,102 C 248.01023338603144,97.70632768704688 265.96125532480954,82.78899175552104 286,87 C 306.03874467519046,91.21100824447896 328.16521208679325,114.55036066496274 350,121 C 371.83478791320675,127.44963933503726 393.37789632801736,117.00956558462805 420,122 C 446.62210367198264,126.99043441537195 478.32320260113727,147.41137699652506 506,157 C 533.6767973988627,166.58862300347494 557.3292932674337,165.34492642927174 583,162 C 608.6707067325663,158.65507357072826 636.3596243291274,153.20891728638796 656,159 C 675.6403756708726,164.79108271361204 687.2322094160565,181.81940442517643 707,167 C 726.7677905839435,152.18059557482357 754.7115380066466,105.51346501290625 781,106 C 807.2884619933534,106.48653498709375 831.9216385573566,154.12673552319856 854,163 C 876.0783614426434,171.87326447680144 895.6019077639266,141.97959289429946 923,135 C 950.3980922360734,128.02040710570054 985.6707303869366,143.9548928996036 1012,160 C 1038.3292696130634,176.0451071003964 1055.7151706883265,192.20083550728606 1082,181 C 1108.2848293116735,169.79916449271394 1143.468586859758,131.24176507125208 1163,113 C 1182.531413140242,94.75823492874792 1186.410481872642,96.83210420770564 1211,116 C 1235.589518127358,135.16789579229436 1280.8894856496731,171.4298180979254 1306,168 C 1331.1105143503269,164.5701819020746 1336.0315755286647,121.44862340059274 1355,109 C 1373.9684244713353,96.55137659940726 1406.9842122356677,114.77568829970363 1440,133 C 1440,133 1440,400 1440,400 Z" stroke="none" stroke-width="0" fill="#1a202c88" class="transition-all duration-300 ease-in-out delay-150 path-0"></path><path d="M 0,400 C 0,400 0,266 0,266 C 19.929730091146723,266.93715416500334 39.85946018229345,267.8743083300067 66,280 C 92.14053981770655,292.1256916699933 124.49188936197294,315.4399208449765 147,315 C 169.50811063802706,314.5600791550235 182.17298236981483,290.36600829008745 205,276 C 227.82701763018517,261.63399170991255 260.8161811587677,257.0960459946737 287,244 C 313.1838188412323,230.90395400532628 332.5622929951143,209.24980773121777 360,225 C 387.4377070048857,240.75019226878223 422.934646860775,293.9047230804552 443,306 C 463.065353139225,318.0952769195448 467.69911956178566,289.13129994696146 491,265 C 514.3008804382143,240.8687000530385 556.2688748920825,221.57007713169892 585,238 C 613.7311251079175,254.42992286830108 629.2253808698842,306.58839152624284 646,306 C 662.7746191301158,305.41160847375716 680.8296016283804,252.07635676332976 709,242 C 737.1703983716196,231.92364323667024 775.4562126165944,265.10618142043825 801,273 C 826.5437873834056,280.89381857956175 839.3455479052421,263.49891755491717 864,253 C 888.6544520947579,242.50108244508283 925.1615957624366,238.89814835989307 949,248 C 972.8384042375634,257.10185164010693 984.0080690450113,278.9084890055106 1002,284 C 1019.9919309549887,289.0915109944894 1044.8061280575173,277.46789561806446 1071,270 C 1097.1938719424827,262.53210438193554 1124.7674187249195,259.2199285222313 1146,260 C 1167.2325812750805,260.7800714777687 1182.124197042805,265.6523902930101 1211,271 C 1239.875802957195,276.3476097069899 1282.73579310386,282.17051030572804 1307,272 C 1331.26420689614,261.82948969427196 1336.9326305417542,235.66556848407768 1356,232 C 1375.0673694582458,228.33443151592232 1407.5336847291228,247.16721575796117 1440,266 C 1440,266 1440,400 1440,400 Z" stroke="none" stroke-width="0" fill="#1a202cff" class="transition-all duration-300 ease-in-out delay-150 path-1"></path></svg>